{"glyphs":{"0":{"ha":851,"x_min":0,"x_max":0,"o":"m 426 -19 b 106 296 222 -19 106 101 l 106 690 b 426 1006 106 883 222 1006 b 746 690 629 1006 746 883 l 746 296 b 426 -19 746 101 629 -19 m 426 40 b 681 296 590 40 681 136 l 681 690 b 426 946 681 849 590 946 b 171 690 261 946 171 849 l 171 296 b 426 40 171 136 261 40 "},"1":{"ha":539,"x_min":0,"x_max":0,"o":"m 342 0 b 324 18 328 0 324 4 l 324 908 l 101 782 b 76 788 89 776 83 775 l 64 811 b 71 833 57 821 60 828 l 321 979 b 346 986 331 985 335 986 l 371 986 b 388 968 383 986 388 982 l 388 18 b 371 0 388 4 383 0 l 342 0 "},"2":{"ha":801,"x_min":0,"x_max":0,"o":"m 113 0 b 96 18 100 0 96 6 l 96 132 b 364 447 96 318 226 389 b 640 714 501 506 640 532 b 419 946 640 856 553 946 b 157 764 285 946 207 888 b 138 754 153 753 147 750 l 108 764 b 99 785 97 768 93 772 b 422 1006 156 932 251 1006 b 706 715 597 1006 706 885 b 403 397 706 507 564 465 b 164 140 276 344 164 289 l 164 60 l 688 60 b 704 43 700 60 704 56 l 704 18 b 688 0 704 4 700 0 l 113 0 "},"3":{"ha":811,"x_min":0,"x_max":0,"o":"m 417 -19 b 92 228 219 -19 135 69 b 103 250 88 240 92 247 l 131 258 b 153 247 142 263 149 260 b 415 40 185 111 254 40 b 654 268 581 40 654 128 b 464 478 654 389 588 478 l 261 478 b 244 496 249 478 244 482 l 244 519 b 261 536 244 532 249 536 l 460 536 b 629 728 579 536 629 626 b 414 946 629 867 557 946 b 158 744 260 946 194 885 b 136 735 154 732 149 731 l 111 742 b 100 765 99 746 96 751 b 417 1006 142 919 226 1006 b 693 732 597 1006 693 904 b 568 513 693 636 654 547 b 718 268 667 476 718 382 b 417 -19 718 93 625 -19 "},"4":{"ha":819,"x_min":0,"x_max":0,"o":"m 564 0 b 547 18 551 0 547 4 l 547 288 l 75 288 b 58 306 63 288 58 292 l 58 324 b 65 347 58 335 60 340 l 535 988 b 558 1001 543 997 547 1001 l 590 1001 b 608 982 604 1001 608 997 l 608 346 l 740 346 b 757 328 753 346 757 342 l 757 306 b 740 288 757 292 753 288 l 608 288 l 608 18 b 592 0 608 4 604 0 l 564 0 m 547 346 l 547 911 l 132 346 "},"5":{"ha":793,"x_min":0,"x_max":0,"o":"m 406 -19 b 83 197 226 -19 131 58 b 92 219 79 210 82 215 l 121 229 b 143 218 131 233 138 232 b 406 40 179 103 261 40 b 644 289 554 40 644 150 b 411 524 644 422 567 524 l 139 524 b 119 547 122 524 117 531 l 157 956 b 189 986 160 979 167 986 l 660 986 b 676 968 672 986 676 982 l 676 943 b 660 926 676 931 672 926 l 217 926 l 185 583 l 415 583 b 710 289 619 583 710 450 b 406 -19 710 119 600 -19 "},"6":{"ha":842,"x_min":0,"x_max":0,"o":"m 428 -19 b 104 326 215 -19 104 113 l 104 663 b 428 1006 104 889 217 1006 b 736 797 593 1006 689 932 b 726 776 740 785 739 781 l 700 767 b 679 778 689 763 685 765 b 428 946 639 889 563 946 b 169 665 258 946 168 854 l 169 513 b 439 565 200 526 300 565 b 751 274 653 565 751 471 b 428 -19 751 89 629 -19 m 428 40 b 686 274 593 40 686 124 b 436 507 686 431 610 507 b 169 451 293 507 193 463 l 169 325 b 428 40 169 147 257 40 "},"7":{"ha":696,"x_min":0,"x_max":0,"o":"m 219 0 b 211 18 208 0 206 7 l 586 926 l 78 926 b 61 943 65 926 61 931 l 61 968 b 78 986 61 982 65 986 l 642 986 b 658 968 654 986 658 982 l 658 951 b 654 926 658 942 658 938 l 279 15 b 253 0 272 1 269 0 l 219 0 "},"8":{"ha":835,"x_min":0,"x_max":0,"o":"m 417 -19 b 92 228 182 -19 92 82 b 321 507 92 415 247 485 b 118 757 211 550 118 608 b 418 1006 118 918 232 1006 b 718 761 614 1006 718 921 b 519 503 718 586 588 525 b 743 240 638 461 743 404 b 417 -19 743 89 651 -19 m 444 525 b 656 756 481 535 656 572 b 417 949 656 882 572 949 b 183 756 271 949 183 882 b 426 532 183 606 303 571 l 444 525 m 417 38 b 676 240 604 38 676 121 b 390 481 676 406 546 433 b 157 233 356 472 157 428 b 417 38 157 115 229 38 "},"9":{"ha":842,"x_min":0,"x_max":0,"o":"m 414 -19 b 106 189 249 -19 153 54 b 115 210 101 201 103 206 l 142 219 b 164 208 153 224 158 221 b 414 40 203 97 279 40 b 672 317 583 40 672 129 l 672 474 b 403 421 642 460 542 421 b 90 713 189 421 90 515 b 414 1006 90 897 213 1006 b 738 660 626 1006 738 874 l 738 319 b 414 -19 738 94 625 -19 m 406 479 b 672 535 549 479 649 524 l 672 661 b 414 946 672 843 585 946 b 156 713 249 946 156 863 b 406 479 156 553 232 479 "}," ":{"ha":339,"x_min":0,"x_max":0,"o":""},"!":{"ha":307,"x_min":0,"x_max":0,"o":"m 146 210 b 129 226 133 210 129 214 l 121 1011 b 138 1028 121 1024 125 1028 l 169 1028 b 186 1011 182 1028 186 1024 l 178 226 b 161 210 176 214 174 210 l 146 210 m 150 -8 b 110 32 121 -8 110 -1 l 110 39 b 150 79 110 69 119 79 l 157 79 b 197 39 188 79 197 69 l 197 32 b 157 -8 197 1 188 -8 l 150 -8 "},"\"":{"ha":417,"x_min":0,"x_max":0,"o":"m 129 672 b 114 686 117 672 114 675 l 114 971 b 129 986 114 983 117 986 l 157 986 b 172 971 168 986 172 983 l 161 686 b 144 672 160 675 157 672 l 129 672 m 265 672 b 250 686 253 672 250 675 l 250 971 b 265 986 250 983 253 986 l 292 986 b 307 971 304 986 308 983 l 296 686 b 281 672 296 675 293 672 l 265 672 "},"#":{"ha":949,"x_min":0,"x_max":0,"o":"m 174 0 b 163 15 163 0 160 4 l 240 282 l 83 282 b 72 297 72 282 69 286 l 81 321 b 100 335 85 332 89 335 l 256 335 l 333 597 l 176 597 b 165 613 165 597 161 601 l 174 636 b 193 650 178 647 182 650 l 349 650 l 415 882 b 433 899 418 894 422 899 l 464 899 b 475 882 475 899 478 894 l 407 650 l 646 650 l 713 882 b 731 899 717 894 719 899 l 760 899 b 771 882 771 899 775 894 l 706 650 l 864 650 b 875 635 875 650 878 646 l 867 611 b 849 597 864 600 858 597 l 689 597 l 613 335 l 771 335 b 782 319 782 335 786 331 l 774 296 b 756 282 771 285 767 282 l 597 282 l 519 15 b 501 0 515 4 513 0 l 471 0 b 460 15 460 0 457 4 l 538 282 l 299 282 l 222 15 b 204 0 219 4 215 0 l 174 0 m 553 335 l 631 597 l 392 597 l 314 335 "},"$":{"ha":849,"x_min":0,"x_max":0,"o":"m 403 -108 b 388 -92 392 -108 388 -104 l 388 7 b 82 247 218 17 138 108 b 92 272 78 261 79 268 l 121 282 b 143 271 132 286 138 285 b 424 65 197 142 264 65 b 693 274 607 65 693 135 b 425 465 693 438 563 451 b 101 710 269 482 101 507 b 388 979 101 875 194 974 l 388 1078 b 403 1094 388 1090 392 1094 l 435 1094 b 450 1078 446 1094 450 1090 l 450 979 b 750 758 611 969 685 893 b 740 735 756 746 753 739 l 714 724 b 692 732 703 718 699 719 b 407 921 631 856 565 921 b 167 710 243 921 167 846 b 433 525 167 554 296 539 b 758 275 589 508 758 485 b 450 7 758 110 656 15 l 450 -92 b 435 -108 450 -104 446 -108 l 403 -108 "},"%":{"ha":1150,"x_min":0,"x_max":0,"o":"m 285 499 b 75 700 149 499 75 575 l 75 803 b 285 1007 75 929 149 1007 b 494 803 421 1007 494 929 l 494 700 b 285 499 494 575 421 499 m 210 0 b 200 18 197 0 194 8 l 885 971 b 915 986 894 985 897 986 l 942 986 b 950 968 954 986 957 979 l 267 15 b 233 0 257 1 253 0 l 210 0 m 285 549 b 443 703 388 549 443 607 l 443 801 b 285 957 443 899 388 957 b 126 801 182 957 126 899 l 126 703 b 285 549 126 607 182 549 m 864 -21 b 654 181 729 -21 654 56 l 654 283 b 864 488 654 410 729 488 b 1075 283 1000 488 1075 410 l 1075 181 b 864 -21 1075 56 1000 -21 m 865 29 b 1024 183 967 29 1024 88 l 1024 282 b 865 438 1024 379 967 438 b 707 282 763 438 707 379 l 707 183 b 865 29 707 88 763 29 "},"&":{"ha":938,"x_min":0,"x_max":0,"o":"m 339 -19 b 82 238 197 -19 82 89 b 306 525 82 399 188 469 b 169 775 238 592 169 669 b 408 1006 169 894 260 1006 b 643 778 547 1006 643 899 b 410 515 643 643 564 583 l 396 508 l 678 232 l 776 328 b 797 328 783 336 790 335 l 818 310 b 817 289 825 303 824 297 l 717 189 l 892 17 b 883 0 900 6 897 0 l 844 0 b 818 11 832 0 826 1 l 676 150 b 339 -19 519 4 440 -19 m 382 563 b 588 778 499 615 588 651 b 407 953 588 868 514 953 b 225 775 296 953 225 867 b 358 549 225 679 292 614 m 340 38 b 639 192 426 38 493 58 l 343 483 b 143 239 226 432 143 374 b 340 38 143 125 233 38 "},"'":{"ha":282,"x_min":0,"x_max":0,"o":"m 131 672 b 115 686 119 672 115 675 l 115 971 b 131 986 115 983 119 986 l 158 986 b 174 971 171 986 174 983 l 163 686 b 147 672 163 675 158 672 l 131 672 "},"(":{"ha":375,"x_min":0,"x_max":0,"o":"m 296 -324 b 108 -15 182 -253 108 -185 l 108 700 b 296 1008 108 869 182 936 b 315 1000 306 1014 310 1010 l 329 979 b 321 958 335 969 331 965 b 168 701 231 897 168 840 l 168 -17 b 321 -274 168 -156 229 -212 b 328 -294 331 -281 333 -285 l 315 -315 b 296 -324 310 -325 306 -329 "},")":{"ha":372,"x_min":0,"x_max":0,"o":"m 76 -324 b 57 -315 67 -329 63 -325 l 44 -294 b 51 -274 39 -285 42 -279 b 206 -17 150 -225 206 -156 l 206 701 b 51 958 206 840 150 910 b 43 979 42 965 38 969 l 57 1000 b 76 1008 63 1010 67 1014 b 264 701 197 951 264 871 l 264 -15 b 76 -324 264 -185 197 -267 "},"*":{"ha":572,"x_min":0,"x_max":0,"o":"m 168 599 b 165 615 160 604 160 608 l 261 739 l 117 779 b 107 794 107 782 104 786 l 114 815 b 131 821 117 824 122 825 l 271 768 l 265 924 b 276 935 264 932 267 935 l 296 935 b 307 924 304 935 307 932 l 301 768 l 443 821 b 461 814 453 825 457 824 l 467 794 b 457 779 469 786 467 781 l 310 739 l 406 614 b 404 597 411 608 411 603 l 388 585 b 371 589 379 579 376 581 l 286 717 l 200 589 b 185 585 196 581 192 579 "},"+":{"ha":833,"x_min":0,"x_max":0,"o":"m 404 126 b 388 144 392 126 388 131 l 388 426 l 113 426 b 96 443 100 426 96 431 l 96 465 b 113 483 96 478 100 483 l 388 483 l 388 764 b 404 782 388 778 392 782 l 428 782 b 444 764 440 782 444 778 l 444 483 l 721 483 b 738 465 733 483 738 478 l 738 443 b 721 426 738 431 733 426 l 444 426 l 444 144 b 428 126 444 131 440 126 l 404 126 "},",":{"ha":268,"x_min":0,"x_max":0,"o":"m 61 -168 b 50 -156 50 -168 49 -165 l 103 63 b 128 83 106 79 113 83 l 154 83 b 171 63 171 83 176 76 l 94 -153 b 75 -168 92 -164 88 -168 l 61 -168 "},"-":{"ha":626,"x_min":0,"x_max":0,"o":"m 126 340 b 111 357 115 340 111 344 l 111 381 b 126 399 111 393 115 399 l 499 399 b 515 381 511 399 515 393 l 515 357 b 499 340 515 344 511 340 l 126 340 "},".":{"ha":274,"x_min":0,"x_max":0,"o":"m 133 -8 b 93 32 104 -8 93 -1 l 93 39 b 133 79 93 69 103 79 l 140 79 b 181 39 169 79 181 69 l 181 32 b 140 -8 181 1 169 -8 l 133 -8 "},"/":{"ha":588,"x_min":0,"x_max":0,"o":"m 82 -83 b 71 -68 68 -83 67 -78 l 456 971 b 478 986 460 983 465 986 l 507 986 b 518 971 519 986 522 981 l 133 -68 b 111 -83 129 -81 124 -83 l 82 -83 "},":":{"ha":306,"x_min":0,"x_max":0,"o":"m 153 583 b 113 624 124 583 113 592 l 113 631 b 153 671 113 661 122 671 l 160 671 b 200 631 189 671 200 661 l 200 624 b 160 583 200 593 189 583 l 153 583 m 153 -8 b 113 32 124 -8 113 -1 l 113 39 b 153 79 113 69 122 79 l 160 79 b 200 39 189 79 200 69 l 200 32 b 160 -8 200 1 189 -8 l 153 -8 "},";":{"ha":357,"x_min":0,"x_max":0,"o":"m 189 583 b 149 624 160 583 149 592 l 149 631 b 189 671 149 661 160 671 l 196 671 b 236 631 226 671 236 661 l 236 624 b 196 583 236 593 226 583 l 189 583 m 111 -168 b 100 -156 101 -168 99 -165 l 153 63 b 178 83 157 79 163 83 l 204 83 b 221 63 221 83 226 76 l 146 -153 b 125 -168 142 -164 138 -168 l 111 -168 "},"<":{"ha":726,"x_min":0,"x_max":0,"o":"m 90 421 b 76 444 79 428 76 432 l 76 461 b 90 485 76 475 79 478 l 596 767 b 615 753 610 774 615 769 l 615 728 b 597 697 615 707 611 706 l 156 454 l 156 451 l 599 207 b 615 176 611 199 615 196 l 615 153 b 596 140 615 138 610 132 "},"=":{"ha":860,"x_min":0,"x_max":0,"o":"m 129 563 b 113 579 117 563 113 567 l 113 603 b 129 621 113 617 117 621 l 731 621 b 747 603 743 621 747 617 l 747 579 b 731 563 747 567 743 563 l 129 563 m 129 288 b 113 306 117 288 113 292 l 113 328 b 129 346 113 342 117 346 l 731 346 b 747 328 743 346 747 342 l 747 306 b 731 288 747 292 743 288 l 129 288 "},">":{"ha":726,"x_min":0,"x_max":0,"o":"m 131 140 b 111 153 117 132 111 138 l 111 176 b 129 207 111 196 115 199 l 572 450 l 572 453 l 129 697 b 111 728 115 706 111 707 l 111 753 b 131 767 111 769 117 774 l 636 485 b 651 461 647 478 651 475 l 651 444 b 636 421 651 432 647 428 l 131 140 "},"?":{"ha":799,"x_min":0,"x_max":0,"o":"m 353 196 b 336 213 340 196 336 199 b 493 469 336 357 414 414 b 661 740 576 526 661 585 b 407 969 661 869 571 969 b 126 779 253 969 169 890 b 106 768 121 767 117 764 l 78 776 b 68 799 65 781 64 786 b 407 1028 118 931 218 1028 b 728 742 611 1028 728 900 b 532 428 728 563 625 494 b 394 213 463 379 394 325 b 379 196 394 199 390 196 l 353 196 m 363 -8 b 322 32 333 -8 322 -1 l 322 39 b 363 79 322 69 332 79 l 369 79 b 410 39 400 79 410 69 l 410 32 b 369 -8 410 1 400 -8 l 363 -8 "},"@":{"ha":1276,"x_min":0,"x_max":0,"o":"m 636 -183 b 92 357 293 -183 92 11 l 92 453 b 636 1006 92 793 293 1006 b 1179 453 990 1006 1179 782 l 1179 357 b 940 65 1179 160 1064 65 b 854 125 892 65 867 83 b 601 69 819 107 735 69 b 367 294 442 69 367 153 l 367 514 b 601 742 367 654 442 742 b 839 700 708 742 794 718 b 886 633 875 685 886 672 l 886 167 b 940 113 886 126 907 113 b 1131 357 1035 113 1131 183 l 1131 454 b 636 960 1131 758 958 960 b 142 454 326 960 142 768 l 142 357 b 636 -137 142 38 326 -137 b 926 -99 751 -137 871 -114 b 939 -104 935 -97 939 -97 l 939 -131 b 926 -146 939 -142 935 -143 b 636 -183 875 -161 765 -183 m 607 118 b 833 172 742 118 815 161 l 833 619 b 804 660 833 643 828 650 b 607 693 767 675 693 693 b 419 513 478 693 419 626 l 419 296 b 607 118 419 182 478 118 "},"A":{"ha":867,"x_min":0,"x_max":0,"o":"m 51 0 b 39 17 36 0 35 7 l 394 976 b 418 993 399 989 404 993 l 449 993 b 471 976 461 993 467 989 l 826 17 b 814 0 831 7 829 0 l 786 0 b 757 15 767 0 761 3 l 646 322 l 219 322 l 107 15 b 78 0 103 3 96 0 l 51 0 m 625 378 l 447 868 b 433 926 440 889 435 911 l 429 926 b 418 868 428 911 424 889 l 239 378 "},"B":{"ha":876,"x_min":0,"x_max":0,"o":"m 153 0 b 136 18 140 0 136 4 l 136 968 b 153 986 136 982 140 986 l 504 986 b 756 736 656 986 756 897 b 621 510 756 618 707 543 l 621 507 b 788 263 725 481 788 399 b 524 0 788 93 683 0 l 153 0 m 506 531 b 693 731 622 531 693 599 b 501 926 693 861 619 926 l 200 926 l 200 531 m 521 60 b 724 268 643 60 724 132 b 526 475 724 404 647 475 l 200 475 l 200 60 "},"C":{"ha":868,"x_min":0,"x_max":0,"o":"m 451 -19 b 106 324 229 -19 106 111 l 106 664 b 451 1006 106 875 225 1006 b 789 764 651 1006 746 922 b 779 742 794 750 790 744 l 751 733 b 729 743 739 729 733 731 b 453 946 692 881 617 946 b 171 665 265 946 171 839 l 171 322 b 451 42 171 149 267 42 b 731 249 619 42 692 115 b 753 261 735 263 740 265 l 782 251 b 793 228 793 247 797 242 b 451 -19 744 71 656 -19 "},"D":{"ha":885,"x_min":0,"x_max":0,"o":"m 153 0 b 136 18 140 0 136 4 l 136 968 b 153 986 136 982 140 986 l 414 986 b 785 619 653 986 785 846 l 785 367 b 414 0 785 140 653 0 l 153 0 m 415 60 b 721 367 613 60 721 174 l 721 619 b 415 926 721 813 614 926 l 200 926 l 200 60 "},"E":{"ha":779,"x_min":0,"x_max":0,"o":"m 153 0 b 136 18 140 0 136 4 l 136 968 b 153 986 136 982 140 986 l 668 986 b 685 968 681 986 685 982 l 685 943 b 668 926 685 931 681 926 l 200 926 l 200 531 l 613 531 b 629 513 625 531 629 525 l 629 488 b 613 469 629 474 625 469 l 200 469 l 200 60 l 685 60 b 701 43 697 60 701 56 l 701 18 b 685 0 701 4 697 0 l 153 0 "},"F":{"ha":750,"x_min":0,"x_max":0,"o":"m 153 0 b 136 18 140 0 136 4 l 136 968 b 153 986 136 982 140 986 l 663 986 b 679 968 675 986 679 982 l 679 943 b 663 926 679 931 675 926 l 201 926 l 201 515 l 601 515 b 618 497 614 515 618 511 l 618 472 b 601 456 618 460 614 456 l 201 456 l 201 18 b 185 0 201 4 196 0 l 153 0 "},"G":{"ha":892,"x_min":0,"x_max":0,"o":"m 453 -19 b 106 325 226 -19 106 113 l 106 664 b 453 1006 106 875 225 1006 b 789 764 650 1006 746 922 b 778 740 793 750 789 744 l 750 732 b 728 743 738 728 732 731 b 453 946 690 881 615 946 b 171 665 263 946 171 839 l 171 325 b 453 40 171 147 267 40 b 736 314 638 40 736 143 l 736 439 l 464 439 b 447 456 451 439 447 443 l 447 481 b 464 499 447 494 451 499 l 781 499 b 799 479 794 499 799 494 l 799 315 b 453 -19 799 113 676 -19 "},"H":{"ha":931,"x_min":0,"x_max":0,"o":"m 153 0 b 136 18 140 0 136 4 l 136 968 b 153 986 136 982 140 986 l 183 986 b 200 968 196 986 200 982 l 200 531 l 731 531 l 731 968 b 747 986 731 982 735 986 l 779 986 b 796 968 792 986 796 982 l 796 18 b 779 0 796 4 792 0 l 747 0 b 731 18 735 0 731 4 l 731 469 l 200 469 l 200 18 b 183 0 200 4 196 0 l 153 0 "},"I":{"ha":336,"x_min":0,"x_max":0,"o":"m 151 0 b 136 17 142 0 136 3 l 136 971 b 151 986 136 983 142 986 l 185 986 b 200 971 194 986 200 983 l 200 17 b 185 0 200 3 193 0 l 151 0 "},"J":{"ha":775,"x_min":0,"x_max":0,"o":"m 347 -19 b 53 254 174 -19 83 83 b 64 278 49 267 51 274 l 90 286 b 113 272 103 290 110 286 b 349 42 138 124 207 42 b 582 301 501 42 582 140 l 582 969 b 599 986 582 982 586 986 l 631 986 b 647 969 643 986 647 982 l 647 303 b 347 -19 647 106 542 -19 "},"K":{"ha":821,"x_min":0,"x_max":0,"o":"m 153 0 b 136 18 140 0 136 4 l 136 968 b 153 986 136 982 140 986 l 183 986 b 200 968 196 986 200 982 l 200 529 l 363 529 l 394 529 l 683 971 b 714 986 692 983 696 986 l 749 986 b 758 968 761 986 764 978 l 457 517 b 611 364 531 497 572 447 l 771 18 b 760 0 776 8 774 0 l 729 0 b 701 15 711 0 707 3 l 554 339 b 367 471 513 431 468 471 l 200 471 l 200 18 b 183 0 200 4 196 0 l 153 0 "},"L":{"ha":707,"x_min":0,"x_max":0,"o":"m 151 0 b 136 18 140 0 136 4 l 136 968 b 151 986 136 982 140 986 l 183 986 b 200 968 196 986 200 982 l 200 60 l 651 60 b 667 43 663 60 667 56 l 667 18 b 651 0 667 4 663 0 l 151 0 "},"M":{"ha":1093,"x_min":0,"x_max":0,"o":"m 153 0 b 136 18 140 0 136 4 l 136 968 b 153 986 136 982 140 986 l 179 986 b 206 971 193 986 200 982 l 547 310 l 886 969 b 911 986 893 982 896 986 l 940 986 b 957 968 953 986 957 982 l 957 18 b 940 0 957 4 953 0 l 911 0 b 894 18 899 0 894 4 l 894 654 b 903 886 894 728 896 804 l 900 886 b 806 689 868 815 839 753 l 579 251 b 558 236 574 240 568 236 l 538 236 b 515 251 526 236 521 239 l 285 694 b 193 888 251 757 224 817 l 189 888 b 197 654 196 804 197 731 l 197 18 b 181 0 197 4 193 0 l 153 0 "},"N":{"ha":943,"x_min":0,"x_max":0,"o":"m 153 0 b 136 18 140 0 136 4 l 136 968 b 153 986 136 982 140 986 l 188 986 b 206 976 197 986 203 982 l 636 292 b 751 90 679 224 714 157 l 756 90 b 746 343 750 172 746 254 l 746 969 b 763 986 746 982 750 986 l 792 986 b 808 968 804 986 808 982 l 808 18 b 792 0 808 4 804 0 l 757 0 b 738 11 747 0 743 1 l 294 714 b 194 894 258 775 226 838 l 192 894 b 199 665 193 824 199 746 l 199 18 b 181 0 199 4 194 0 l 153 0 "},"O":{"ha":904,"x_min":0,"x_max":0,"o":"m 453 -19 b 106 324 226 -19 106 111 l 106 663 b 453 1006 106 875 226 1006 b 799 663 678 1006 799 875 l 799 324 b 453 -19 799 111 678 -19 m 453 40 b 735 325 636 40 735 147 l 735 661 b 453 946 735 839 636 946 b 171 661 269 946 171 839 l 171 325 b 453 40 171 147 269 40 "},"P":{"ha":846,"x_min":0,"x_max":0,"o":"m 153 0 b 136 18 140 0 136 4 l 136 968 b 153 986 136 982 140 986 l 494 986 b 779 683 668 986 779 874 b 494 383 779 496 669 383 l 200 383 l 200 18 b 183 0 200 4 196 0 l 153 0 m 492 444 b 714 683 628 444 714 532 b 492 926 714 836 628 926 l 200 926 l 200 444 "},"Q":{"ha":961,"x_min":0,"x_max":0,"o":"m 710 43 b 496 -19 657 3 585 -19 b 149 324 269 -19 149 111 l 149 663 b 496 1006 149 875 269 1006 b 842 663 721 1006 842 875 l 842 324 b 760 79 842 222 814 139 l 874 -44 b 872 -68 882 -54 882 -61 l 850 -86 b 826 -83 840 -93 835 -93 m 496 40 b 776 325 678 40 778 147 l 776 661 b 496 946 776 839 678 946 b 213 661 311 946 213 839 l 213 325 b 496 40 213 147 311 40 "},"R":{"ha":878,"x_min":0,"x_max":0,"o":"m 153 0 b 136 18 140 0 136 4 l 136 968 b 153 986 136 982 140 986 l 517 986 b 781 708 679 986 781 885 b 554 444 781 549 693 456 b 664 326 607 422 638 383 l 806 18 b 796 0 811 8 808 0 l 765 0 b 735 15 744 0 740 3 l 604 301 b 414 435 561 394 515 435 l 200 435 l 200 18 b 183 0 200 4 196 0 l 153 0 m 514 492 b 715 708 638 492 715 569 b 514 926 715 847 640 926 l 200 926 l 200 492 "},"S":{"ha":853,"x_min":0,"x_max":0,"o":"m 426 -19 b 81 219 250 -19 140 53 b 90 243 76 232 78 239 l 119 253 b 142 243 132 257 136 256 b 426 42 196 100 286 42 b 701 261 608 42 701 114 b 431 464 701 425 569 447 b 97 732 274 485 97 517 b 421 1006 97 900 217 1006 b 756 793 593 1006 689 940 b 747 769 763 782 760 774 l 719 760 b 697 767 708 754 704 756 b 421 944 642 890 560 944 b 163 733 257 944 163 867 b 447 525 163 569 301 543 b 767 260 601 506 767 472 b 426 -19 767 79 650 -19 "},"T":{"ha":733,"x_min":0,"x_max":0,"o":"m 351 0 b 335 17 339 0 335 4 l 335 926 l 56 926 b 39 943 43 926 39 931 l 39 968 b 56 986 39 982 43 986 l 678 986 b 694 968 690 986 694 982 l 694 943 b 678 926 694 931 690 926 l 399 926 l 399 17 b 382 0 399 4 394 0 l 351 0 "},"U":{"ha":932,"x_min":0,"x_max":0,"o":"m 465 -19 b 128 335 239 -19 128 119 l 128 969 b 144 986 128 982 132 986 l 175 986 b 192 969 188 986 192 982 l 192 335 b 465 40 192 156 281 40 b 739 335 651 40 739 156 l 739 969 b 756 986 739 982 743 986 l 788 986 b 804 969 800 986 804 982 l 804 335 b 465 -19 804 119 692 -19 "},"V":{"ha":839,"x_min":0,"x_max":0,"o":"m 403 0 b 381 15 390 0 385 4 l 39 969 b 51 986 36 979 39 986 l 83 986 b 108 971 100 986 104 983 l 390 172 b 418 79 400 142 411 107 l 422 79 b 450 172 431 107 439 142 l 731 971 b 758 986 735 983 739 986 l 790 986 b 800 969 801 986 804 979 l 458 17 b 436 0 456 4 449 0 l 403 0 "},"W":{"ha":1218,"x_min":0,"x_max":0,"o":"m 328 0 b 304 15 314 0 307 3 l 56 969 b 67 986 51 981 54 986 l 103 986 b 124 971 118 986 122 983 l 315 224 b 342 92 325 183 335 136 l 344 92 b 375 222 353 139 365 182 l 575 949 b 597 965 578 963 585 965 l 625 965 b 649 949 638 965 646 963 l 846 221 b 875 92 857 179 865 135 l 878 92 b 904 219 886 135 894 179 l 1096 971 b 1118 986 1099 983 1103 986 l 1151 986 b 1164 969 1163 986 1167 981 l 914 17 b 892 0 911 3 904 0 l 860 0 b 836 15 847 0 840 3 l 640 747 b 611 874 629 786 621 832 l 608 874 b 578 747 600 832 589 788 l 381 17 b 358 0 379 3 371 0 l 328 0 "},"X":{"ha":825,"x_min":0,"x_max":0,"o":"m 53 0 b 46 21 39 0 39 10 l 369 501 l 54 969 b 63 986 49 978 51 986 l 100 986 b 131 971 118 986 122 985 l 413 551 l 693 971 b 722 986 700 985 704 986 l 761 986 b 771 969 772 986 775 978 l 453 503 l 779 21 b 771 0 786 10 785 0 l 733 0 b 704 15 715 0 713 1 l 411 453 l 121 15 b 93 0 114 1 108 0 l 53 0 "},"Y":{"ha":847,"x_min":0,"x_max":0,"o":"m 408 0 b 392 18 396 0 392 4 l 392 407 l 44 968 b 54 986 39 978 42 986 l 90 986 b 119 971 110 986 113 983 l 425 468 l 731 971 b 760 986 738 983 740 986 l 794 986 b 804 968 807 986 810 978 l 456 404 l 456 18 b 439 0 456 4 451 0 l 408 0 "},"Z":{"ha":758,"x_min":0,"x_max":0,"o":"m 82 0 b 67 18 71 0 67 4 l 67 42 b 74 65 67 51 68 57 l 606 926 l 88 926 b 72 944 76 926 72 931 l 72 968 b 88 986 72 982 76 986 l 667 986 b 683 968 679 986 683 982 l 683 946 b 676 924 683 936 682 931 l 143 61 l 682 61 b 699 43 694 61 699 57 l 699 18 b 682 0 699 4 694 0 l 82 0 "},"[":{"ha":394,"x_min":0,"x_max":0,"o":"m 135 -353 b 119 -336 122 -353 119 -350 l 119 1022 b 135 1039 119 1036 122 1039 l 338 1039 b 354 1024 351 1039 354 1036 l 354 1000 b 338 985 354 988 351 985 l 178 985 l 178 -297 l 338 -297 b 354 -314 351 -297 354 -300 l 354 -337 b 338 -353 354 -350 351 -353 l 135 -353 "},"\\":{"ha":568,"x_min":0,"x_max":0,"o":"m 454 -83 b 436 -69 443 -83 439 -81 l 68 972 b 78 986 65 981 68 986 l 114 986 b 132 972 125 986 129 983 l 500 -69 b 490 -83 503 -78 501 -83 l 454 -83 "},"]":{"ha":394,"x_min":0,"x_max":0,"o":"m 56 -353 b 40 -337 43 -353 40 -350 l 40 -314 b 56 -297 40 -300 43 -297 l 217 -297 l 217 985 l 56 985 b 40 1000 43 985 40 988 l 40 1024 b 56 1039 40 1036 43 1039 l 258 1039 b 275 1022 272 1039 275 1036 l 275 -336 b 258 -353 275 -350 272 -353 l 56 -353 "},"^":{"ha":863,"x_min":0,"x_max":0,"o":"m 110 722 b 101 743 94 722 90 729 l 396 1108 b 419 1122 403 1118 408 1122 l 439 1122 b 461 1108 451 1122 453 1118 l 761 743 b 753 722 771 729 767 722 l 722 722 b 690 738 703 722 700 725 l 429 1060 l 426 1060 l 171 738 b 138 722 160 724 157 722 l 110 722 "},"_":{"ha":746,"x_min":0,"x_max":0,"o":"m 79 -58 b 63 -40 67 -58 63 -54 l 63 -18 b 79 0 63 -4 67 0 l 667 0 b 683 -18 679 0 683 -4 l 683 -40 b 667 -58 683 -54 679 -58 l 79 -58 "},"`":{"ha":400,"x_min":0,"x_max":0,"o":"m 81 967 b 79 988 71 972 71 978 l 93 1003 b 124 1004 103 1014 113 1011 l 314 858 b 317 838 322 853 325 846 l 308 826 b 286 826 303 821 296 821 "},"a":{"ha":694,"x_min":0,"x_max":0,"o":"m 344 -19 b 78 193 158 -19 78 47 b 349 401 78 336 163 401 b 529 386 431 401 507 389 l 529 475 b 344 678 529 618 472 678 b 150 560 246 678 186 632 b 128 553 144 550 139 547 l 110 561 b 101 585 99 565 94 571 b 344 732 143 675 221 732 b 588 472 517 732 588 644 l 588 96 b 543 17 588 47 578 33 b 344 -19 497 -6 435 -19 m 340 31 b 500 60 411 31 460 40 b 529 110 524 69 529 76 l 529 336 b 344 353 504 340 425 353 b 138 193 203 353 138 301 b 340 31 138 82 201 31 "},"b":{"ha":733,"x_min":0,"x_max":0,"o":"m 369 -19 b 165 21 281 -19 210 0 b 117 97 125 39 117 51 l 117 1011 b 132 1028 117 1024 121 1028 l 161 1028 b 176 1011 172 1028 176 1024 l 176 679 b 382 732 206 694 281 732 b 638 464 550 732 638 638 l 638 261 b 369 -19 638 78 551 -19 m 368 36 b 578 263 511 36 579 111 l 578 463 b 376 675 578 603 508 675 b 176 622 278 675 203 638 l 176 114 b 207 68 176 86 179 81 b 368 36 240 51 300 36 "},"c":{"ha":701,"x_min":0,"x_max":0,"o":"m 360 -19 b 94 249 185 -19 94 81 l 94 464 b 364 732 94 631 183 732 b 622 542 518 732 589 660 b 613 518 626 528 622 522 l 589 510 b 568 521 576 507 571 510 b 363 678 539 628 483 678 b 154 465 224 678 154 596 l 154 249 b 361 35 154 117 226 35 b 569 196 478 35 535 86 b 589 207 574 208 578 211 l 615 199 b 625 176 626 196 631 189 b 360 -19 581 44 510 -19 "},"d":{"ha":733,"x_min":0,"x_max":0,"o":"m 364 -19 b 96 261 182 -19 96 78 l 96 464 b 351 732 96 638 183 732 b 557 679 453 732 528 694 l 557 1011 b 572 1028 557 1024 561 1028 l 601 1028 b 617 1011 614 1028 617 1024 l 617 97 b 568 21 617 51 608 39 b 364 -19 524 0 453 -19 m 365 36 b 526 68 433 36 493 51 b 557 114 554 81 557 86 l 557 622 b 357 675 531 638 456 675 b 156 463 225 675 156 603 l 156 263 b 365 36 154 111 222 36 "},"e":{"ha":717,"x_min":0,"x_max":0,"o":"m 357 -19 b 92 254 176 -19 92 89 l 92 442 b 364 732 92 621 185 732 b 632 444 544 732 632 615 l 632 374 b 603 343 632 354 624 343 l 151 343 l 151 249 b 357 32 151 117 219 32 b 572 168 474 32 533 86 b 594 175 579 179 585 181 l 614 164 b 622 139 625 158 628 150 b 357 -19 578 49 500 -19 m 574 392 l 574 447 b 364 679 574 589 506 679 b 151 447 221 679 151 589 l 151 392 "},"f":{"ha":447,"x_min":0,"x_max":0,"o":"m 176 0 b 161 17 165 0 161 4 l 161 657 l 44 657 b 29 672 33 657 29 660 l 29 696 b 44 711 29 707 33 711 l 161 711 l 161 757 b 386 1028 161 958 219 1026 l 396 1028 b 411 1011 408 1028 411 1024 l 411 988 b 396 971 411 975 408 971 b 221 757 256 971 221 928 l 221 711 l 397 711 b 413 696 408 711 413 707 l 413 672 b 397 657 413 660 408 657 l 221 657 l 221 17 b 206 0 221 4 218 0 l 176 0 "},"g":{"ha":731,"x_min":0,"x_max":0,"o":"m 354 -351 b 113 -194 222 -351 154 -285 b 117 -169 104 -182 107 -175 l 139 -158 b 164 -165 151 -151 157 -156 b 354 -296 199 -243 249 -296 b 554 -56 499 -296 554 -206 l 554 38 b 338 -10 508 14 440 -10 b 96 256 169 -10 96 88 l 96 451 b 361 732 96 633 179 732 b 565 692 451 732 521 713 b 614 614 606 674 614 658 l 614 -54 b 354 -351 614 -235 543 -351 m 344 44 b 554 93 451 44 513 69 l 554 599 b 524 644 554 626 551 632 b 363 676 492 660 435 676 b 156 450 219 676 156 603 l 156 258 b 344 44 156 119 211 44 "},"h":{"ha":751,"x_min":0,"x_max":0,"o":"m 136 0 b 121 17 124 0 121 4 l 121 1011 b 136 1028 121 1024 124 1028 l 165 1028 b 181 1011 176 1028 181 1024 l 181 683 b 394 732 231 710 304 732 b 638 465 564 732 638 635 l 638 17 b 622 0 638 4 633 0 l 593 0 b 578 17 582 0 578 4 l 578 461 b 388 676 578 603 521 676 b 181 626 304 676 233 657 l 181 17 b 165 0 181 4 176 0 l 136 0 "},"i":{"ha":300,"x_min":0,"x_max":0,"o":"m 140 893 b 108 928 117 893 108 900 l 108 939 b 140 974 108 964 117 974 l 160 974 b 190 939 183 974 190 964 l 190 928 b 160 893 190 901 183 893 l 140 893 m 136 0 b 119 17 124 0 119 4 l 119 696 b 136 711 119 707 124 711 l 164 711 b 179 696 176 711 179 707 l 179 17 b 164 0 179 4 176 0 l 136 0 "},"j":{"ha":297,"x_min":0,"x_max":0,"o":"m 142 893 b 111 928 118 893 111 900 l 111 939 b 142 974 111 964 119 974 l 161 974 b 193 939 185 974 193 964 l 193 928 b 161 893 193 901 185 893 l 142 893 m -46 -319 b -61 -303 -57 -319 -61 -315 l -61 -279 b -46 -262 -61 -267 -57 -262 b 119 -15 115 -262 119 -174 l 119 696 b 133 711 119 707 122 711 l 164 711 b 179 696 175 711 179 707 l 179 -17 b -46 -319 179 -211 163 -319 "},"k":{"ha":681,"x_min":0,"x_max":0,"o":"m 136 0 b 121 17 124 0 121 4 l 121 1011 b 136 1028 121 1024 124 1028 l 165 1028 b 181 1011 176 1028 181 1024 l 181 394 l 333 394 l 346 394 l 549 699 b 578 711 557 711 561 711 l 603 711 b 614 693 619 711 621 704 l 403 383 b 514 272 458 368 489 332 l 626 18 b 615 0 632 6 629 0 l 590 0 b 563 14 572 0 568 3 l 461 247 b 336 339 435 310 401 339 l 181 339 l 181 17 b 165 0 181 4 176 0 l 136 0 "},"l":{"ha":310,"x_min":0,"x_max":0,"o":"m 138 0 b 125 17 128 0 125 4 l 125 1011 b 138 1028 125 1024 128 1028 l 172 1028 b 185 1011 182 1028 185 1024 l 185 17 b 172 0 185 4 182 0 l 138 0 "},"m":{"ha":1138,"x_min":0,"x_max":0,"o":"m 132 0 b 117 17 122 0 117 4 l 117 610 b 165 689 117 653 128 669 b 369 732 210 710 272 732 b 551 661 456 732 515 708 b 783 732 596 690 656 732 b 1024 471 950 732 1024 639 l 1024 17 b 1007 0 1024 4 1019 0 l 979 0 b 964 17 968 0 964 4 l 964 468 b 778 676 964 608 910 676 b 582 613 672 676 621 642 b 604 485 597 579 604 536 l 604 17 b 589 0 604 4 600 0 l 561 0 b 544 17 549 0 544 4 l 544 482 b 363 676 544 622 488 676 b 203 643 289 676 244 664 b 176 594 179 631 176 614 l 176 17 b 161 0 176 4 172 0 l 132 0 "},"n":{"ha":747,"x_min":0,"x_max":0,"o":"m 132 0 b 117 17 121 0 117 4 l 117 610 b 164 686 117 653 126 669 b 392 732 210 707 281 732 b 633 464 560 732 633 632 l 633 17 b 618 0 633 4 631 0 l 589 0 b 574 17 578 0 574 4 l 574 461 b 383 676 574 601 514 676 b 203 639 306 676 239 658 b 176 594 179 628 176 614 l 176 17 b 161 0 176 4 172 0 l 132 0 "},"o":{"ha":735,"x_min":0,"x_max":0,"o":"m 367 -19 b 97 224 203 -19 97 72 l 97 488 b 367 732 97 639 203 732 b 638 488 533 732 638 639 l 638 224 b 367 -19 638 72 533 -19 m 367 35 b 578 224 494 35 578 107 l 578 489 b 367 676 578 606 494 676 b 157 489 242 676 157 606 l 157 224 b 367 35 157 107 242 35 "},"p":{"ha":732,"x_min":0,"x_max":0,"o":"m 132 -306 b 117 -289 121 -306 117 -301 l 117 614 b 165 690 117 660 125 672 b 369 732 211 713 281 732 b 635 451 551 732 635 633 l 635 247 b 393 -19 635 81 563 -19 b 176 36 292 -19 208 19 l 176 -289 b 161 -306 176 -301 172 -306 l 132 -306 m 386 36 b 575 249 518 36 575 113 l 575 450 b 368 676 575 601 511 676 b 207 644 300 676 240 660 b 176 599 181 631 176 626 l 176 93 b 386 36 207 75 289 36 "},"q":{"ha":732,"x_min":0,"x_max":0,"o":"m 571 -306 b 556 -289 558 -306 556 -301 l 556 36 b 339 -19 524 19 440 -19 b 96 247 169 -19 96 81 l 96 451 b 363 732 96 633 181 732 b 565 690 451 732 521 713 b 615 614 606 672 615 660 l 615 -289 b 600 -306 615 -301 611 -306 l 571 -306 m 344 36 b 556 93 443 36 524 75 l 556 599 b 525 644 556 626 551 631 b 364 676 492 660 432 676 b 156 450 221 676 156 601 l 156 249 b 344 36 156 113 213 36 "},"r":{"ha":481,"x_min":0,"x_max":0,"o":"m 131 0 b 117 17 121 0 117 4 l 117 593 b 161 671 117 636 125 654 b 375 711 206 692 272 711 l 429 711 b 444 697 440 711 444 707 l 444 674 b 429 657 444 661 440 657 l 372 657 b 203 622 297 657 236 639 b 176 575 179 610 176 594 l 176 17 b 163 0 176 4 172 0 l 131 0 "},"s":{"ha":672,"x_min":0,"x_max":0,"o":"m 342 -19 b 76 154 210 -19 119 26 b 85 176 72 167 74 174 l 111 185 b 132 175 124 189 128 188 b 342 33 167 71 240 33 b 533 181 474 33 533 90 b 343 328 533 296 456 317 b 90 532 213 342 90 360 b 333 731 90 657 178 731 b 581 581 476 731 547 674 b 575 557 586 568 585 561 l 553 549 b 531 556 539 543 536 546 b 333 678 503 631 451 678 b 150 532 215 678 150 625 b 354 381 150 403 239 393 b 593 182 486 368 593 335 b 342 -19 593 58 511 -19 "},"t":{"ha":463,"x_min":0,"x_max":0,"o":"m 413 0 b 169 261 235 -1 169 44 l 169 657 l 43 657 b 28 672 32 657 28 660 l 28 696 b 43 711 28 707 32 711 l 169 711 l 169 863 b 185 878 169 874 174 878 l 214 878 b 229 863 226 878 229 874 l 229 711 l 415 711 b 431 696 426 711 431 707 l 431 672 b 415 657 431 660 426 657 l 229 657 l 229 264 b 413 57 229 88 274 57 b 429 43 425 58 429 54 l 429 17 b 413 0 429 4 425 0 "},"u":{"ha":747,"x_min":0,"x_max":0,"o":"m 356 -19 b 114 249 188 -19 114 81 l 114 696 b 129 711 114 707 117 711 l 158 711 b 174 696 169 711 174 707 l 174 251 b 364 36 174 110 231 36 b 544 71 446 36 507 53 b 571 119 568 83 571 97 l 571 696 b 586 711 571 707 575 711 l 615 711 b 631 696 626 711 631 707 l 631 101 b 583 25 631 58 621 42 b 356 -19 538 4 471 -19 "},"v":{"ha":679,"x_min":0,"x_max":0,"o":"m 325 -6 b 303 11 314 -6 308 -1 l 47 690 b 58 711 42 706 43 711 l 83 711 b 108 694 100 711 104 708 l 303 175 b 340 64 317 139 329 99 l 342 64 b 378 174 353 97 365 139 l 572 696 b 597 711 575 708 579 711 l 621 711 b 633 692 635 711 639 707 l 375 11 b 353 -6 371 -1 365 -6 l 325 -6 "},"w":{"ha":1001,"x_min":0,"x_max":0,"o":"m 274 -7 b 254 10 263 -7 258 -4 l 56 693 b 69 711 53 707 54 711 l 94 711 b 119 694 113 711 117 707 l 258 204 b 289 69 271 164 279 114 l 293 69 b 326 207 301 113 314 165 l 467 674 b 492 690 469 688 474 690 l 510 690 b 535 675 528 690 532 688 l 674 214 b 710 69 688 168 700 115 l 713 69 b 744 210 722 113 732 163 l 883 696 b 910 711 886 710 892 711 l 932 711 b 946 693 947 711 949 707 l 747 10 b 725 -7 743 -1 736 -7 l 697 -7 b 676 10 685 -7 679 -1 l 528 511 l 500 617 l 497 617 b 471 511 490 585 481 547 l 322 10 b 301 -7 319 -4 314 -7 l 274 -7 "},"x":{"ha":650,"x_min":0,"x_max":0,"o":"m 58 0 b 49 18 43 0 42 6 l 286 365 l 60 694 b 71 711 54 704 56 711 l 100 711 b 128 699 115 711 121 710 l 326 408 l 522 699 b 547 711 529 710 532 711 l 579 711 b 589 694 593 711 596 706 l 367 367 l 603 18 b 593 0 610 6 607 0 l 560 0 b 535 14 546 0 542 3 l 326 324 l 115 14 b 89 0 108 1 104 0 l 58 0 "},"y":{"ha":751,"x_min":0,"x_max":0,"o":"m 368 -351 b 126 -196 236 -351 168 -289 b 132 -169 119 -183 119 -175 l 151 -158 b 176 -167 165 -153 171 -156 b 368 -297 211 -243 264 -297 b 571 -56 513 -297 571 -206 l 571 36 b 356 -10 528 18 464 -10 b 114 258 188 -10 114 90 l 114 696 b 129 711 114 707 117 711 l 158 711 b 174 696 169 711 174 707 l 174 261 b 364 44 174 119 231 44 b 571 92 463 44 532 75 l 571 696 b 586 711 571 707 575 711 l 615 711 b 631 696 626 711 631 707 l 631 -51 b 368 -351 631 -233 557 -351 "},"z":{"ha":608,"x_min":0,"x_max":0,"o":"m 79 0 b 64 17 68 0 64 4 l 64 39 b 71 57 64 47 65 49 l 463 657 l 85 657 b 71 674 74 657 71 661 l 71 696 b 85 711 71 707 74 711 l 521 711 b 535 696 532 711 535 707 l 535 674 b 528 651 535 664 533 660 l 136 54 l 529 54 b 543 39 540 54 543 50 l 543 17 b 529 0 543 4 540 0 l 79 0 "},"{":{"ha":458,"x_min":0,"x_max":0,"o":"m 350 -354 b 179 -179 224 -354 179 -299 l 179 169 b 57 311 179 261 151 311 l 42 311 b 28 328 31 311 28 317 l 28 356 b 42 372 28 367 31 372 l 57 372 b 179 514 151 372 179 424 l 179 864 b 350 1039 179 983 225 1039 l 404 1039 b 421 1022 417 1039 421 1035 l 421 1000 b 404 983 421 988 417 983 l 351 983 b 238 861 268 983 238 943 l 238 507 b 146 342 238 419 208 367 b 238 176 213 319 238 264 l 238 -176 b 351 -299 238 -257 268 -299 l 404 -299 b 421 -315 417 -299 421 -303 l 421 -337 b 404 -354 421 -350 417 -354 l 350 -354 "},"|":{"ha":294,"x_min":0,"x_max":0,"o":"m 135 -204 b 119 -187 122 -204 119 -200 l 119 1172 b 135 1189 119 1185 122 1189 l 160 1189 b 175 1172 171 1189 175 1185 l 175 -187 b 160 -204 175 -200 171 -204 l 135 -204 "},"}":{"ha":458,"x_min":0,"x_max":0,"o":"m 54 -354 b 38 -337 42 -354 38 -350 l 38 -315 b 54 -299 38 -303 42 -299 l 107 -299 b 221 -176 190 -299 221 -257 l 221 176 b 313 342 221 264 247 319 b 221 507 250 367 221 419 l 221 861 b 107 983 221 943 190 983 l 54 983 b 38 1000 42 983 38 988 l 38 1022 b 54 1039 38 1035 42 1039 l 108 1039 b 279 864 233 1039 279 983 l 279 514 b 403 372 279 424 310 372 l 417 372 b 431 356 428 372 431 367 l 431 328 b 417 311 431 317 428 311 l 403 311 b 279 169 310 311 279 261 l 279 -179 b 108 -354 279 -299 235 -354 l 54 -354 "},"~":{"ha":811,"x_min":0,"x_max":0,"o":"m 538 389 b 288 450 431 389 381 450 b 160 394 235 450 197 429 b 138 394 151 386 146 388 l 121 413 b 119 436 111 421 111 428 b 276 506 165 479 211 506 b 526 443 382 506 433 443 b 656 499 579 443 621 467 b 678 499 664 507 668 508 l 694 482 b 696 457 703 474 704 467 b 538 389 650 414 603 389 "}," ":{"ha":339,"x_min":0,"x_max":0,"o":""},"¡":{"ha":292,"x_min":0,"x_max":0,"o":"m 150 717 b 190 676 179 717 190 706 l 190 668 b 150 628 190 639 179 628 l 143 628 b 103 668 113 628 103 639 l 103 676 b 143 717 103 708 114 717 m 153 497 b 169 482 165 497 169 494 l 178 -304 b 163 -321 178 -317 174 -321 l 129 -321 b 114 -304 118 -321 114 -317 l 122 482 b 138 497 122 494 126 497 "},"¢":{"ha":771,"x_min":0,"x_max":0,"o":"m 374 -117 b 358 -100 363 -117 358 -112 l 358 -18 b 101 249 190 -8 101 90 l 101 465 b 358 729 101 622 188 719 l 358 831 b 374 847 358 843 363 847 l 404 847 b 419 831 415 847 419 843 l 419 729 b 671 542 569 722 639 654 b 661 518 675 528 671 522 l 638 510 b 617 521 625 506 621 510 b 389 678 585 628 522 678 b 161 465 236 678 161 596 l 161 249 b 389 35 161 117 239 35 b 617 199 515 35 586 88 b 638 211 621 211 626 214 l 665 203 b 675 181 676 200 681 193 b 419 -18 639 57 561 -10 l 419 -100 b 404 -117 419 -112 415 -117 l 374 -117 "},"£":{"ha":904,"x_min":0,"x_max":0,"o":"m 90 0 b 75 18 79 0 75 4 l 75 43 b 85 58 75 51 78 58 l 115 58 b 221 207 194 58 221 142 l 221 442 l 107 442 b 90 460 94 442 90 446 l 90 482 b 107 499 90 494 94 499 l 222 499 l 222 753 b 507 1006 222 893 307 1006 b 803 790 656 1006 750 949 b 793 768 808 778 804 772 l 767 758 b 744 769 754 753 750 757 b 508 946 697 904 626 946 b 289 751 350 946 289 860 l 289 499 l 663 499 b 679 482 675 499 679 494 l 679 460 b 663 442 679 446 675 442 l 288 442 l 288 208 b 221 58 288 149 268 93 l 221 56 b 375 60 263 57 315 60 l 789 60 b 806 43 801 60 806 56 l 806 18 b 789 0 806 4 801 0 l 90 0 "},"¤":{"ha":856,"x_min":0,"x_max":0,"o":"m 132 165 b 132 188 124 174 124 179 l 208 265 b 139 467 164 319 139 389 b 206 667 139 544 164 613 l 129 744 b 131 767 122 753 122 758 l 153 786 b 174 786 161 794 167 794 l 247 711 b 428 781 296 754 358 781 b 606 714 496 781 557 756 l 679 788 b 700 789 686 797 692 796 l 722 768 b 722 746 731 761 731 754 l 647 669 b 717 467 690 615 717 546 b 650 268 717 390 692 322 l 726 192 b 726 168 733 183 735 176 l 704 149 b 682 149 696 140 690 140 l 608 224 b 428 154 561 179 499 154 b 250 221 360 154 297 179 l 176 146 b 154 146 168 138 163 138 m 428 208 b 660 468 560 208 660 321 b 428 725 660 615 560 725 b 196 468 294 725 196 615 b 428 208 196 321 294 208 "},"¥":{"ha":904,"x_min":0,"x_max":0,"o":"m 436 0 b 419 18 424 0 419 4 l 419 224 l 193 224 b 179 239 182 224 179 228 l 179 256 b 193 272 179 268 182 272 l 421 272 l 421 422 l 193 422 b 179 438 182 422 179 426 l 179 454 b 193 471 179 467 182 471 l 399 471 l 65 968 b 75 986 61 978 64 986 l 113 986 b 142 969 131 986 135 985 l 454 492 l 765 971 b 794 986 772 985 776 986 l 831 986 b 840 968 843 986 844 978 l 507 471 l 708 471 b 724 454 719 471 724 467 l 724 438 b 708 422 724 426 719 422 l 483 422 l 483 272 l 708 272 b 724 256 719 272 724 268 l 724 239 b 708 224 724 228 719 224 l 485 224 l 485 18 b 468 0 485 4 481 0 l 436 0 "},"¦":{"ha":308,"x_min":0,"x_max":0,"o":"m 142 599 b 125 615 129 599 125 603 l 125 1172 b 142 1189 125 1185 129 1189 l 167 1189 b 182 1172 178 1189 182 1185 l 182 615 b 167 599 182 603 178 599 l 142 599 m 142 -203 b 125 -186 129 -203 125 -199 l 125 371 b 142 388 125 383 129 388 l 167 388 b 182 371 178 388 182 383 l 182 -186 b 167 -203 182 -199 178 -203 l 142 -203 "},"§":{"ha":808,"x_min":0,"x_max":0,"o":"m 410 -310 b 93 -74 251 -310 146 -232 b 106 -50 89 -61 93 -54 l 133 -40 b 156 -53 146 -36 150 -37 b 408 -250 197 -187 282 -250 b 647 -67 575 -250 647 -176 b 400 114 647 86 526 100 b 100 346 257 129 100 156 b 243 564 100 476 188 538 b 107 771 164 592 107 649 b 397 1014 107 913 193 1014 b 706 781 550 1014 650 939 b 694 757 710 768 708 763 l 671 747 b 649 757 658 740 654 744 b 397 953 604 890 519 953 b 172 771 236 953 172 879 b 417 588 172 619 293 603 b 703 354 554 571 703 535 b 576 140 703 235 625 171 b 713 -67 654 113 713 58 b 410 -310 713 -208 617 -310 m 513 158 b 639 350 538 172 639 226 b 401 529 639 488 519 514 b 308 543 369 533 338 536 b 164 353 278 532 164 490 b 410 174 165 207 285 188 b 513 158 443 169 479 165 "},"¨":{"ha":650,"x_min":0,"x_max":0,"o":"m 196 867 b 164 897 172 867 164 874 l 164 907 b 196 939 164 931 172 939 l 204 939 b 236 907 229 939 236 931 l 236 897 b 204 867 236 874 229 867 l 196 867 m 438 867 b 404 897 411 867 404 874 l 404 907 b 438 939 404 931 411 939 l 444 939 b 476 907 468 939 476 931 l 476 897 b 444 867 476 874 468 867 l 438 867 "},"©":{"ha":1157,"x_min":0,"x_max":0,"o":"m 581 -11 b 88 488 269 -11 88 174 b 581 986 88 801 269 986 b 1069 488 888 986 1069 801 b 581 -11 1069 174 888 -11 m 581 29 b 1029 488 863 29 1029 200 b 581 944 1029 775 863 944 b 129 488 296 944 129 775 b 581 29 129 200 296 29 m 574 199 b 358 399 435 199 358 276 l 358 564 b 574 764 358 688 433 764 b 785 622 700 764 758 713 b 778 604 789 613 786 608 l 760 599 b 743 606 750 596 746 597 b 574 721 719 688 676 721 b 404 565 458 721 404 664 l 404 399 b 574 243 404 301 460 243 b 744 364 672 243 721 281 b 763 372 749 374 751 375 l 779 367 b 788 350 789 364 792 360 b 574 199 760 253 694 199 "},"ª":{"ha":513,"x_min":0,"x_max":0,"o":"m 250 493 b 100 613 138 493 100 538 b 253 739 100 692 139 739 b 356 731 304 739 342 733 l 356 761 b 256 888 356 840 331 888 b 147 826 206 888 175 869 b 131 822 143 819 138 819 l 117 831 b 113 850 108 835 107 842 b 257 931 146 906 194 931 b 404 758 369 931 404 863 l 404 586 b 365 514 404 543 396 531 b 250 493 339 500 303 493 m 249 533 b 333 549 290 533 315 540 b 356 593 350 558 356 565 l 356 692 b 251 700 340 694 304 700 b 147 614 169 700 147 667 b 249 533 147 563 176 533 "},"«":{"ha":797,"x_min":0,"x_max":0,"o":"m 78 354 b 78 375 71 363 71 367 l 360 660 b 379 661 367 668 372 668 l 396 644 b 396 622 403 636 404 631 l 144 365 l 394 111 b 394 90 403 103 403 97 l 378 74 b 357 74 369 65 365 65 m 383 354 b 383 375 376 363 376 367 l 665 660 b 685 660 672 667 678 668 l 701 644 b 701 622 710 636 710 631 l 449 365 l 701 111 b 700 90 708 104 708 97 l 683 74 b 663 74 675 65 671 65 "},"¬":{"ha":824,"x_min":0,"x_max":0,"o":"m 665 194 b 649 210 653 194 649 199 l 649 468 l 133 468 b 117 485 121 468 117 472 l 117 508 b 133 525 117 521 121 525 l 693 525 b 710 508 706 525 710 521 l 710 210 b 693 194 710 199 706 194 l 665 194 "},"®":{"ha":711,"x_min":0,"x_max":0,"o":"m 357 447 b 104 717 199 447 104 547 b 357 986 104 886 199 986 b 607 717 514 986 607 886 b 357 447 607 547 514 447 m 358 476 b 578 717 497 476 578 565 b 358 956 578 868 497 956 b 136 717 218 956 136 868 b 358 476 136 565 218 476 m 269 574 b 261 582 264 574 261 576 l 261 847 b 275 860 261 857 264 860 l 372 860 b 468 768 432 860 468 826 b 404 683 468 721 444 692 l 458 586 b 451 574 464 578 463 574 l 442 574 b 426 581 431 574 431 575 l 372 679 l 293 679 l 293 582 b 285 574 293 576 290 574 l 269 574 m 372 708 b 438 768 414 708 438 728 b 372 829 438 807 414 829 l 293 829 l 293 708 "},"¯":{"ha":532,"x_min":0,"x_max":0,"o":"m 110 879 b 94 894 97 879 94 883 l 94 910 b 110 925 94 922 99 925 l 418 925 b 433 910 431 925 433 922 l 433 894 b 418 879 433 883 431 879 l 110 879 "},"°":{"ha":568,"x_min":0,"x_max":0,"o":"m 285 568 b 97 771 171 568 97 654 b 285 972 97 889 171 972 b 472 771 397 972 472 889 b 285 568 472 657 397 568 m 285 615 b 422 771 368 615 422 685 b 285 925 422 858 368 925 b 146 771 201 925 146 858 b 285 615 146 683 201 615 "},"±":{"ha":925,"x_min":0,"x_max":0,"o":"m 453 325 b 436 343 440 325 436 329 l 436 524 l 163 524 b 144 540 149 524 144 528 l 144 558 b 163 576 144 572 149 576 l 436 576 l 436 761 b 453 779 436 775 440 779 l 474 779 b 492 761 486 779 492 775 l 492 576 l 763 576 b 781 558 776 576 781 572 l 781 540 b 763 524 781 528 776 524 l 492 524 l 492 343 b 474 325 492 329 486 325 l 453 325 m 163 178 b 144 196 149 178 144 183 l 144 214 b 163 232 144 226 149 232 l 763 232 b 781 214 776 232 781 226 l 781 196 b 763 178 781 183 776 178 l 163 178 "},"´":{"ha":358,"x_min":0,"x_max":0,"o":"m 96 826 b 72 826 85 821 78 821 l 64 838 b 67 858 57 846 58 853 l 258 1004 b 288 1003 268 1011 279 1014 l 303 988 b 300 967 311 978 310 972 l 96 826 "},"µ":{"ha":783,"x_min":0,"x_max":0,"o":"m 126 -306 b 113 -289 117 -306 113 -301 l 113 696 b 128 711 113 707 117 711 l 157 711 b 172 696 168 711 172 707 l 172 250 b 382 33 172 110 236 33 b 583 71 472 33 540 53 b 613 118 610 83 613 97 l 613 696 b 628 711 613 707 617 711 l 657 711 b 672 696 667 711 672 707 l 672 100 b 622 25 672 58 661 42 b 390 -21 571 3 496 -21 b 171 97 275 -21 206 21 l 172 -289 b 157 -306 172 -301 168 -306 l 126 -306 "},"¶":{"ha":532,"x_min":0,"x_max":0,"o":"m 233 -124 b 219 -107 222 -124 219 -119 l 219 707 b 92 844 144 708 92 764 b 224 986 92 931 144 986 l 390 986 b 404 969 401 986 404 982 l 404 -107 b 390 -124 404 -119 401 -124 l 360 -124 b 344 -107 349 -124 344 -119 l 344 924 l 278 924 l 278 -107 b 264 -124 278 -119 274 -124 l 233 -124 "},"·":{"ha":310,"x_min":0,"x_max":0,"o":"m 151 326 b 111 367 122 326 111 335 l 111 375 b 151 415 111 404 121 415 l 158 415 b 199 375 189 415 199 404 l 199 367 b 158 326 199 336 189 326 l 151 326 "},"¸":{"ha":356,"x_min":0,"x_max":0,"o":"m 171 -339 b 75 -310 129 -339 94 -322 b 64 -287 67 -304 64 -299 l 64 -269 b 74 -262 64 -262 67 -258 b 164 -300 93 -281 118 -300 b 261 -211 225 -300 261 -272 b 179 -140 261 -165 226 -140 b 136 -149 163 -140 147 -143 b 122 -131 125 -150 119 -143 l 164 0 l 204 0 l 172 -111 b 206 -106 181 -108 193 -106 b 314 -214 268 -106 317 -149 b 171 -339 311 -303 253 -339 "},"º":{"ha":518,"x_min":0,"x_max":0,"o":"m 258 494 b 100 658 154 494 100 556 l 100 767 b 258 931 100 868 154 931 b 418 767 364 931 418 868 l 418 658 b 258 494 418 556 364 494 m 258 540 b 369 657 332 540 369 583 l 369 768 b 258 885 369 840 332 885 b 149 768 188 885 149 840 l 149 657 b 258 540 149 583 188 540 "},"»":{"ha":797,"x_min":0,"x_max":0,"o":"m 96 90 b 94 111 88 97 88 104 l 349 365 l 94 622 b 94 644 86 631 88 636 l 111 661 b 132 661 119 668 125 668 l 413 375 b 413 354 419 367 419 363 l 133 74 b 113 74 125 65 121 65 m 401 90 b 401 111 393 97 394 104 l 654 365 l 400 622 b 400 644 392 631 393 636 l 417 661 b 438 661 425 668 429 668 l 718 375 b 718 354 725 367 725 363 l 439 74 b 418 74 431 64 426 67 "},"¼":{"ha":1039,"x_min":0,"x_max":0,"o":"m 251 443 b 233 460 238 443 233 447 l 233 925 l 101 850 b 76 856 90 843 82 844 l 68 868 b 76 892 61 881 67 886 l 236 986 b 258 992 243 990 249 992 l 268 992 b 286 974 282 992 286 988 l 286 460 b 268 443 286 447 282 443 l 251 443 m 215 0 b 207 18 203 0 200 7 l 794 969 b 822 986 803 985 806 986 l 843 986 b 851 968 856 986 858 979 l 267 17 b 236 0 257 3 254 0 l 215 0 m 860 0 b 847 15 850 0 847 3 l 847 156 l 599 156 b 583 171 586 156 583 158 l 583 183 b 589 204 583 193 583 197 l 835 538 b 860 549 842 549 847 549 l 881 549 b 897 531 894 549 897 546 l 897 200 l 957 200 b 971 186 968 200 971 197 l 971 171 b 957 156 971 158 968 156 l 897 156 l 897 15 b 883 0 897 3 893 0 l 860 0 m 847 200 l 847 483 l 640 200 "},"½":{"ha":1115,"x_min":0,"x_max":0,"o":"m 250 444 b 233 463 238 444 233 449 l 233 926 l 100 851 b 75 858 89 844 82 846 l 68 869 b 76 894 61 882 65 888 l 235 988 b 257 993 242 992 249 993 l 268 993 b 285 975 281 993 285 989 l 285 463 b 268 444 285 449 281 444 l 250 444 m 201 0 b 193 18 189 0 186 7 l 781 969 b 808 986 789 985 792 986 l 829 986 b 838 968 842 986 844 979 l 253 17 b 222 0 243 3 240 0 l 201 0 m 708 0 b 690 18 696 0 690 4 l 690 78 b 789 244 690 161 719 215 l 863 276 b 981 396 922 303 981 315 b 868 510 981 467 944 510 b 740 401 788 510 750 450 b 722 389 736 389 732 386 l 703 394 b 693 415 692 397 689 403 b 871 560 707 483 760 560 b 1033 399 979 560 1033 496 b 888 236 1033 293 963 268 l 815 206 b 747 94 771 185 747 154 l 747 49 l 1014 49 b 1029 32 1026 49 1029 43 l 1029 15 b 1014 0 1029 4 1026 0 l 708 0 "},"¾":{"ha":1101,"x_min":0,"x_max":0,"o":"m 271 435 b 82 583 161 435 104 485 b 89 606 78 599 81 603 l 107 611 b 126 600 119 615 122 614 b 269 482 146 517 188 482 b 389 594 349 482 389 529 b 300 704 389 654 353 704 l 214 704 b 200 719 203 704 200 707 l 200 735 b 214 751 200 749 203 751 l 297 751 b 376 849 351 751 376 799 b 268 958 376 914 335 958 b 128 849 193 958 150 932 b 106 836 124 833 119 832 l 92 842 b 85 863 85 844 81 849 b 269 1006 113 968 168 1006 b 426 853 367 1006 426 943 b 360 731 426 801 408 754 b 440 592 413 704 440 654 b 271 435 440 499 385 435 m 278 0 b 269 18 265 0 263 7 l 857 969 b 885 986 865 985 868 986 l 906 986 b 914 968 918 986 921 979 l 329 17 b 299 0 319 3 317 0 l 278 0 m 924 0 b 910 15 913 0 910 3 l 910 156 l 661 156 b 646 171 650 156 646 158 l 646 183 b 651 204 646 193 647 197 l 897 538 b 922 549 906 549 910 549 l 943 549 b 960 531 957 549 960 546 l 960 200 l 1019 200 b 1033 186 1032 200 1033 197 l 1033 171 b 1019 156 1033 158 1032 156 l 960 156 l 960 15 b 946 0 960 3 957 0 l 924 0 m 910 200 l 910 483 l 703 200 "},"¿":{"ha":804,"x_min":0,"x_max":0,"o":"m 443 717 b 483 676 472 717 483 710 l 483 669 b 443 629 483 639 474 629 l 436 629 b 396 669 407 629 396 639 l 396 676 b 436 717 396 707 407 717 l 443 717 m 454 513 b 469 496 465 513 469 510 b 313 239 469 351 393 294 b 144 -32 231 181 144 124 b 400 -262 144 -161 236 -262 b 681 -71 553 -262 638 -182 b 701 -60 685 -58 689 -56 l 729 -68 b 739 -90 740 -72 743 -78 b 400 -319 689 -224 588 -319 b 78 -33 194 -319 78 -192 b 275 281 78 146 181 214 b 411 496 344 328 411 383 b 428 513 411 510 415 513 l 454 513 "},"À":{"ha":867,"x_min":0,"x_max":0,"o":"m 314 1200 b 313 1219 304 1204 303 1210 l 326 1236 b 357 1236 336 1246 346 1243 l 547 1090 b 550 1069 556 1085 558 1079 l 542 1058 b 519 1058 536 1053 529 1053 m 51 0 b 39 17 36 0 35 7 l 394 976 b 418 993 399 989 404 993 l 449 993 b 471 976 461 993 467 989 l 826 17 b 814 0 831 7 829 0 l 786 0 b 757 15 767 0 761 3 l 646 322 l 219 322 l 107 15 b 78 0 103 3 96 0 l 51 0 m 625 378 l 447 868 b 433 926 440 889 435 911 l 429 926 b 418 868 428 911 424 889 l 239 378 "},"Á":{"ha":867,"x_min":0,"x_max":0,"o":"m 347 1060 b 324 1060 336 1054 329 1054 l 315 1071 b 318 1092 308 1079 310 1086 l 510 1238 b 539 1236 519 1243 531 1246 l 554 1221 b 551 1200 563 1211 561 1206 l 347 1060 m 51 0 b 39 17 36 0 35 7 l 394 976 b 418 993 399 989 404 993 l 449 993 b 471 976 461 993 467 989 l 826 17 b 814 0 831 7 829 0 l 786 0 b 757 15 767 0 761 3 l 646 322 l 219 322 l 107 15 b 78 0 103 3 96 0 l 51 0 m 625 378 l 447 868 b 433 926 440 889 435 911 l 429 926 b 418 868 428 911 424 889 l 239 378 "},"Â":{"ha":867,"x_min":0,"x_max":0,"o":"m 244 1056 b 235 1068 229 1056 228 1061 l 396 1225 b 431 1240 411 1239 414 1240 l 436 1240 b 469 1225 450 1240 454 1240 l 629 1068 b 619 1056 636 1061 635 1056 l 594 1056 b 567 1065 581 1056 575 1056 l 432 1197 l 294 1065 b 269 1056 288 1057 283 1056 l 244 1056 m 51 0 b 39 17 36 0 35 7 l 394 976 b 418 993 399 989 404 993 l 449 993 b 471 976 461 993 467 989 l 826 17 b 814 0 831 7 829 0 l 786 0 b 757 15 767 0 761 3 l 646 322 l 219 322 l 107 15 b 78 0 103 3 96 0 l 51 0 m 625 378 l 447 868 b 433 926 440 889 435 911 l 429 926 b 418 868 428 911 424 889 l 239 378 "},"Ã":{"ha":867,"x_min":0,"x_max":0,"o":"m 251 1075 b 240 1088 243 1075 240 1079 b 336 1218 240 1171 278 1218 b 522 1118 426 1218 450 1118 b 581 1206 561 1118 581 1154 b 592 1218 581 1214 583 1218 l 610 1218 b 622 1206 619 1218 622 1214 b 525 1075 622 1124 589 1075 b 342 1175 438 1075 414 1175 b 282 1088 304 1175 282 1140 b 271 1075 282 1079 278 1075 l 251 1075 m 51 0 b 39 17 36 0 35 7 l 394 976 b 418 993 399 989 404 993 l 449 993 b 471 976 461 993 467 989 l 826 17 b 814 0 831 7 829 0 l 786 0 b 757 15 767 0 761 3 l 646 322 l 219 322 l 107 15 b 78 0 103 3 96 0 l 51 0 m 625 378 l 447 868 b 433 926 440 889 435 911 l 429 926 b 418 868 428 911 424 889 l 239 378 "},"Ä":{"ha":867,"x_min":0,"x_max":0,"o":"m 307 1113 b 275 1143 283 1113 275 1119 l 275 1153 b 307 1185 275 1176 283 1185 l 315 1185 b 347 1153 340 1185 347 1176 l 347 1143 b 315 1113 347 1119 340 1113 l 307 1113 m 551 1113 b 518 1143 525 1113 518 1119 l 518 1153 b 551 1185 518 1176 525 1185 l 558 1185 b 592 1153 582 1185 592 1176 l 592 1143 b 558 1113 592 1119 582 1113 l 551 1113 m 51 0 b 39 17 36 0 35 7 l 394 976 b 418 993 399 989 404 993 l 449 993 b 471 976 461 993 467 989 l 826 17 b 814 0 831 7 829 0 l 786 0 b 757 15 767 0 761 3 l 646 322 l 219 322 l 107 15 b 78 0 103 3 96 0 l 51 0 m 625 378 l 447 868 b 433 926 440 889 435 911 l 429 926 b 418 868 428 911 424 889 l 239 378 "},"Å":{"ha":867,"x_min":0,"x_max":0,"o":"m 51 0 b 39 17 36 0 35 7 l 390 961 b 301 1085 336 975 301 1021 b 433 1221 301 1165 354 1221 b 561 1085 510 1221 561 1165 b 476 963 561 1021 529 975 l 826 17 b 814 0 831 7 829 0 l 786 0 b 757 15 767 0 761 3 l 646 322 l 219 322 l 107 15 b 78 0 103 3 96 0 l 51 0 m 433 989 b 522 1085 486 989 522 1028 b 433 1182 522 1143 486 1182 b 340 1085 378 1182 340 1143 b 433 989 340 1028 378 989 m 625 378 l 447 868 b 433 926 440 889 435 911 l 429 926 b 418 868 428 911 424 889 l 239 378 "},"Æ":{"ha":1124,"x_min":0,"x_max":0,"o":"m 29 0 b 18 17 15 0 13 7 l 567 969 b 590 986 575 983 578 986 l 1011 986 b 1028 968 1024 986 1028 982 l 1028 943 b 1011 926 1028 931 1024 926 l 644 926 l 644 529 l 953 529 b 969 511 965 529 969 525 l 969 486 b 953 469 969 474 965 469 l 644 469 l 644 60 l 1029 60 b 1046 43 1042 60 1046 56 l 1046 18 b 1029 0 1046 4 1042 0 l 597 0 b 581 18 585 0 581 4 l 581 260 l 228 260 l 90 15 b 60 0 85 4 81 0 l 29 0 m 581 314 l 582 886 l 261 314 "},"Ç":{"ha":868,"x_min":0,"x_max":0,"o":"m 454 -342 b 357 -311 411 -342 376 -324 b 346 -289 349 -306 346 -301 l 346 -271 b 356 -265 346 -265 349 -260 b 447 -301 375 -283 400 -301 b 543 -212 508 -301 543 -275 b 461 -142 543 -168 510 -143 b 418 -150 446 -142 431 -146 b 406 -133 407 -153 401 -144 l 440 -19 b 106 324 224 -15 106 115 l 106 664 b 451 1006 106 875 225 1006 b 789 764 651 1006 746 922 b 779 742 794 750 790 744 l 751 733 b 729 743 739 729 733 731 b 453 946 692 881 617 946 b 171 665 265 946 171 839 l 171 322 b 451 42 171 149 267 42 b 731 249 619 42 692 115 b 753 261 735 263 740 265 l 782 251 b 793 228 793 247 797 242 b 481 -19 747 78 665 -11 l 454 -112 b 488 -108 463 -110 476 -108 b 596 -215 550 -108 599 -151 b 454 -342 593 -306 535 -342 "},"È":{"ha":779,"x_min":0,"x_max":0,"o":"m 292 1200 b 290 1219 282 1204 281 1210 l 304 1236 b 335 1236 314 1246 324 1243 l 525 1090 b 528 1069 533 1085 536 1079 l 519 1058 b 497 1058 514 1053 507 1053 m 153 0 b 136 18 140 0 136 4 l 136 968 b 153 986 136 982 140 986 l 668 986 b 685 968 681 986 685 982 l 685 943 b 668 926 685 931 681 926 l 200 926 l 200 531 l 613 531 b 629 513 625 531 629 525 l 629 488 b 613 469 629 474 625 469 l 200 469 l 200 60 l 685 60 b 701 43 697 60 701 56 l 701 18 b 685 0 701 4 697 0 l 153 0 "},"É":{"ha":779,"x_min":0,"x_max":0,"o":"m 325 1060 b 301 1060 314 1054 307 1054 l 293 1071 b 296 1092 286 1079 288 1086 l 488 1238 b 517 1236 497 1243 508 1246 l 532 1221 b 529 1200 540 1211 539 1206 l 325 1060 m 153 0 b 136 18 140 0 136 4 l 136 968 b 153 986 136 982 140 986 l 668 986 b 685 968 681 986 685 982 l 685 943 b 668 926 685 931 681 926 l 200 926 l 200 531 l 613 531 b 629 513 625 531 629 525 l 629 488 b 613 469 629 474 625 469 l 200 469 l 200 60 l 685 60 b 701 43 697 60 701 56 l 701 18 b 685 0 701 4 697 0 l 153 0 "},"Ê":{"ha":779,"x_min":0,"x_max":0,"o":"m 224 1056 b 214 1068 208 1056 207 1061 l 375 1225 b 410 1240 390 1239 393 1240 l 415 1240 b 449 1225 429 1240 433 1240 l 608 1068 b 599 1056 615 1061 614 1056 l 574 1056 b 546 1065 560 1056 554 1056 l 411 1197 l 274 1065 b 249 1056 267 1057 263 1056 l 224 1056 m 153 0 b 136 18 140 0 136 4 l 136 968 b 153 986 136 982 140 986 l 668 986 b 685 968 681 986 685 982 l 685 943 b 668 926 685 931 681 926 l 200 926 l 200 531 l 613 531 b 629 513 625 531 629 525 l 629 488 b 613 469 629 474 625 469 l 200 469 l 200 60 l 685 60 b 701 43 697 60 701 56 l 701 18 b 685 0 701 4 697 0 l 153 0 "},"Ë":{"ha":779,"x_min":0,"x_max":0,"o":"m 285 1113 b 253 1143 261 1113 253 1119 l 253 1153 b 285 1185 253 1176 261 1185 l 293 1185 b 325 1153 318 1185 325 1176 l 325 1143 b 293 1113 325 1119 318 1113 l 285 1113 m 529 1113 b 496 1143 503 1113 496 1119 l 496 1153 b 529 1185 496 1176 503 1185 l 536 1185 b 569 1153 560 1185 569 1176 l 569 1143 b 536 1113 569 1119 560 1113 l 529 1113 m 153 0 b 136 18 140 0 136 4 l 136 968 b 153 986 136 982 140 986 l 668 986 b 685 968 681 986 685 982 l 685 943 b 668 926 685 931 681 926 l 200 926 l 200 531 l 613 531 b 629 513 625 531 629 525 l 629 488 b 613 469 629 474 625 469 l 200 469 l 200 60 l 685 60 b 701 43 697 60 701 56 l 701 18 b 685 0 701 4 697 0 l 153 0 "},"Ì":{"ha":336,"x_min":0,"x_max":0,"o":"m 49 1200 b 47 1219 39 1204 38 1210 l 61 1236 b 92 1236 71 1246 81 1243 l 282 1090 b 285 1069 290 1085 293 1079 l 276 1058 b 254 1058 271 1053 264 1053 m 151 0 b 136 17 142 0 136 3 l 136 971 b 151 986 136 983 142 986 l 185 986 b 200 971 194 986 200 983 l 200 17 b 185 0 200 3 193 0 l 151 0 "},"Í":{"ha":336,"x_min":0,"x_max":0,"o":"m 82 1060 b 58 1060 71 1054 64 1054 l 50 1071 b 53 1092 43 1079 44 1086 l 244 1238 b 274 1236 254 1243 265 1246 l 289 1221 b 286 1200 297 1211 296 1206 l 82 1060 m 151 0 b 136 17 142 0 136 3 l 136 971 b 151 986 136 983 142 986 l 185 986 b 200 971 194 986 200 983 l 200 17 b 185 0 200 3 193 0 l 151 0 "},"Î":{"ha":336,"x_min":0,"x_max":0,"o":"m -21 1056 b -31 1068 -36 1056 -37 1061 l 131 1225 b 165 1240 146 1239 149 1240 l 171 1240 b 204 1225 185 1240 189 1240 l 364 1068 b 354 1056 371 1061 369 1056 l 329 1056 b 301 1065 315 1056 310 1056 l 167 1197 l 29 1065 b 4 1056 22 1057 18 1056 l -21 1056 m 151 0 b 136 17 142 0 136 3 l 136 971 b 151 986 136 983 142 986 l 185 986 b 200 971 194 986 200 983 l 200 17 b 185 0 200 3 193 0 l 151 0 "},"Ï":{"ha":336,"x_min":0,"x_max":0,"o":"m 42 1113 b 10 1143 18 1113 10 1119 l 10 1153 b 42 1185 10 1176 18 1185 l 50 1185 b 82 1153 75 1185 82 1176 l 82 1143 b 50 1113 82 1119 75 1113 l 42 1113 m 286 1113 b 253 1143 260 1113 253 1119 l 253 1153 b 286 1185 253 1176 260 1185 l 293 1185 b 326 1153 317 1185 326 1176 l 326 1143 b 293 1113 326 1119 317 1113 l 286 1113 m 151 0 b 136 17 142 0 136 3 l 136 971 b 151 986 136 983 142 986 l 185 986 b 200 971 194 986 200 983 l 200 17 b 185 0 200 3 193 0 l 151 0 "},"Ð":{"ha":882,"x_min":0,"x_max":0,"o":"m 149 0 b 132 18 136 0 132 4 l 132 471 l 38 471 b 24 483 28 471 24 474 l 24 506 b 38 519 24 517 28 519 l 132 519 l 132 968 b 149 986 132 982 136 986 l 411 986 b 782 619 650 986 782 846 l 782 367 b 411 0 782 140 650 0 l 149 0 m 413 60 b 717 367 610 60 717 174 l 717 619 b 413 926 717 813 610 926 l 197 926 l 197 519 l 424 519 b 436 506 433 519 436 517 l 436 483 b 424 471 436 474 433 471 l 197 471 l 197 60 "},"Ñ":{"ha":943,"x_min":0,"x_max":0,"o":"m 292 1075 b 281 1088 283 1075 281 1079 b 376 1218 281 1171 318 1218 b 563 1118 467 1218 490 1118 b 621 1206 601 1118 621 1154 b 632 1218 621 1214 624 1218 l 650 1218 b 663 1206 660 1218 663 1214 b 565 1075 663 1124 629 1075 b 382 1175 478 1075 454 1175 b 322 1088 344 1175 322 1140 b 311 1075 322 1079 318 1075 l 292 1075 m 153 0 b 136 18 140 0 136 4 l 136 968 b 153 986 136 982 140 986 l 188 986 b 206 976 197 986 203 982 l 636 292 b 751 90 679 224 714 157 l 756 90 b 746 343 750 172 746 254 l 746 969 b 763 986 746 982 750 986 l 792 986 b 808 968 804 986 808 982 l 808 18 b 792 0 808 4 804 0 l 757 0 b 738 11 747 0 743 1 l 294 714 b 194 894 258 775 226 838 l 192 894 b 199 665 193 824 199 746 l 199 18 b 181 0 199 4 194 0 l 153 0 "},"Ò":{"ha":904,"x_min":0,"x_max":0,"o":"m 333 1214 b 332 1233 324 1218 322 1224 l 346 1250 b 376 1250 356 1260 365 1257 l 567 1104 b 569 1083 575 1099 578 1093 l 561 1072 b 539 1072 556 1067 549 1067 m 453 -19 b 106 324 226 -19 106 111 l 106 663 b 453 1006 106 875 226 1006 b 799 663 678 1006 799 875 l 799 324 b 453 -19 799 111 678 -19 m 453 40 b 735 325 636 40 735 147 l 735 661 b 453 946 735 839 636 946 b 171 661 269 946 171 839 l 171 325 b 453 40 171 147 269 40 "},"Ó":{"ha":904,"x_min":0,"x_max":0,"o":"m 367 1074 b 343 1074 356 1068 349 1068 l 335 1085 b 338 1106 328 1093 329 1100 l 529 1251 b 558 1250 539 1257 550 1260 l 574 1235 b 571 1214 582 1225 581 1219 l 367 1074 m 453 -19 b 106 324 226 -19 106 111 l 106 663 b 453 1006 106 875 226 1006 b 799 663 678 1006 799 875 l 799 324 b 453 -19 799 111 678 -19 m 453 40 b 735 325 636 40 735 147 l 735 661 b 453 946 735 839 636 946 b 171 661 269 946 171 839 l 171 325 b 453 40 171 147 269 40 "},"Ô":{"ha":904,"x_min":0,"x_max":0,"o":"m 265 1069 b 256 1082 250 1069 249 1075 l 417 1239 b 451 1254 432 1253 435 1254 l 457 1254 b 490 1239 471 1254 475 1254 l 650 1082 b 640 1069 657 1075 656 1069 l 615 1069 b 588 1079 601 1069 596 1069 l 453 1211 l 315 1079 b 290 1069 308 1071 304 1069 l 265 1069 m 453 -19 b 106 324 226 -19 106 111 l 106 663 b 453 1006 106 875 226 1006 b 799 663 678 1006 799 875 l 799 324 b 453 -19 799 111 678 -19 m 453 40 b 735 325 636 40 735 147 l 735 661 b 453 946 735 839 636 946 b 171 661 269 946 171 839 l 171 325 b 453 40 171 147 269 40 "},"Õ":{"ha":904,"x_min":0,"x_max":0,"o":"m 271 1089 b 260 1101 263 1089 260 1093 b 356 1232 260 1185 297 1232 b 542 1132 446 1232 469 1132 b 600 1219 581 1132 600 1168 b 611 1232 600 1228 603 1232 l 629 1232 b 642 1219 639 1232 642 1228 b 544 1089 642 1138 608 1089 b 361 1189 457 1089 433 1189 b 301 1101 324 1189 301 1154 b 290 1089 301 1093 297 1089 l 271 1089 m 453 -19 b 106 324 226 -19 106 111 l 106 663 b 453 1006 106 875 226 1006 b 799 663 678 1006 799 875 l 799 324 b 453 -19 799 111 678 -19 m 453 40 b 735 325 636 40 735 147 l 735 661 b 453 946 735 839 636 946 b 171 661 269 946 171 839 l 171 325 b 453 40 171 147 269 40 "},"Ö":{"ha":904,"x_min":0,"x_max":0,"o":"m 326 1126 b 294 1157 303 1126 294 1133 l 294 1167 b 326 1199 294 1190 303 1199 l 335 1199 b 367 1167 360 1199 367 1190 l 367 1157 b 335 1126 367 1133 360 1126 l 326 1126 m 571 1126 b 538 1157 544 1126 538 1133 l 538 1167 b 571 1199 538 1190 544 1199 l 578 1199 b 611 1167 601 1199 611 1190 l 611 1157 b 578 1126 611 1133 601 1126 l 571 1126 m 453 -19 b 106 324 226 -19 106 111 l 106 663 b 453 1006 106 875 226 1006 b 799 663 678 1006 799 875 l 799 324 b 453 -19 799 111 678 -19 m 453 40 b 735 325 636 40 735 147 l 735 661 b 453 946 735 839 636 946 b 171 661 269 946 171 839 l 171 325 b 453 40 171 147 269 40 "},"×":{"ha":733,"x_min":0,"x_max":0,"o":"m 367 411 l 151 194 b 128 194 143 185 138 185 l 114 208 b 114 233 104 217 104 224 l 329 450 l 115 669 b 115 694 106 679 106 685 l 128 708 b 151 708 138 717 143 718 l 367 489 l 582 708 b 606 708 590 718 596 718 l 619 693 b 619 668 629 685 629 678 l 403 450 l 619 233 b 619 207 629 222 629 217 l 606 193 b 582 193 596 185 590 183 "},"Ø":{"ha":904,"x_min":0,"x_max":0,"o":"m 114 -60 b 110 -53 107 -60 107 -57 l 186 79 b 106 324 133 139 106 222 l 106 663 b 453 1006 106 875 226 1006 b 686 932 551 1006 629 981 l 746 1035 b 760 1040 750 1040 751 1040 l 796 1040 b 800 1033 800 1040 801 1038 l 722 901 b 799 663 772 842 799 761 l 799 324 b 453 -19 799 111 678 -19 b 224 49 357 -19 281 6 l 164 -53 b 149 -60 160 -60 160 -60 l 114 -60 m 654 878 b 453 946 607 922 540 946 b 171 661 269 946 171 839 l 171 331 b 228 149 171 256 189 194 m 453 40 b 735 325 636 40 735 147 l 735 661 b 683 833 735 732 717 790 l 256 104 b 453 40 301 63 369 40 "},"Ù":{"ha":932,"x_min":0,"x_max":0,"o":"m 346 1200 b 344 1219 336 1204 335 1210 l 358 1236 b 389 1236 368 1246 378 1243 l 579 1090 b 582 1069 588 1085 590 1079 l 574 1058 b 551 1058 568 1053 561 1053 m 465 -19 b 128 335 239 -19 128 119 l 128 969 b 144 986 128 982 132 986 l 175 986 b 192 969 188 986 192 982 l 192 335 b 465 40 192 156 281 40 b 739 335 651 40 739 156 l 739 969 b 756 986 739 982 743 986 l 788 986 b 804 969 800 986 804 982 l 804 335 b 465 -19 804 119 692 -19 "},"Ú":{"ha":932,"x_min":0,"x_max":0,"o":"m 379 1060 b 356 1060 368 1054 361 1054 l 347 1071 b 350 1092 340 1079 342 1086 l 542 1238 b 571 1236 551 1243 563 1246 l 586 1221 b 583 1200 594 1211 593 1206 l 379 1060 m 465 -19 b 128 335 239 -19 128 119 l 128 969 b 144 986 128 982 132 986 l 175 986 b 192 969 188 986 192 982 l 192 335 b 465 40 192 156 281 40 b 739 335 651 40 739 156 l 739 969 b 756 986 739 982 743 986 l 788 986 b 804 969 800 986 804 982 l 804 335 b 465 -19 804 119 692 -19 "},"Û":{"ha":932,"x_min":0,"x_max":0,"o":"m 278 1056 b 268 1068 263 1056 261 1061 l 429 1225 b 464 1240 444 1239 447 1240 l 469 1240 b 503 1225 483 1240 488 1240 l 663 1068 b 653 1056 669 1061 668 1056 l 628 1056 b 600 1065 614 1056 608 1056 l 465 1197 l 328 1065 b 303 1056 321 1057 317 1056 l 278 1056 m 465 -19 b 128 335 239 -19 128 119 l 128 969 b 144 986 128 982 132 986 l 175 986 b 192 969 188 986 192 982 l 192 335 b 465 40 192 156 281 40 b 739 335 651 40 739 156 l 739 969 b 756 986 739 982 743 986 l 788 986 b 804 969 800 986 804 982 l 804 335 b 465 -19 804 119 692 -19 "},"Ü":{"ha":932,"x_min":0,"x_max":0,"o":"m 339 1113 b 307 1143 315 1113 307 1119 l 307 1153 b 339 1185 307 1176 315 1185 l 347 1185 b 379 1153 372 1185 379 1176 l 379 1143 b 347 1113 379 1119 372 1113 l 339 1113 m 583 1113 b 550 1143 557 1113 550 1119 l 550 1153 b 583 1185 550 1176 557 1185 l 590 1185 b 624 1153 614 1185 624 1176 l 624 1143 b 590 1113 624 1119 614 1113 l 583 1113 m 465 -19 b 128 335 239 -19 128 119 l 128 969 b 144 986 128 982 132 986 l 175 986 b 192 969 188 986 192 982 l 192 335 b 465 40 192 156 281 40 b 739 335 651 40 739 156 l 739 969 b 756 986 739 982 743 986 l 788 986 b 804 969 800 986 804 982 l 804 335 b 465 -19 804 119 692 -19 "},"Ý":{"ha":847,"x_min":0,"x_max":0,"o":"m 339 1060 b 315 1060 328 1054 321 1054 l 307 1071 b 310 1092 300 1079 301 1086 l 501 1238 b 531 1236 511 1243 522 1246 l 546 1221 b 543 1200 554 1211 553 1206 l 339 1060 m 408 0 b 392 18 396 0 392 4 l 392 407 l 44 968 b 54 986 39 978 42 986 l 90 986 b 119 971 110 986 113 983 l 425 468 l 731 971 b 760 986 738 983 740 986 l 794 986 b 804 968 807 986 810 978 l 456 404 l 456 18 b 439 0 456 4 451 0 l 408 0 "},"Þ":{"ha":839,"x_min":0,"x_max":0,"o":"m 153 0 b 136 18 140 0 136 4 l 136 968 b 153 986 136 982 140 986 l 183 986 b 200 968 196 986 200 982 l 200 814 l 482 814 b 774 499 657 814 774 694 b 482 186 774 303 657 186 l 200 186 l 200 18 b 183 0 200 4 196 0 l 153 0 m 475 244 b 710 499 618 244 710 342 b 475 754 710 657 618 754 l 200 754 l 200 244 "},"ß":{"ha":749,"x_min":0,"x_max":0,"o":"m 136 0 b 121 18 125 0 121 4 l 121 749 b 378 1042 121 942 210 1042 b 633 765 551 1042 633 943 b 507 539 633 682 596 578 l 507 538 b 665 283 603 507 665 421 b 404 0 665 94 564 0 l 296 0 b 281 18 285 0 281 4 l 281 42 b 296 58 281 54 285 58 l 397 58 b 606 289 525 58 606 136 b 414 504 606 419 535 504 l 301 504 b 285 522 289 504 285 508 l 285 544 b 299 563 285 558 289 563 l 410 563 b 575 760 529 563 575 675 b 378 985 575 904 513 985 b 181 750 249 985 181 906 l 181 18 b 164 0 181 4 176 0 l 136 0 "},"à":{"ha":694,"x_min":0,"x_max":0,"o":"m 221 986 b 219 1006 211 992 211 997 l 233 1022 b 264 1024 243 1033 253 1031 l 454 876 b 457 856 463 872 465 865 l 449 846 b 426 846 443 839 436 839 m 344 -19 b 78 193 158 -19 78 47 b 349 401 78 336 163 401 b 529 386 431 401 507 389 l 529 475 b 344 678 529 618 472 678 b 150 560 246 678 186 632 b 128 553 144 550 139 547 l 110 561 b 101 585 99 565 94 571 b 344 732 143 675 221 732 b 588 472 517 732 588 644 l 588 96 b 543 17 588 47 578 33 b 344 -19 497 -6 435 -19 m 340 31 b 500 60 411 31 460 40 b 529 110 524 69 529 76 l 529 336 b 344 353 504 340 425 353 b 138 193 203 353 138 301 b 340 31 138 82 201 31 "},"á":{"ha":694,"x_min":0,"x_max":0,"o":"m 254 846 b 231 847 243 840 236 840 l 222 857 b 225 878 215 867 217 872 l 417 1024 b 446 1024 426 1032 438 1035 l 461 1008 b 458 988 469 999 468 993 l 254 846 m 344 -19 b 78 193 158 -19 78 47 b 349 401 78 336 163 401 b 529 386 431 401 507 389 l 529 475 b 344 678 529 618 472 678 b 150 560 246 678 186 632 b 128 553 144 550 139 547 l 110 561 b 101 585 99 565 94 571 b 344 732 143 675 221 732 b 588 472 517 732 588 644 l 588 96 b 543 17 588 47 578 33 b 344 -19 497 -6 435 -19 m 340 31 b 500 60 411 31 460 40 b 529 110 524 69 529 76 l 529 336 b 344 353 504 340 425 353 b 138 193 203 353 138 301 b 340 31 138 82 201 31 "},"â":{"ha":694,"x_min":0,"x_max":0,"o":"m 153 836 b 144 849 138 836 136 842 l 306 1006 b 340 1021 321 1019 324 1021 l 346 1021 b 378 1006 360 1021 364 1021 l 539 849 b 529 836 544 842 544 836 l 504 836 b 476 846 490 836 485 836 l 342 978 l 204 846 b 178 836 196 838 192 836 l 153 836 m 344 -19 b 78 193 158 -19 78 47 b 349 401 78 336 163 401 b 529 386 431 401 507 389 l 529 475 b 344 678 529 618 472 678 b 150 560 246 678 186 632 b 128 553 144 550 139 547 l 110 561 b 101 585 99 565 94 571 b 344 732 143 675 221 732 b 588 472 517 732 588 644 l 588 96 b 543 17 588 47 578 33 b 344 -19 497 -6 435 -19 m 340 31 b 500 60 411 31 460 40 b 529 110 524 69 529 76 l 529 336 b 344 353 504 340 425 353 b 138 193 203 353 138 301 b 340 31 138 82 201 31 "},"ã":{"ha":694,"x_min":0,"x_max":0,"o":"m 160 857 b 147 869 151 857 147 861 b 244 1000 147 953 185 1000 b 431 900 335 1000 358 900 b 489 988 468 900 489 936 b 500 1000 489 996 490 1000 l 518 1000 b 529 988 526 1000 529 996 b 433 857 529 906 497 857 b 249 957 346 857 322 957 b 189 869 213 957 189 922 b 178 857 189 861 186 857 l 160 857 m 344 -19 b 78 193 158 -19 78 47 b 349 401 78 336 163 401 b 529 386 431 401 507 389 l 529 475 b 344 678 529 618 472 678 b 150 560 246 678 186 632 b 128 553 144 550 139 547 l 110 561 b 101 585 99 565 94 571 b 344 732 143 675 221 732 b 588 472 517 732 588 644 l 588 96 b 543 17 588 47 578 33 b 344 -19 497 -6 435 -19 m 340 31 b 500 60 411 31 460 40 b 529 110 524 69 529 76 l 529 336 b 344 353 504 340 425 353 b 138 193 203 353 138 301 b 340 31 138 82 201 31 "},"ä":{"ha":694,"x_min":0,"x_max":0,"o":"m 215 894 b 179 929 189 894 179 901 l 179 938 b 215 972 179 964 188 972 l 221 972 b 257 938 249 972 257 964 l 257 929 b 221 894 257 903 249 894 l 215 894 m 467 894 b 431 929 442 894 431 901 l 431 938 b 467 972 431 964 440 972 l 474 972 b 510 938 500 972 510 964 l 510 929 b 474 894 510 903 500 894 l 467 894 m 344 -19 b 78 193 158 -19 78 47 b 349 401 78 336 163 401 b 529 386 431 401 507 389 l 529 475 b 344 678 529 618 472 678 b 150 560 246 678 186 632 b 128 553 144 550 139 547 l 110 561 b 101 585 99 565 94 571 b 344 732 143 675 221 732 b 588 472 517 732 588 644 l 588 96 b 543 17 588 47 578 33 b 344 -19 497 -6 435 -19 m 340 31 b 500 60 411 31 460 40 b 529 110 524 69 529 76 l 529 336 b 344 353 504 340 425 353 b 138 193 203 353 138 301 b 340 31 138 82 201 31 "},"å":{"ha":694,"x_min":0,"x_max":0,"o":"m 343 799 b 217 928 268 799 217 851 b 343 1057 217 1006 268 1057 b 465 928 417 1057 465 1006 b 343 799 465 851 417 799 m 343 833 b 431 928 394 833 431 871 b 343 1022 431 985 394 1022 b 251 928 289 1022 251 985 b 343 833 251 871 289 833 m 344 -19 b 78 193 158 -19 78 47 b 349 401 78 336 163 401 b 529 386 431 401 507 389 l 529 475 b 344 678 529 618 472 678 b 150 560 246 678 186 632 b 128 553 144 550 139 547 l 110 561 b 101 585 99 565 94 571 b 344 732 143 675 221 732 b 588 472 517 732 588 644 l 588 96 b 543 17 588 47 578 33 b 344 -19 497 -6 435 -19 m 340 31 b 500 60 411 31 460 40 b 529 110 524 69 529 76 l 529 336 b 344 353 504 340 425 353 b 138 193 203 353 138 301 b 340 31 138 82 201 31 "},"æ":{"ha":1063,"x_min":0,"x_max":0,"o":"m 328 -19 b 78 189 149 -19 78 40 b 333 400 78 340 151 400 b 493 383 400 400 468 389 l 493 469 b 328 678 493 583 472 678 b 149 563 242 678 186 636 b 128 556 143 553 140 550 l 108 563 b 100 586 97 567 93 572 b 329 732 146 678 215 732 b 525 588 454 732 504 671 b 735 732 556 681 622 732 b 979 447 914 732 979 617 l 979 374 b 949 343 979 354 969 343 l 550 343 l 550 247 b 731 32 550 115 600 32 b 921 165 842 32 879 85 b 944 172 928 176 933 178 l 961 163 b 967 138 972 156 974 149 b 731 -19 922 47 872 -19 b 542 79 633 -19 574 15 b 328 -19 513 31 461 -19 m 921 392 l 921 451 b 735 679 921 592 872 679 b 550 451 597 679 550 592 l 550 392 m 325 31 b 504 131 463 31 493 104 b 493 235 496 161 493 196 l 493 333 b 329 350 465 338 394 350 b 136 189 188 350 136 301 b 325 31 136 78 186 31 "},"ç":{"ha":701,"x_min":0,"x_max":0,"o":"m 351 -339 b 256 -310 308 -339 275 -322 b 243 -287 246 -304 243 -299 l 243 -269 b 254 -262 243 -262 247 -258 b 344 -300 274 -281 297 -300 b 451 -212 408 -300 451 -275 b 361 -144 451 -168 418 -144 b 318 -153 343 -144 331 -147 b 304 -135 307 -154 301 -147 l 340 -19 b 94 249 179 -12 94 88 l 94 464 b 364 732 94 631 183 732 b 622 542 518 732 589 660 b 613 518 626 528 622 522 l 589 510 b 568 521 576 507 571 510 b 363 678 539 628 483 678 b 154 465 224 678 154 596 l 154 249 b 361 35 154 117 226 35 b 569 196 478 35 535 86 b 589 207 574 208 578 211 l 615 199 b 625 176 626 196 631 189 b 381 -18 583 50 517 -12 l 354 -114 b 385 -110 363 -111 374 -110 b 501 -215 457 -110 503 -151 b 351 -339 499 -306 433 -339 "},"è":{"ha":717,"x_min":0,"x_max":0,"o":"m 244 988 b 243 1007 235 993 235 999 l 257 1024 b 288 1025 267 1035 276 1032 l 478 878 b 481 857 486 874 489 867 l 472 847 b 450 847 467 840 460 840 m 357 -19 b 92 254 176 -19 92 89 l 92 442 b 364 732 92 621 185 732 b 632 444 544 732 632 615 l 632 374 b 603 343 632 354 624 343 l 151 343 l 151 249 b 357 32 151 117 219 32 b 572 168 474 32 533 86 b 594 175 579 179 585 181 l 614 164 b 622 139 625 158 628 150 b 357 -19 578 49 500 -19 m 574 392 l 574 447 b 364 679 574 589 506 679 b 151 447 221 679 151 589 l 151 392 "},"é":{"ha":717,"x_min":0,"x_max":0,"o":"m 276 847 b 253 849 265 842 258 842 l 244 858 b 247 879 238 868 239 874 l 439 1025 b 468 1025 449 1033 460 1036 l 483 1010 b 481 989 492 1000 490 994 l 276 847 m 357 -19 b 92 254 176 -19 92 89 l 92 442 b 364 732 92 621 185 732 b 632 444 544 732 632 615 l 632 374 b 603 343 632 354 624 343 l 151 343 l 151 249 b 357 32 151 117 219 32 b 572 168 474 32 533 86 b 594 175 579 179 585 181 l 614 164 b 622 139 625 158 628 150 b 357 -19 578 49 500 -19 m 574 392 l 574 447 b 364 679 574 589 506 679 b 151 447 221 679 151 589 l 151 392 "},"ê":{"ha":717,"x_min":0,"x_max":0,"o":"m 175 838 b 167 850 160 838 158 843 l 328 1007 b 363 1022 343 1021 346 1022 l 368 1022 b 400 1007 382 1022 386 1022 l 561 850 b 551 838 567 843 567 838 l 526 838 b 499 847 513 838 507 838 l 364 979 l 226 847 b 200 838 218 839 214 838 l 175 838 m 357 -19 b 92 254 176 -19 92 89 l 92 442 b 364 732 92 621 185 732 b 632 444 544 732 632 615 l 632 374 b 603 343 632 354 624 343 l 151 343 l 151 249 b 357 32 151 117 219 32 b 572 168 474 32 533 86 b 594 175 579 179 585 181 l 614 164 b 622 139 625 158 628 150 b 357 -19 578 49 500 -19 m 574 392 l 574 447 b 364 679 574 589 506 679 b 151 447 221 679 151 589 l 151 392 "},"ë":{"ha":717,"x_min":0,"x_max":0,"o":"m 238 896 b 201 931 211 896 201 903 l 201 939 b 238 974 201 965 210 974 l 243 974 b 279 939 271 974 279 965 l 279 931 b 243 896 279 904 271 896 l 238 896 m 489 896 b 453 931 464 896 453 903 l 453 939 b 489 974 453 965 463 974 l 496 974 b 532 939 522 974 532 965 l 532 931 b 496 896 532 904 522 896 l 489 896 m 357 -19 b 92 254 176 -19 92 89 l 92 442 b 364 732 92 621 185 732 b 632 444 544 732 632 615 l 632 374 b 603 343 632 354 624 343 l 151 343 l 151 249 b 357 32 151 117 219 32 b 572 168 474 32 533 86 b 594 175 579 179 585 181 l 614 164 b 622 139 625 158 628 150 b 357 -19 578 49 500 -19 m 574 392 l 574 447 b 364 679 574 589 506 679 b 151 447 221 679 151 589 l 151 392 "},"ì":{"ha":300,"x_min":0,"x_max":0,"o":"m 31 986 b 29 1006 21 992 21 997 l 43 1022 b 74 1024 53 1033 63 1031 l 264 876 b 267 856 272 872 275 865 l 258 846 b 236 846 253 839 246 839 m 136 0 b 119 17 124 0 119 4 l 119 696 b 136 711 119 707 124 711 l 164 711 b 179 696 176 711 179 707 l 179 17 b 164 0 179 4 176 0 l 136 0 "},"í":{"ha":300,"x_min":0,"x_max":0,"o":"m 63 846 b 39 847 51 840 44 840 l 31 857 b 33 878 24 867 25 872 l 225 1024 b 254 1024 235 1032 246 1035 l 269 1008 b 267 988 278 999 276 993 l 63 846 m 136 0 b 119 17 124 0 119 4 l 119 696 b 136 711 119 707 124 711 l 164 711 b 179 696 176 711 179 707 l 179 17 b 164 0 179 4 176 0 l 136 0 "},"î":{"ha":300,"x_min":0,"x_max":0,"o":"m 7 835 b -1 847 -7 835 -7 840 l 114 992 b 146 1007 126 1008 131 1007 l 153 1007 b 185 992 167 1007 172 1008 l 299 847 b 289 835 304 840 304 835 l 268 835 b 240 843 253 835 246 835 l 149 965 l 57 843 b 31 835 50 833 43 835 l 7 835 m 136 0 b 119 17 124 0 119 4 l 119 696 b 136 711 119 707 124 711 l 164 711 b 179 696 176 711 179 707 l 179 17 b 164 0 179 4 176 0 l 136 0 "},"ï":{"ha":300,"x_min":0,"x_max":0,"o":"m 57 867 b 26 897 33 867 26 874 l 26 907 b 57 939 26 931 33 939 l 65 939 b 97 907 92 939 97 931 l 97 897 b 65 867 97 874 92 867 l 57 867 m 232 867 b 199 897 206 867 199 874 l 199 907 b 232 939 199 931 206 939 l 239 939 b 272 907 263 939 272 931 l 272 897 b 239 867 272 874 263 867 l 232 867 m 136 0 b 119 17 124 0 119 4 l 119 696 b 136 711 119 707 124 711 l 164 711 b 179 696 176 711 179 707 l 179 17 b 164 0 179 4 176 0 l 136 0 "},"ð":{"ha":749,"x_min":0,"x_max":0,"o":"m 368 -19 b 94 243 188 -19 94 79 l 94 444 b 360 708 94 608 188 708 b 583 582 474 708 550 658 b 483 890 581 725 551 828 l 382 785 b 367 783 376 778 374 778 l 354 794 b 353 811 347 801 347 804 l 451 914 b 208 974 396 954 319 974 b 192 990 196 974 192 978 l 192 1013 b 207 1029 192 1025 196 1029 b 490 958 332 1029 425 1006 l 564 1036 b 579 1038 571 1043 574 1043 l 593 1025 b 594 1008 600 1019 600 1015 l 522 935 b 640 561 607 858 640 733 l 640 243 b 368 -19 640 81 547 -19 m 368 36 b 581 243 507 36 581 114 l 581 443 b 368 653 581 575 507 653 b 154 443 226 653 154 574 l 154 243 b 368 36 154 114 226 36 "},"ñ":{"ha":747,"x_min":0,"x_max":0,"o":"m 189 858 b 176 871 181 858 176 863 b 274 1001 176 954 214 1001 b 460 901 364 1001 388 901 b 518 989 497 901 518 938 b 529 1001 518 997 519 1001 l 547 1001 b 558 989 556 1001 558 997 b 463 858 558 907 526 858 b 278 958 375 858 351 958 b 218 871 242 958 218 924 b 207 858 218 863 215 858 l 189 858 m 132 0 b 117 17 121 0 117 4 l 117 610 b 164 686 117 653 126 669 b 392 732 210 707 281 732 b 633 464 560 732 633 632 l 633 17 b 618 0 633 4 631 0 l 589 0 b 574 17 578 0 574 4 l 574 461 b 383 676 574 601 514 676 b 203 639 306 676 239 658 b 176 594 179 628 176 614 l 176 17 b 161 0 176 4 172 0 l 132 0 "},"ò":{"ha":735,"x_min":0,"x_max":0,"o":"m 247 986 b 246 1006 238 992 238 997 l 260 1022 b 290 1024 269 1033 279 1031 l 481 876 b 483 856 489 872 492 865 l 475 846 b 453 846 469 839 463 839 m 367 -19 b 97 224 203 -19 97 72 l 97 488 b 367 732 97 639 203 732 b 638 488 533 732 638 639 l 638 224 b 367 -19 638 72 533 -19 m 367 35 b 578 224 494 35 578 107 l 578 489 b 367 676 578 606 494 676 b 157 489 242 676 157 606 l 157 224 b 367 35 157 107 242 35 "},"ó":{"ha":735,"x_min":0,"x_max":0,"o":"m 279 846 b 256 847 268 840 261 840 l 247 857 b 250 878 240 867 242 872 l 442 1024 b 471 1024 451 1032 463 1035 l 486 1008 b 483 988 494 999 493 993 l 279 846 m 367 -19 b 97 224 203 -19 97 72 l 97 488 b 367 732 97 639 203 732 b 638 488 533 732 638 639 l 638 224 b 367 -19 638 72 533 -19 m 367 35 b 578 224 494 35 578 107 l 578 489 b 367 676 578 606 494 676 b 157 489 242 676 157 606 l 157 224 b 367 35 157 107 242 35 "},"ô":{"ha":735,"x_min":0,"x_max":0,"o":"m 178 836 b 169 849 163 836 161 842 l 331 1006 b 365 1021 346 1019 349 1021 l 371 1021 b 403 1006 385 1021 389 1021 l 564 849 b 554 836 569 842 569 836 l 529 836 b 501 846 515 836 510 836 l 367 978 l 229 846 b 203 836 221 838 217 836 l 178 836 m 367 -19 b 97 224 203 -19 97 72 l 97 488 b 367 732 97 639 203 732 b 638 488 533 732 638 639 l 638 224 b 367 -19 638 72 533 -19 m 367 35 b 578 224 494 35 578 107 l 578 489 b 367 676 578 606 494 676 b 157 489 242 676 157 606 l 157 224 b 367 35 157 107 242 35 "},"õ":{"ha":735,"x_min":0,"x_max":0,"o":"m 185 857 b 172 869 176 857 172 861 b 269 1000 172 953 210 1000 b 456 900 360 1000 383 900 b 514 988 493 900 514 936 b 525 1000 514 996 515 1000 l 543 1000 b 554 988 551 1000 554 996 b 458 857 554 906 522 857 b 274 957 371 857 347 957 b 214 869 238 957 214 922 b 203 857 214 861 211 857 l 185 857 m 367 -19 b 97 224 203 -19 97 72 l 97 488 b 367 732 97 639 203 732 b 638 488 533 732 638 639 l 638 224 b 367 -19 638 72 533 -19 m 367 35 b 578 224 494 35 578 107 l 578 489 b 367 676 578 606 494 676 b 157 489 242 676 157 606 l 157 224 b 367 35 157 107 242 35 "},"ö":{"ha":735,"x_min":0,"x_max":0,"o":"m 240 894 b 204 929 214 894 204 901 l 204 938 b 240 972 204 964 213 972 l 246 972 b 282 938 274 972 282 964 l 282 929 b 246 894 282 903 274 894 l 240 894 m 492 894 b 456 929 467 894 456 901 l 456 938 b 492 972 456 964 465 972 l 499 972 b 535 938 525 972 535 964 l 535 929 b 499 894 535 903 525 894 l 492 894 m 367 -19 b 97 224 203 -19 97 72 l 97 488 b 367 732 97 639 203 732 b 638 488 533 732 638 639 l 638 224 b 367 -19 638 72 533 -19 m 367 35 b 578 224 494 35 578 107 l 578 489 b 367 676 578 606 494 676 b 157 489 242 676 157 606 l 157 224 b 367 35 157 107 242 35 "},"÷":{"ha":851,"x_min":0,"x_max":0,"o":"m 422 689 b 383 726 393 689 383 696 l 383 735 b 422 772 383 763 393 772 l 429 772 b 467 735 458 772 467 763 l 467 726 b 429 689 467 697 458 689 l 422 689 m 122 421 b 106 439 110 421 106 426 l 106 463 b 122 479 106 475 110 479 l 728 479 b 746 463 742 479 746 475 l 746 439 b 728 421 746 426 742 421 l 122 421 m 422 132 b 383 169 393 132 383 140 l 383 178 b 422 215 383 207 393 215 l 429 215 b 467 178 458 215 467 207 l 467 169 b 429 132 467 142 458 132 l 422 132 "},"ø":{"ha":735,"x_min":0,"x_max":0,"o":"m 113 -51 b 110 -43 108 -51 108 -46 l 165 50 b 97 224 121 92 97 151 l 97 488 b 367 732 97 639 203 732 b 542 682 438 732 497 714 l 588 758 b 600 764 592 764 594 764 l 628 764 b 632 757 633 764 633 763 l 574 658 b 638 488 614 617 638 558 l 638 224 b 367 -19 638 72 533 -19 b 197 26 299 -19 240 -4 l 156 -44 b 140 -51 151 -50 150 -51 l 113 -51 m 513 632 b 367 676 476 661 426 676 b 157 489 242 676 157 606 l 157 231 b 201 113 157 183 174 143 m 367 35 b 578 224 494 35 578 107 l 578 478 b 536 594 578 525 563 565 l 226 76 b 367 35 261 50 311 35 "},"ù":{"ha":747,"x_min":0,"x_max":0,"o":"m 253 986 b 251 1006 243 992 243 997 l 265 1022 b 296 1024 275 1033 285 1031 l 486 876 b 489 856 494 872 497 865 l 481 846 b 458 846 475 839 468 839 m 356 -19 b 114 249 188 -19 114 81 l 114 696 b 129 711 114 707 117 711 l 158 711 b 174 696 169 711 174 707 l 174 251 b 364 36 174 110 231 36 b 544 71 446 36 507 53 b 571 119 568 83 571 97 l 571 696 b 586 711 571 707 575 711 l 615 711 b 631 696 626 711 631 707 l 631 101 b 583 25 631 58 621 42 b 356 -19 538 4 471 -19 "},"ú":{"ha":747,"x_min":0,"x_max":0,"o":"m 285 846 b 261 847 274 840 267 840 l 253 857 b 256 878 246 867 247 872 l 447 1024 b 476 1024 457 1032 468 1035 l 492 1008 b 489 988 500 999 499 993 l 285 846 m 356 -19 b 114 249 188 -19 114 81 l 114 696 b 129 711 114 707 117 711 l 158 711 b 174 696 169 711 174 707 l 174 251 b 364 36 174 110 231 36 b 544 71 446 36 507 53 b 571 119 568 83 571 97 l 571 696 b 586 711 571 707 575 711 l 615 711 b 631 696 626 711 631 707 l 631 101 b 583 25 631 58 621 42 b 356 -19 538 4 471 -19 "},"û":{"ha":747,"x_min":0,"x_max":0,"o":"m 183 836 b 175 849 168 836 167 842 l 336 1006 b 371 1021 351 1019 354 1021 l 376 1021 b 408 1006 390 1021 394 1021 l 569 849 b 560 836 575 842 575 836 l 535 836 b 507 846 521 836 515 836 l 372 978 l 235 846 b 208 836 226 838 222 836 l 183 836 m 356 -19 b 114 249 188 -19 114 81 l 114 696 b 129 711 114 707 117 711 l 158 711 b 174 696 169 711 174 707 l 174 251 b 364 36 174 110 231 36 b 544 71 446 36 507 53 b 571 119 568 83 571 97 l 571 696 b 586 711 571 707 575 711 l 615 711 b 631 696 626 711 631 707 l 631 101 b 583 25 631 58 621 42 b 356 -19 538 4 471 -19 "},"ü":{"ha":747,"x_min":0,"x_max":0,"o":"m 246 894 b 210 929 219 894 210 901 l 210 938 b 246 972 210 964 218 972 l 251 972 b 288 938 279 972 288 964 l 288 929 b 251 894 288 903 279 894 l 246 894 m 497 894 b 461 929 472 894 461 901 l 461 938 b 497 972 461 964 471 972 l 504 972 b 540 938 531 972 540 964 l 540 929 b 504 894 540 903 531 894 l 497 894 m 356 -19 b 114 249 188 -19 114 81 l 114 696 b 129 711 114 707 117 711 l 158 711 b 174 696 169 711 174 707 l 174 251 b 364 36 174 110 231 36 b 544 71 446 36 507 53 b 571 119 568 83 571 97 l 571 696 b 586 711 571 707 575 711 l 615 711 b 631 696 626 711 631 707 l 631 101 b 583 25 631 58 621 42 b 356 -19 538 4 471 -19 "},"ý":{"ha":751,"x_min":0,"x_max":0,"o":"m 283 846 b 260 847 272 840 265 840 l 251 857 b 254 878 244 867 246 872 l 446 1024 b 475 1024 456 1032 467 1035 l 490 1008 b 488 988 499 999 497 993 l 283 846 m 368 -351 b 126 -196 236 -351 168 -289 b 132 -169 119 -183 119 -175 l 151 -158 b 176 -167 165 -153 171 -156 b 368 -297 211 -243 264 -297 b 571 -56 513 -297 571 -206 l 571 36 b 356 -10 528 18 464 -10 b 114 258 188 -10 114 90 l 114 696 b 129 711 114 707 117 711 l 158 711 b 174 696 169 711 174 707 l 174 261 b 364 44 174 119 231 44 b 571 92 463 44 532 75 l 571 696 b 586 711 571 707 575 711 l 615 711 b 631 696 626 711 631 707 l 631 -51 b 368 -351 631 -233 557 -351 "},"þ":{"ha":733,"x_min":0,"x_max":0,"o":"m 135 -306 b 119 -289 124 -306 119 -301 l 119 1011 b 135 1028 119 1024 124 1028 l 164 1028 b 179 1011 176 1028 179 1024 l 179 681 b 378 732 207 696 281 732 b 638 454 556 732 638 632 l 638 250 b 392 -19 638 81 561 -19 b 179 40 292 -19 208 24 l 179 -289 b 164 -306 179 -301 176 -306 l 135 -306 m 388 35 b 578 251 521 35 578 113 l 578 453 b 372 676 578 600 513 676 b 179 624 276 676 206 639 l 179 97 b 388 35 206 79 290 35 "},"ÿ":{"ha":751,"x_min":0,"x_max":0,"o":"m 244 894 b 208 929 218 894 208 901 l 208 938 b 244 972 208 964 217 972 l 250 972 b 286 938 278 972 286 964 l 286 929 b 250 894 286 903 278 894 l 244 894 m 496 894 b 460 929 471 894 460 901 l 460 938 b 496 972 460 964 469 972 l 503 972 b 539 938 529 972 539 964 l 539 929 b 503 894 539 903 529 894 l 496 894 m 368 -351 b 126 -196 236 -351 168 -289 b 132 -169 119 -183 119 -175 l 151 -158 b 176 -167 165 -153 171 -156 b 368 -297 211 -243 264 -297 b 571 -56 513 -297 571 -206 l 571 36 b 356 -10 528 18 464 -10 b 114 258 188 -10 114 90 l 114 696 b 129 711 114 707 117 711 l 158 711 b 174 696 169 711 174 707 l 174 261 b 364 44 174 119 231 44 b 571 92 463 44 532 75 l 571 696 b 586 711 571 707 575 711 l 615 711 b 631 696 626 711 631 707 l 631 -51 b 368 -351 631 -233 557 -351 "},"Ā":{"ha":867,"x_min":0,"x_max":0,"o":"m 279 1119 b 264 1136 267 1119 264 1124 l 264 1150 b 279 1165 264 1163 268 1165 l 588 1165 b 603 1150 600 1165 603 1163 l 603 1136 b 588 1119 603 1124 600 1119 l 279 1119 m 51 0 b 39 17 36 0 35 7 l 394 976 b 418 993 399 989 404 993 l 449 993 b 471 976 461 993 467 989 l 826 17 b 814 0 831 7 829 0 l 786 0 b 757 15 767 0 761 3 l 646 322 l 219 322 l 107 15 b 78 0 103 3 96 0 l 51 0 m 625 378 l 447 868 b 433 926 440 889 435 911 l 429 926 b 418 868 428 911 424 889 l 239 378 "},"ā":{"ha":694,"x_min":0,"x_max":0,"o":"m 188 900 b 172 917 175 900 172 904 l 172 931 b 188 946 172 943 176 946 l 496 946 b 511 931 508 946 511 943 l 511 917 b 496 900 511 904 508 900 l 188 900 m 344 -19 b 78 193 158 -19 78 47 b 349 401 78 336 163 401 b 529 386 431 401 507 389 l 529 475 b 344 678 529 618 472 678 b 150 560 246 678 186 632 b 128 553 144 550 139 547 l 110 561 b 101 585 99 565 94 571 b 344 732 143 675 221 732 b 588 472 517 732 588 644 l 588 96 b 543 17 588 47 578 33 b 344 -19 497 -6 435 -19 m 340 31 b 500 60 411 31 460 40 b 529 110 524 69 529 76 l 529 336 b 344 353 504 340 425 353 b 138 193 203 353 138 301 b 340 31 138 82 201 31 "},"Ă":{"ha":867,"x_min":0,"x_max":0,"o":"m 433 1060 b 246 1214 335 1060 281 1111 b 254 1231 243 1224 246 1228 l 275 1238 b 292 1231 285 1240 289 1239 b 433 1107 319 1147 357 1107 b 574 1231 508 1107 544 1143 b 588 1238 578 1239 581 1239 l 613 1231 b 621 1214 621 1228 624 1224 b 433 1060 585 1111 533 1060 m 51 0 b 39 17 36 0 35 7 l 394 976 b 418 993 399 989 404 993 l 449 993 b 471 976 461 993 467 989 l 826 17 b 814 0 831 7 829 0 l 786 0 b 757 15 767 0 761 3 l 646 322 l 219 322 l 107 15 b 78 0 103 3 96 0 l 51 0 m 625 378 l 447 868 b 433 926 440 889 435 911 l 429 926 b 418 868 428 911 424 889 l 239 378 "},"ă":{"ha":694,"x_min":0,"x_max":0,"o":"m 340 842 b 154 997 242 842 182 892 b 163 1014 151 1007 154 1011 l 183 1021 b 200 1013 192 1022 197 1021 b 340 889 222 928 265 889 b 482 1013 417 889 460 928 b 497 1021 485 1021 489 1022 l 519 1014 b 528 997 529 1010 532 1007 b 340 842 500 892 440 842 m 344 -19 b 78 193 158 -19 78 47 b 349 401 78 336 163 401 b 529 386 431 401 507 389 l 529 475 b 344 678 529 618 472 678 b 150 560 246 678 186 632 b 128 553 144 550 139 547 l 110 561 b 101 585 99 565 94 571 b 344 732 143 675 221 732 b 588 472 517 732 588 644 l 588 96 b 543 17 588 47 578 33 b 344 -19 497 -6 435 -19 m 340 31 b 500 60 411 31 460 40 b 529 110 524 69 529 76 l 529 336 b 344 353 504 340 425 353 b 138 193 203 353 138 301 b 340 31 138 82 201 31 "},"Ą":{"ha":867,"x_min":0,"x_max":0,"o":"m 735 -343 b 643 -278 693 -343 657 -326 b 775 4 619 -207 679 -100 b 757 17 764 4 760 8 l 646 322 l 219 322 l 107 15 b 78 0 103 3 96 0 l 51 0 b 39 17 36 0 35 7 l 394 976 b 418 993 399 989 404 993 l 449 993 b 471 976 461 993 467 989 l 826 17 b 825 3 829 10 828 6 b 694 -254 731 -103 675 -199 b 750 -296 706 -285 726 -296 b 824 -256 776 -296 803 -281 b 835 -260 829 -253 833 -253 l 843 -281 b 842 -294 846 -287 846 -290 b 735 -343 810 -326 776 -343 m 625 378 l 447 868 b 433 926 440 889 435 911 l 429 926 b 418 868 428 911 424 889 l 239 378 "},"ą":{"ha":694,"x_min":0,"x_max":0,"o":"m 492 -343 b 399 -279 450 -343 414 -326 b 508 6 375 -208 426 -103 b 344 -19 465 -10 415 -19 b 78 193 160 -19 78 47 b 349 401 78 336 163 401 b 529 386 431 401 507 389 l 529 475 b 344 678 529 618 472 678 b 150 560 246 678 186 632 b 128 553 144 550 140 546 l 110 561 b 101 585 99 565 94 571 b 344 732 143 675 221 732 b 588 472 517 732 588 644 l 588 96 b 571 33 588 63 582 49 b 451 -254 489 -79 429 -194 b 507 -296 461 -285 482 -296 b 581 -256 533 -296 560 -281 b 592 -260 585 -253 589 -253 l 600 -281 b 597 -294 603 -287 601 -290 b 492 -343 567 -326 533 -343 m 340 31 b 500 60 411 31 460 40 b 529 110 524 69 529 76 l 529 336 b 344 353 506 340 425 353 b 138 193 199 353 138 300 b 340 31 138 85 197 31 "},"Ć":{"ha":868,"x_min":0,"x_max":0,"o":"m 367 1060 b 343 1060 356 1054 349 1054 l 335 1071 b 338 1092 328 1079 329 1086 l 529 1238 b 558 1236 539 1243 550 1246 l 574 1221 b 571 1200 582 1211 581 1206 l 367 1060 m 451 -19 b 106 324 229 -19 106 111 l 106 664 b 451 1006 106 875 225 1006 b 789 764 651 1006 746 922 b 779 742 794 750 790 744 l 751 733 b 729 743 739 729 733 731 b 453 946 692 881 617 946 b 171 665 265 946 171 839 l 171 322 b 451 42 171 149 267 42 b 731 249 619 42 692 115 b 753 261 735 263 740 265 l 782 251 b 793 228 793 247 797 242 b 451 -19 744 71 656 -19 "},"ć":{"ha":701,"x_min":0,"x_max":0,"o":"m 275 846 b 251 847 264 840 257 840 l 243 857 b 246 878 236 867 238 872 l 438 1024 b 467 1024 447 1032 458 1035 l 482 1008 b 479 988 490 999 489 993 l 275 846 m 360 -19 b 94 249 185 -19 94 81 l 94 464 b 364 732 94 631 183 732 b 622 542 518 732 589 660 b 613 518 626 528 622 522 l 589 510 b 568 521 576 507 571 510 b 363 678 539 628 483 678 b 154 465 224 678 154 596 l 154 249 b 361 35 154 117 226 35 b 569 196 478 35 535 86 b 589 207 574 208 578 211 l 615 199 b 625 176 626 196 631 189 b 360 -19 581 44 510 -19 "},"Ĉ":{"ha":868,"x_min":0,"x_max":0,"o":"m 265 1056 b 256 1068 250 1056 249 1061 l 417 1225 b 451 1240 432 1239 435 1240 l 457 1240 b 490 1225 471 1240 475 1240 l 650 1068 b 640 1056 657 1061 656 1056 l 615 1056 b 588 1065 601 1056 596 1056 l 453 1197 l 315 1065 b 290 1056 308 1057 304 1056 l 265 1056 m 451 -19 b 106 324 229 -19 106 111 l 106 664 b 451 1006 106 875 225 1006 b 789 764 651 1006 746 922 b 779 742 794 750 790 744 l 751 733 b 729 743 739 729 733 731 b 453 946 692 881 617 946 b 171 665 265 946 171 839 l 171 322 b 451 42 171 149 267 42 b 731 249 619 42 692 115 b 753 261 735 263 740 265 l 782 251 b 793 228 793 247 797 242 b 451 -19 744 71 656 -19 "},"ĉ":{"ha":701,"x_min":0,"x_max":0,"o":"m 175 836 b 167 849 160 836 158 842 l 328 1006 b 363 1021 343 1019 346 1021 l 368 1021 b 400 1006 382 1021 386 1021 l 561 849 b 551 836 567 842 567 836 l 526 836 b 499 846 513 836 507 836 l 364 978 l 226 846 b 200 836 218 838 214 836 l 175 836 m 360 -19 b 94 249 185 -19 94 81 l 94 464 b 364 732 94 631 183 732 b 622 542 518 732 589 660 b 613 518 626 528 622 522 l 589 510 b 568 521 576 507 571 510 b 363 678 539 628 483 678 b 154 465 224 678 154 596 l 154 249 b 361 35 154 117 226 35 b 569 196 478 35 535 86 b 589 207 574 208 578 211 l 615 199 b 625 176 626 196 631 189 b 360 -19 581 44 510 -19 "},"Ċ":{"ha":868,"x_min":0,"x_max":0,"o":"m 450 1106 b 418 1139 425 1106 418 1113 l 418 1146 b 450 1179 418 1172 425 1179 l 457 1179 b 490 1146 482 1179 490 1172 l 490 1139 b 457 1106 490 1114 482 1106 l 450 1106 m 451 -19 b 106 324 229 -19 106 111 l 106 664 b 451 1006 106 875 225 1006 b 789 764 651 1006 746 922 b 779 742 794 750 790 744 l 751 733 b 729 743 739 729 733 731 b 453 946 692 881 617 946 b 171 665 265 946 171 839 l 171 322 b 451 42 171 149 267 42 b 731 249 619 42 692 115 b 753 261 735 263 740 265 l 782 251 b 793 228 793 247 797 242 b 451 -19 744 71 656 -19 "},"ċ":{"ha":701,"x_min":0,"x_max":0,"o":"m 354 893 b 324 928 331 893 324 900 l 324 939 b 354 974 324 964 332 974 l 374 974 b 406 939 397 974 406 964 l 406 928 b 374 893 406 901 397 893 l 354 893 m 360 -19 b 94 249 185 -19 94 81 l 94 464 b 364 732 94 631 183 732 b 622 542 518 732 589 660 b 613 518 626 528 622 522 l 589 510 b 568 521 576 507 571 510 b 363 678 539 628 483 678 b 154 465 224 678 154 596 l 154 249 b 361 35 154 117 226 35 b 569 196 478 35 535 86 b 589 207 574 208 578 211 l 615 199 b 625 176 626 196 631 189 b 360 -19 581 44 510 -19 "},"Č":{"ha":868,"x_min":0,"x_max":0,"o":"m 451 1054 b 417 1069 435 1054 431 1056 l 257 1226 b 265 1239 250 1233 250 1239 l 290 1239 b 317 1229 304 1239 307 1239 l 451 1097 l 589 1229 b 615 1239 596 1238 601 1239 l 642 1239 b 650 1226 657 1239 657 1233 l 489 1069 b 457 1054 472 1054 471 1054 l 451 1054 m 451 -19 b 106 324 229 -19 106 111 l 106 664 b 451 1006 106 875 225 1006 b 789 764 651 1006 746 922 b 779 742 794 750 790 744 l 751 733 b 729 743 739 729 733 731 b 453 946 692 881 617 946 b 171 665 265 946 171 839 l 171 322 b 451 42 171 149 267 42 b 731 249 619 42 692 115 b 753 261 735 263 740 265 l 782 251 b 793 228 793 247 797 242 b 451 -19 744 71 656 -19 "},"č":{"ha":701,"x_min":0,"x_max":0,"o":"m 361 835 b 326 850 344 835 340 836 l 167 1007 b 175 1019 160 1014 160 1019 l 200 1019 b 226 1010 214 1019 217 1019 l 361 878 l 499 1010 b 526 1019 507 1018 513 1019 l 553 1019 b 560 1007 568 1019 568 1014 l 399 850 b 367 835 382 835 381 835 l 361 835 m 360 -19 b 94 249 185 -19 94 81 l 94 464 b 364 732 94 631 183 732 b 622 542 518 732 589 660 b 613 518 626 528 622 522 l 589 510 b 568 521 576 507 571 510 b 363 678 539 628 483 678 b 154 465 224 678 154 596 l 154 249 b 361 35 154 117 226 35 b 569 196 478 35 535 86 b 589 207 574 208 578 211 l 615 199 b 625 176 626 196 631 189 b 360 -19 581 44 510 -19 "},"Ď":{"ha":885,"x_min":0,"x_max":0,"o":"m 424 1054 b 389 1069 407 1054 403 1056 l 229 1226 b 238 1239 222 1233 222 1239 l 263 1239 b 289 1229 276 1239 279 1239 l 424 1097 l 561 1229 b 588 1239 568 1238 574 1239 l 614 1239 b 622 1226 629 1239 629 1233 l 461 1069 b 429 1054 444 1054 443 1054 l 424 1054 m 153 0 b 136 18 140 0 136 4 l 136 968 b 153 986 136 982 140 986 l 414 986 b 785 619 653 986 785 846 l 785 367 b 414 0 785 140 653 0 l 153 0 m 415 60 b 721 367 613 60 721 174 l 721 619 b 415 926 721 813 614 926 l 200 926 l 200 60 "},"ď":{"ha":832,"x_min":0,"x_max":0,"o":"m 364 -19 b 96 261 182 -19 96 78 l 96 464 b 351 732 96 638 183 732 b 557 679 453 732 528 694 l 557 1011 b 572 1028 557 1024 561 1028 l 601 1028 b 617 1011 614 1028 617 1024 l 617 97 b 568 21 617 51 608 39 b 364 -19 524 0 453 -19 m 760 707 b 749 721 749 707 746 710 l 810 1011 b 829 1028 813 1025 815 1028 l 853 1028 b 867 1011 865 1028 871 1022 l 794 722 b 776 707 790 711 788 707 l 760 707 m 365 36 b 526 68 433 36 493 51 b 557 114 554 81 557 86 l 557 622 b 357 675 531 638 456 675 b 156 463 225 675 156 603 l 156 263 b 365 36 154 111 222 36 "},"Đ":{"ha":882,"x_min":0,"x_max":0,"o":"m 149 0 b 132 18 136 0 132 4 l 132 471 l 38 471 b 24 483 28 471 24 474 l 24 506 b 38 519 24 517 28 519 l 132 519 l 132 968 b 149 986 132 982 136 986 l 411 986 b 782 619 650 986 782 846 l 782 367 b 411 0 782 140 650 0 l 149 0 m 413 60 b 717 367 610 60 717 174 l 717 619 b 413 926 717 813 610 926 l 197 926 l 197 519 l 424 519 b 436 506 433 519 436 517 l 436 483 b 424 471 436 474 433 471 l 197 471 l 197 60 "},"đ":{"ha":729,"x_min":0,"x_max":0,"o":"m 364 -19 b 96 261 182 -19 96 78 l 96 464 b 351 732 96 638 183 732 b 557 679 453 732 528 694 l 557 858 l 357 858 b 344 872 347 858 344 861 l 344 885 b 357 899 344 896 347 899 l 557 899 l 557 1011 b 572 1028 557 1024 561 1028 l 601 1028 b 617 1011 614 1028 617 1024 l 617 899 l 711 899 b 724 885 721 899 724 896 l 724 872 b 711 858 724 861 721 858 l 617 858 l 617 97 b 568 21 617 51 608 39 b 364 -19 524 0 453 -19 m 365 36 b 526 68 433 36 493 51 b 557 114 554 81 557 86 l 557 622 b 357 675 531 638 456 675 b 156 463 225 675 156 603 l 156 263 b 365 36 154 111 222 36 "},"Ē":{"ha":779,"x_min":0,"x_max":0,"o":"m 257 1119 b 242 1136 244 1119 242 1124 l 242 1150 b 257 1165 242 1163 246 1165 l 565 1165 b 581 1150 578 1165 581 1163 l 581 1136 b 565 1119 581 1124 578 1119 l 257 1119 m 153 0 b 136 18 140 0 136 4 l 136 968 b 153 986 136 982 140 986 l 668 986 b 685 968 681 986 685 982 l 685 943 b 668 926 685 931 681 926 l 200 926 l 200 531 l 613 531 b 629 513 625 531 629 525 l 629 488 b 613 469 629 474 625 469 l 200 469 l 200 60 l 685 60 b 701 43 697 60 701 56 l 701 18 b 685 0 701 4 697 0 l 153 0 "},"ē":{"ha":717,"x_min":0,"x_max":0,"o":"m 210 901 b 194 918 197 901 194 906 l 194 932 b 210 947 194 944 199 947 l 518 947 b 533 932 531 947 533 944 l 533 918 b 518 901 533 906 531 901 l 210 901 m 357 -19 b 92 254 176 -19 92 89 l 92 442 b 364 732 92 621 185 732 b 632 444 544 732 632 615 l 632 374 b 603 343 632 354 624 343 l 151 343 l 151 249 b 357 32 151 117 219 32 b 572 168 474 32 533 86 b 594 175 579 179 585 181 l 614 164 b 622 139 625 158 628 150 b 357 -19 578 49 500 -19 m 574 392 l 574 447 b 364 679 574 589 506 679 b 151 447 221 679 151 589 l 151 392 "},"Ĕ":{"ha":779,"x_min":0,"x_max":0,"o":"m 411 1060 b 224 1214 313 1060 258 1111 b 232 1231 221 1224 224 1228 l 253 1238 b 269 1231 263 1240 267 1239 b 411 1107 297 1147 335 1107 b 551 1231 486 1107 522 1143 b 565 1238 556 1239 558 1239 l 590 1231 b 599 1214 599 1228 601 1224 b 411 1060 563 1111 511 1060 m 153 0 b 136 18 140 0 136 4 l 136 968 b 153 986 136 982 140 986 l 668 986 b 685 968 681 986 685 982 l 685 943 b 668 926 685 931 681 926 l 200 926 l 200 531 l 613 531 b 629 513 625 531 629 525 l 629 488 b 613 469 629 474 625 469 l 200 469 l 200 60 l 685 60 b 701 43 697 60 701 56 l 701 18 b 685 0 701 4 697 0 l 153 0 "},"ĕ":{"ha":717,"x_min":0,"x_max":0,"o":"m 363 843 b 176 999 264 843 204 893 b 185 1015 174 1008 176 1013 l 206 1022 b 222 1014 214 1024 219 1022 b 363 890 244 929 288 890 b 504 1014 439 890 482 929 b 519 1022 507 1022 511 1024 l 542 1015 b 550 999 551 1011 554 1008 b 363 843 522 893 463 843 m 357 -19 b 92 254 176 -19 92 89 l 92 442 b 364 732 92 621 185 732 b 632 444 544 732 632 615 l 632 374 b 603 343 632 354 624 343 l 151 343 l 151 249 b 357 32 151 117 219 32 b 572 168 474 32 533 86 b 594 175 579 179 585 181 l 614 164 b 622 139 625 158 628 150 b 357 -19 578 49 500 -19 m 574 392 l 574 447 b 364 679 574 589 506 679 b 151 447 221 679 151 589 l 151 392 "},"Ė":{"ha":779,"x_min":0,"x_max":0,"o":"m 407 1106 b 375 1139 382 1106 375 1113 l 375 1146 b 407 1179 375 1172 382 1179 l 414 1179 b 447 1146 439 1179 447 1172 l 447 1139 b 414 1106 447 1114 439 1106 l 407 1106 m 153 0 b 136 18 140 0 136 4 l 136 968 b 153 986 136 982 140 986 l 668 986 b 685 968 681 986 685 982 l 685 943 b 668 926 685 931 681 926 l 200 926 l 200 531 l 613 531 b 629 513 625 531 629 525 l 629 488 b 613 469 629 474 625 469 l 200 469 l 200 60 l 685 60 b 701 43 697 60 701 56 l 701 18 b 685 0 701 4 697 0 l 153 0 "},"ė":{"ha":717,"x_min":0,"x_max":0,"o":"m 354 894 b 324 929 331 894 324 901 l 324 940 b 354 975 324 965 332 975 l 374 975 b 406 940 397 975 406 965 l 406 929 b 374 894 406 903 397 894 l 354 894 m 357 -19 b 92 254 176 -19 92 89 l 92 442 b 364 732 92 621 185 732 b 632 444 544 732 632 615 l 632 374 b 603 343 632 354 624 343 l 151 343 l 151 249 b 357 32 151 117 219 32 b 572 168 474 32 533 86 b 594 175 579 179 585 181 l 614 164 b 622 139 625 158 628 150 b 357 -19 578 49 500 -19 m 574 392 l 574 447 b 364 679 574 589 506 679 b 151 447 221 679 151 589 l 151 392 "},"Ę":{"ha":779,"x_min":0,"x_max":0,"o":"m 606 -343 b 513 -278 564 -343 528 -326 b 646 0 490 -206 547 -107 l 153 0 b 136 18 140 0 136 4 l 136 968 b 153 986 136 982 140 986 l 668 986 b 685 968 681 986 685 982 l 685 943 b 668 926 685 931 681 926 l 200 926 l 200 531 l 613 531 b 629 513 625 531 629 525 l 629 488 b 613 469 629 474 625 469 l 200 469 l 200 60 l 685 60 b 701 43 697 60 701 56 l 701 18 b 697 3 701 10 701 7 b 565 -254 599 -99 546 -199 b 621 -296 575 -285 596 -296 b 694 -256 646 -296 672 -281 b 706 -260 699 -253 703 -253 l 714 -281 b 711 -294 717 -287 715 -290 b 606 -343 679 -326 646 -343 "},"ę":{"ha":717,"x_min":0,"x_max":0,"o":"m 479 -343 b 382 -278 438 -343 396 -326 b 488 7 360 -212 408 -92 b 357 -19 451 -10 408 -19 b 92 254 176 -19 92 89 l 92 442 b 364 732 92 621 185 732 b 632 444 544 732 632 615 l 632 374 b 603 343 632 354 624 343 l 151 343 l 151 249 b 357 32 151 117 219 32 b 572 168 474 32 533 86 b 594 175 579 179 585 181 l 614 164 b 622 139 625 158 628 150 b 571 63 608 111 593 86 b 435 -254 476 -50 413 -196 b 494 -296 444 -285 469 -296 b 568 -256 519 -296 546 -281 b 579 -260 572 -253 576 -253 l 588 -281 b 585 -294 590 -287 589 -290 b 479 -343 553 -326 519 -343 m 574 392 l 574 447 b 364 679 574 589 506 679 b 151 447 221 679 151 589 l 151 392 "},"Ě":{"ha":779,"x_min":0,"x_max":0,"o":"m 410 1054 b 375 1069 393 1054 389 1056 l 215 1226 b 224 1239 208 1233 208 1239 l 249 1239 b 275 1229 263 1239 265 1239 l 410 1097 l 547 1229 b 574 1239 554 1238 560 1239 l 600 1239 b 608 1226 615 1239 615 1233 l 447 1069 b 415 1054 431 1054 429 1054 l 410 1054 m 153 0 b 136 18 140 0 136 4 l 136 968 b 153 986 136 982 140 986 l 668 986 b 685 968 681 986 685 982 l 685 943 b 668 926 685 931 681 926 l 200 926 l 200 531 l 613 531 b 629 513 625 531 629 525 l 629 488 b 613 469 629 474 625 469 l 200 469 l 200 60 l 685 60 b 701 43 697 60 701 56 l 701 18 b 685 0 701 4 697 0 l 153 0 "},"ě":{"ha":717,"x_min":0,"x_max":0,"o":"m 361 836 b 326 851 344 836 340 838 l 167 1008 b 175 1021 160 1015 160 1021 l 200 1021 b 226 1011 214 1021 217 1021 l 361 879 l 499 1011 b 526 1021 507 1019 513 1021 l 553 1021 b 560 1008 568 1021 568 1015 l 399 851 b 367 836 382 836 381 836 l 361 836 m 357 -19 b 92 254 176 -19 92 89 l 92 442 b 364 732 92 621 185 732 b 632 444 544 732 632 615 l 632 374 b 603 343 632 354 624 343 l 151 343 l 151 249 b 357 32 151 117 219 32 b 572 168 474 32 533 86 b 594 175 579 179 585 181 l 614 164 b 622 139 625 158 628 150 b 357 -19 578 49 500 -19 m 574 392 l 574 447 b 364 679 574 589 506 679 b 151 447 221 679 151 589 l 151 392 "},"Ĝ":{"ha":892,"x_min":0,"x_max":0,"o":"m 264 1069 b 254 1082 249 1069 247 1075 l 415 1239 b 450 1254 431 1253 433 1254 l 456 1254 b 489 1239 469 1254 474 1254 l 649 1082 b 639 1069 656 1075 654 1069 l 614 1069 b 586 1079 600 1069 594 1069 l 451 1211 l 314 1079 b 289 1069 307 1071 303 1069 l 264 1069 m 453 -19 b 106 325 226 -19 106 113 l 106 664 b 453 1006 106 875 225 1006 b 789 764 650 1006 746 922 b 778 740 793 750 789 744 l 750 732 b 728 743 738 728 732 731 b 453 946 690 881 615 946 b 171 665 263 946 171 839 l 171 325 b 453 40 171 147 267 40 b 736 314 638 40 736 143 l 736 439 l 464 439 b 447 456 451 439 447 443 l 447 481 b 464 499 447 494 451 499 l 781 499 b 799 479 794 499 799 494 l 799 315 b 453 -19 799 113 676 -19 "},"ĝ":{"ha":731,"x_min":0,"x_max":0,"o":"m 185 836 b 176 849 169 836 168 842 l 338 1006 b 372 1021 353 1019 356 1021 l 378 1021 b 410 1006 392 1021 396 1021 l 571 849 b 561 836 576 842 576 836 l 536 836 b 508 846 522 836 517 836 l 374 978 l 236 846 b 210 836 228 838 224 836 l 185 836 m 354 -351 b 113 -194 222 -351 154 -285 b 117 -169 104 -182 107 -175 l 139 -158 b 164 -165 151 -151 157 -156 b 354 -296 199 -243 249 -296 b 554 -56 499 -296 554 -206 l 554 38 b 338 -10 508 14 440 -10 b 96 256 169 -10 96 88 l 96 451 b 361 732 96 633 179 732 b 565 692 451 732 521 713 b 614 614 606 674 614 658 l 614 -54 b 354 -351 614 -235 543 -351 m 344 44 b 554 93 451 44 513 69 l 554 599 b 524 644 554 626 551 632 b 363 676 492 660 435 676 b 156 450 219 676 156 603 l 156 258 b 344 44 156 119 211 44 "},"Ğ":{"ha":892,"x_min":0,"x_max":0,"o":"m 453 1074 b 265 1228 354 1074 300 1125 b 274 1244 263 1238 265 1242 l 294 1251 b 311 1244 304 1254 308 1253 b 453 1121 339 1161 376 1121 b 593 1244 528 1121 564 1157 b 607 1251 597 1253 600 1253 l 632 1244 b 640 1228 640 1242 643 1238 b 453 1074 604 1125 553 1074 m 453 -19 b 106 325 226 -19 106 113 l 106 664 b 453 1006 106 875 225 1006 b 789 764 650 1006 746 922 b 778 740 793 750 789 744 l 750 732 b 728 743 738 728 732 731 b 453 946 690 881 615 946 b 171 665 263 946 171 839 l 171 325 b 453 40 171 147 267 40 b 736 314 638 40 736 143 l 736 439 l 464 439 b 447 456 451 439 447 443 l 447 481 b 464 499 447 494 451 499 l 781 499 b 799 479 794 499 799 494 l 799 315 b 453 -19 799 113 676 -19 "},"ğ":{"ha":731,"x_min":0,"x_max":0,"o":"m 372 842 b 186 997 274 842 214 892 b 194 1014 183 1007 186 1011 l 215 1021 b 232 1013 224 1022 229 1021 b 372 889 254 928 297 889 b 514 1013 449 889 492 928 b 529 1021 517 1021 521 1022 l 551 1014 b 560 997 561 1010 564 1007 b 372 842 532 892 472 842 m 354 -351 b 113 -194 222 -351 154 -285 b 117 -169 104 -182 107 -175 l 139 -158 b 164 -165 151 -151 157 -156 b 354 -296 199 -243 249 -296 b 554 -56 499 -296 554 -206 l 554 38 b 338 -10 508 14 440 -10 b 96 256 169 -10 96 88 l 96 451 b 361 732 96 633 179 732 b 565 692 451 732 521 713 b 614 614 606 674 614 658 l 614 -54 b 354 -351 614 -235 543 -351 m 344 44 b 554 93 451 44 513 69 l 554 599 b 524 644 554 626 551 632 b 363 676 492 660 435 676 b 156 450 219 676 156 603 l 156 258 b 344 44 156 119 211 44 "},"Ġ":{"ha":892,"x_min":0,"x_max":0,"o":"m 449 1119 b 417 1153 424 1119 417 1126 l 417 1160 b 449 1193 417 1186 424 1193 l 456 1193 b 489 1160 481 1193 489 1186 l 489 1153 b 456 1119 489 1128 481 1119 l 449 1119 m 453 -19 b 106 325 226 -19 106 113 l 106 664 b 453 1006 106 875 225 1006 b 789 764 650 1006 746 922 b 778 740 793 750 789 744 l 750 732 b 728 743 738 728 732 731 b 453 946 690 881 615 946 b 171 665 263 946 171 839 l 171 325 b 453 40 171 147 267 40 b 736 314 638 40 736 143 l 736 439 l 464 439 b 447 456 451 439 447 443 l 447 481 b 464 499 447 494 451 499 l 781 499 b 799 479 794 499 799 494 l 799 315 b 453 -19 799 113 676 -19 "},"ġ":{"ha":731,"x_min":0,"x_max":0,"o":"m 364 893 b 333 928 340 893 333 900 l 333 939 b 364 974 333 964 342 974 l 383 974 b 415 939 407 974 415 964 l 415 928 b 383 893 415 901 407 893 l 364 893 m 354 -351 b 113 -194 222 -351 154 -285 b 117 -169 104 -182 107 -175 l 139 -158 b 164 -165 151 -151 157 -156 b 354 -296 199 -243 249 -296 b 554 -56 499 -296 554 -206 l 554 38 b 338 -10 508 14 440 -10 b 96 256 169 -10 96 88 l 96 451 b 361 732 96 633 179 732 b 565 692 451 732 521 713 b 614 614 606 674 614 658 l 614 -54 b 354 -351 614 -235 543 -351 m 344 44 b 554 93 451 44 513 69 l 554 599 b 524 644 554 626 551 632 b 363 676 492 660 435 676 b 156 450 219 676 156 603 l 156 258 b 344 44 156 119 211 44 "},"Ģ":{"ha":892,"x_min":0,"x_max":0,"o":"m 453 -19 b 106 325 226 -19 106 113 l 106 664 b 453 1006 106 875 225 1006 b 789 764 650 1006 746 922 b 778 740 793 750 789 744 l 750 732 b 728 743 738 728 732 731 b 453 946 690 881 615 946 b 171 665 263 946 171 839 l 171 325 b 453 40 171 147 267 40 b 736 314 638 40 736 143 l 736 439 l 464 439 b 447 456 451 439 447 443 l 447 481 b 464 499 447 494 451 499 l 781 499 b 799 479 794 499 799 494 l 799 315 b 453 -19 799 113 676 -19 m 386 -342 b 374 -328 375 -342 372 -337 l 429 -125 b 450 -108 431 -111 436 -108 l 475 -108 b 490 -126 490 -108 494 -114 l 425 -325 b 404 -342 421 -337 417 -342 l 386 -342 "},"ģ":{"ha":731,"x_min":0,"x_max":0,"o":"m 353 815 b 339 833 338 815 333 821 l 413 1007 b 433 1022 417 1019 419 1022 l 449 1022 b 461 1008 461 1022 464 1019 l 397 833 b 375 815 394 818 390 815 l 353 815 m 354 -351 b 113 -194 222 -351 154 -285 b 117 -169 104 -182 107 -175 l 139 -158 b 164 -165 151 -151 157 -156 b 354 -296 199 -243 249 -296 b 554 -56 499 -296 554 -206 l 554 38 b 338 -10 508 14 440 -10 b 96 256 169 -10 96 88 l 96 451 b 361 732 96 633 179 732 b 565 692 451 732 521 713 b 614 614 606 674 614 658 l 614 -54 b 354 -351 614 -235 543 -351 m 344 44 b 554 93 451 44 513 69 l 554 599 b 524 644 554 626 551 632 b 363 676 492 660 435 676 b 156 450 219 676 156 603 l 156 258 b 344 44 156 119 211 44 "},"Ĥ":{"ha":931,"x_min":0,"x_max":0,"o":"m 278 1056 b 268 1068 263 1056 261 1061 l 429 1225 b 464 1240 444 1239 447 1240 l 469 1240 b 503 1225 483 1240 488 1240 l 663 1068 b 653 1056 669 1061 668 1056 l 628 1056 b 600 1065 614 1056 608 1056 l 465 1197 l 328 1065 b 303 1056 321 1057 317 1056 l 278 1056 m 153 0 b 136 18 140 0 136 4 l 136 968 b 153 986 136 982 140 986 l 183 986 b 200 968 196 986 200 982 l 200 531 l 731 531 l 731 968 b 747 986 731 982 735 986 l 779 986 b 796 968 792 986 796 982 l 796 18 b 779 0 796 4 792 0 l 747 0 b 731 18 735 0 731 4 l 731 469 l 200 469 l 200 18 b 183 0 200 4 196 0 l 153 0 "},"ĥ":{"ha":751,"x_min":0,"x_max":0,"o":"m -35 1075 b -44 1088 -50 1075 -51 1081 l 117 1244 b 151 1260 132 1258 135 1260 l 157 1260 b 190 1244 171 1260 175 1260 l 350 1088 b 340 1075 357 1081 356 1075 l 315 1075 b 288 1085 301 1075 296 1075 l 153 1217 l 15 1085 b -10 1075 8 1076 4 1075 l -35 1075 m 136 0 b 121 17 124 0 121 4 l 121 1011 b 136 1028 121 1024 124 1028 l 165 1028 b 181 1011 176 1028 181 1024 l 181 683 b 394 732 231 710 304 732 b 638 465 564 732 638 635 l 638 17 b 622 0 638 4 633 0 l 593 0 b 578 17 582 0 578 4 l 578 461 b 388 676 578 603 521 676 b 181 626 304 676 233 657 l 181 17 b 165 0 181 4 176 0 l 136 0 "},"Ħ":{"ha":933,"x_min":0,"x_max":0,"o":"m 153 0 b 136 18 140 0 136 4 l 136 768 l 47 768 b 35 782 38 768 35 771 l 35 797 b 47 811 35 807 39 811 l 136 811 l 136 968 b 153 986 136 982 140 986 l 185 986 b 201 968 197 986 201 982 l 201 811 l 732 811 l 732 968 b 749 986 732 982 736 986 l 779 986 b 796 968 792 986 796 982 l 796 811 l 888 811 b 900 797 897 811 900 807 l 900 782 b 888 768 900 771 897 768 l 796 768 l 796 18 b 779 0 796 4 792 0 l 749 0 b 732 18 736 0 732 4 l 732 469 l 201 469 l 201 18 b 185 0 201 4 197 0 l 153 0 m 732 531 l 732 768 l 201 768 l 201 531 "},"ħ":{"ha":750,"x_min":0,"x_max":0,"o":"m 135 0 b 119 17 124 0 119 4 l 119 867 l 43 867 b 31 881 33 867 31 869 l 31 893 b 43 907 31 904 35 907 l 119 907 l 119 1011 b 135 1028 119 1024 124 1028 l 164 1028 b 179 1011 175 1028 179 1024 l 179 907 l 375 907 b 388 893 386 907 388 904 l 388 881 b 375 867 388 869 386 867 l 179 867 l 179 683 b 394 732 231 710 303 732 b 636 465 563 732 636 635 l 636 17 b 621 0 636 4 633 0 l 592 0 b 576 17 581 0 576 4 l 576 461 b 386 676 576 603 519 676 b 179 626 303 676 233 657 l 179 17 b 164 0 179 4 175 0 l 135 0 "},"Ĩ":{"ha":336,"x_min":0,"x_max":0,"o":"m -14 1075 b -25 1088 -22 1075 -25 1079 b 71 1218 -25 1171 13 1218 b 257 1118 161 1218 185 1118 b 315 1206 296 1118 315 1154 b 326 1218 315 1214 318 1218 l 344 1218 b 357 1206 354 1218 357 1214 b 260 1075 357 1124 324 1075 b 76 1175 172 1075 149 1175 b 17 1088 39 1175 17 1140 b 6 1075 17 1079 13 1075 l -14 1075 m 151 0 b 136 17 142 0 136 3 l 136 971 b 151 986 136 983 142 986 l 185 986 b 200 971 194 986 200 983 l 200 17 b 185 0 200 3 193 0 l 151 0 "},"ĩ":{"ha":300,"x_min":0,"x_max":0,"o":"m 10 840 b 0 851 3 840 0 844 b 79 979 0 944 26 979 b 213 883 161 979 150 883 b 258 968 243 883 258 906 b 268 979 258 976 260 979 l 283 979 b 293 968 292 979 293 976 b 217 840 293 875 269 840 b 85 935 138 840 149 935 b 36 851 51 935 36 914 b 26 840 36 844 33 840 l 10 840 m 136 0 b 119 17 124 0 119 4 l 119 696 b 136 711 119 707 124 711 l 164 711 b 179 696 176 711 179 707 l 179 17 b 164 0 179 4 176 0 l 136 0 "},"Ī":{"ha":336,"x_min":0,"x_max":0,"o":"m 14 1119 b -1 1136 1 1119 -1 1124 l -1 1150 b 14 1165 -1 1163 3 1165 l 322 1165 b 338 1150 335 1165 338 1163 l 338 1136 b 322 1119 338 1124 335 1119 l 14 1119 m 151 0 b 136 17 142 0 136 3 l 136 971 b 151 986 136 983 142 986 l 185 986 b 200 971 194 986 200 983 l 200 17 b 185 0 200 3 193 0 l 151 0 "},"ī":{"ha":300,"x_min":0,"x_max":0,"o":"m 49 869 b 33 885 36 869 33 872 l 33 899 b 49 915 33 911 38 915 l 249 915 b 264 899 261 915 264 911 l 264 885 b 249 869 264 872 261 869 l 49 869 m 136 0 b 119 17 124 0 119 4 l 119 696 b 136 711 119 707 124 711 l 164 711 b 179 696 176 711 179 707 l 179 17 b 164 0 179 4 176 0 l 136 0 "},"Ĭ":{"ha":336,"x_min":0,"x_max":0,"o":"m 168 1060 b -19 1214 69 1060 15 1111 b -11 1231 -22 1224 -19 1228 l 10 1238 b 26 1231 19 1240 24 1239 b 168 1107 54 1147 92 1107 b 308 1231 243 1107 279 1143 b 322 1238 313 1239 315 1239 l 347 1231 b 356 1214 356 1228 358 1224 b 168 1060 319 1111 268 1060 m 151 0 b 136 17 142 0 136 3 l 136 971 b 151 986 136 983 142 986 l 185 986 b 200 971 194 986 200 983 l 200 17 b 185 0 200 3 193 0 l 151 0 "},"ĭ":{"ha":300,"x_min":0,"x_max":0,"o":"m 149 833 b 0 978 68 833 14 882 b 7 993 -3 986 -1 992 l 28 1001 b 46 993 38 1003 43 1001 b 149 881 54 915 92 881 b 253 993 206 881 243 915 b 268 1001 256 1001 260 1003 l 290 993 b 299 978 300 990 301 986 b 149 833 285 882 229 833 m 136 0 b 119 17 124 0 119 4 l 119 696 b 136 711 119 707 124 711 l 164 711 b 179 696 176 711 179 707 l 179 17 b 164 0 179 4 176 0 l 136 0 "},"Į":{"ha":336,"x_min":0,"x_max":0,"o":"m 158 -343 b 60 -278 117 -343 75 -326 b 151 3 35 -204 68 -111 b 136 19 139 3 136 8 l 136 968 b 153 986 136 982 140 986 l 183 986 b 200 968 196 986 200 982 l 200 18 b 196 3 200 11 199 7 b 113 -253 119 -106 90 -194 b 176 -294 122 -283 151 -294 b 264 -256 210 -294 240 -281 b 275 -260 268 -253 272 -253 l 282 -279 b 281 -293 285 -286 285 -289 b 158 -343 246 -326 207 -343 "},"į":{"ha":300,"x_min":0,"x_max":0,"o":"m 146 894 b 108 932 118 894 108 903 l 108 940 b 146 978 108 968 118 978 l 153 978 b 192 940 182 978 192 968 l 192 932 b 153 894 192 904 182 894 l 146 894 m 144 -342 b 51 -258 94 -342 57 -308 b 132 3 42 -158 106 -35 b 119 17 124 3 119 7 l 119 696 b 136 711 119 707 124 711 l 164 711 b 179 696 176 711 179 707 l 179 17 b 176 4 179 10 179 6 b 104 -239 156 -29 96 -149 b 160 -296 107 -272 132 -296 b 221 -257 181 -296 204 -286 b 233 -260 225 -254 229 -254 l 243 -275 b 242 -289 247 -281 244 -285 b 144 -342 215 -329 176 -342 "},"İ":{"ha":336,"x_min":0,"x_max":0,"o":"m 164 1106 b 132 1139 139 1106 132 1113 l 132 1146 b 164 1179 132 1172 139 1179 l 171 1179 b 204 1146 196 1179 204 1172 l 204 1139 b 171 1106 204 1114 196 1106 l 164 1106 m 151 0 b 136 17 142 0 136 3 l 136 971 b 151 986 136 983 142 986 l 185 986 b 200 971 194 986 200 983 l 200 17 b 185 0 200 3 193 0 l 151 0 "},"ı":{"ha":300,"x_min":0,"x_max":0,"o":"m 136 0 b 119 17 124 0 119 4 l 119 696 b 136 711 119 707 124 711 l 164 711 b 179 696 176 711 179 707 l 179 17 b 164 0 179 4 176 0 l 136 0 "},"Ĳ":{"ha":1071,"x_min":0,"x_max":0,"o":"m 151 0 b 136 17 142 0 136 3 l 136 971 b 151 986 136 983 142 986 l 185 986 b 200 971 194 986 200 983 l 200 17 b 185 0 200 3 193 0 l 151 0 m 642 -19 b 347 254 468 -19 378 83 b 358 278 343 267 346 274 l 385 288 b 407 274 397 290 404 286 b 643 42 432 124 501 42 b 876 303 796 42 876 142 l 876 969 b 893 986 876 982 881 986 l 925 986 b 942 969 938 986 942 982 l 942 303 b 642 -19 942 106 836 -19 "},"ĳ":{"ha":553,"x_min":0,"x_max":0,"o":"m 140 893 b 108 928 117 893 108 900 l 108 939 b 140 974 108 964 117 974 l 160 974 b 190 939 183 974 190 964 l 190 928 b 160 893 190 901 183 893 l 140 893 m 396 893 b 365 928 372 893 365 900 l 365 939 b 396 974 365 964 374 974 l 415 974 b 447 939 439 974 447 964 l 447 928 b 415 893 447 901 439 893 l 396 893 m 136 0 b 119 17 124 0 119 4 l 119 696 b 136 711 119 707 124 711 l 164 711 b 179 696 176 711 179 707 l 179 17 b 164 0 179 4 176 0 l 136 0 m 210 -319 b 194 -303 199 -319 194 -315 l 194 -279 b 210 -262 194 -267 199 -262 b 374 -15 371 -262 374 -174 l 374 696 b 389 711 374 707 378 711 l 419 711 b 433 696 431 711 433 707 l 433 -17 b 210 -319 433 -211 417 -319 "},"Ĵ":{"ha":775,"x_min":0,"x_max":0,"o":"m 426 1056 b 417 1068 411 1056 410 1061 l 578 1225 b 613 1240 593 1239 596 1240 l 618 1240 b 651 1225 632 1240 636 1240 l 811 1068 b 801 1056 818 1061 817 1056 l 776 1056 b 749 1065 763 1056 757 1056 l 614 1197 l 476 1065 b 451 1056 469 1057 465 1056 l 426 1056 m 347 -19 b 53 254 174 -19 83 83 b 64 278 49 267 51 274 l 90 286 b 113 272 103 290 110 286 b 349 42 138 124 207 42 b 582 301 501 42 582 140 l 582 969 b 599 986 582 982 586 986 l 631 986 b 647 969 643 986 647 982 l 647 303 b 347 -19 647 106 542 -19 "},"ĵ":{"ha":297,"x_min":0,"x_max":0,"o":"m -7 822 b -14 836 -21 822 -21 829 l 113 989 b 146 1004 128 1004 131 1004 l 154 1004 b 186 989 168 1004 171 1006 l 313 836 b 304 822 319 829 319 822 l 279 822 b 251 832 265 822 260 824 l 149 963 l 44 832 b 18 822 36 822 32 822 l -7 822 m -46 -319 b -61 -303 -57 -319 -61 -315 l -61 -279 b -46 -262 -61 -267 -57 -262 b 119 -15 115 -262 119 -174 l 119 696 b 133 711 119 707 122 711 l 164 711 b 179 696 175 711 179 707 l 179 -17 b -46 -319 179 -211 163 -319 "},"Ķ":{"ha":821,"x_min":0,"x_max":0,"o":"m 153 0 b 136 18 140 0 136 4 l 136 968 b 153 986 136 982 140 986 l 183 986 b 200 968 196 986 200 982 l 200 529 l 363 529 l 394 529 l 683 971 b 714 986 692 983 696 986 l 749 986 b 758 968 761 986 764 978 l 457 517 b 611 364 531 497 572 447 l 771 18 b 760 0 776 8 774 0 l 729 0 b 701 15 711 0 707 3 l 554 339 b 367 471 513 431 468 471 l 200 471 l 200 18 b 183 0 200 4 196 0 l 153 0 m 381 -342 b 368 -328 369 -342 367 -337 l 424 -125 b 444 -108 425 -111 431 -108 l 469 -108 b 485 -126 485 -108 489 -114 l 419 -325 b 399 -342 415 -337 411 -342 l 381 -342 "},"ķ":{"ha":681,"x_min":0,"x_max":0,"o":"m 136 0 b 121 17 124 0 121 4 l 121 1011 b 136 1028 121 1024 124 1028 l 165 1028 b 181 1011 176 1028 181 1024 l 181 394 l 333 394 l 346 394 l 549 699 b 578 711 557 711 561 711 l 603 711 b 614 693 619 711 621 704 l 403 383 b 514 272 458 368 489 332 l 626 18 b 615 0 632 6 629 0 l 590 0 b 563 14 572 0 568 3 l 461 247 b 336 339 435 310 401 339 l 181 339 l 181 17 b 165 0 181 4 176 0 l 136 0 m 271 -342 b 258 -328 260 -342 257 -337 l 314 -125 b 335 -108 315 -111 321 -108 l 360 -108 b 375 -126 375 -108 379 -114 l 310 -325 b 289 -342 306 -337 301 -342 l 271 -342 "},"ĸ":{"ha":626,"x_min":0,"x_max":0,"o":"m 135 0 b 119 17 124 0 119 4 l 119 696 b 135 711 119 707 124 711 l 165 711 b 179 696 176 711 179 707 l 179 303 l 500 697 b 529 711 508 711 513 711 l 557 711 b 567 693 572 711 575 704 l 344 413 l 576 21 b 565 0 583 7 582 0 l 540 0 b 515 14 524 0 521 1 l 306 369 l 179 224 l 179 17 b 165 0 179 4 176 0 l 135 0 "},"Ĺ":{"ha":707,"x_min":0,"x_max":0,"o":"m 82 1060 b 58 1060 71 1054 64 1054 l 50 1071 b 53 1092 43 1079 44 1086 l 244 1238 b 274 1236 254 1243 265 1246 l 289 1221 b 286 1200 297 1211 296 1206 l 82 1060 m 151 0 b 136 18 140 0 136 4 l 136 968 b 151 986 136 982 140 986 l 183 986 b 200 968 196 986 200 982 l 200 60 l 651 60 b 667 43 663 60 667 56 l 667 18 b 651 0 667 4 663 0 l 151 0 "},"ĺ":{"ha":310,"x_min":0,"x_max":0,"o":"m 68 1046 b 46 1046 58 1040 51 1040 l 38 1057 b 40 1078 29 1065 31 1072 l 231 1224 b 261 1222 240 1229 251 1232 l 275 1207 b 272 1186 283 1197 283 1192 l 68 1046 m 138 0 b 125 17 128 0 125 4 l 125 1011 b 138 1028 125 1024 128 1028 l 172 1028 b 185 1011 182 1028 185 1024 l 185 17 b 172 0 185 4 182 0 l 138 0 "},"Ļ":{"ha":707,"x_min":0,"x_max":0,"o":"m 151 0 b 136 18 140 0 136 4 l 136 968 b 151 986 136 982 140 986 l 183 986 b 200 968 196 986 200 982 l 200 60 l 651 60 b 667 43 663 60 667 56 l 667 18 b 651 0 667 4 663 0 l 151 0 m 332 -342 b 319 -328 321 -342 318 -337 l 375 -125 b 396 -108 376 -111 382 -108 l 421 -108 b 436 -126 436 -108 440 -114 l 371 -325 b 350 -342 367 -337 363 -342 l 332 -342 "},"ļ":{"ha":310,"x_min":0,"x_max":0,"o":"m 138 0 b 125 17 128 0 125 4 l 125 1011 b 138 1028 125 1024 128 1028 l 172 1028 b 185 1011 182 1028 185 1024 l 185 17 b 172 0 185 4 182 0 l 138 0 m 86 -342 b 74 -328 75 -342 72 -337 l 129 -125 b 150 -108 131 -111 136 -108 l 175 -108 b 190 -126 190 -108 194 -114 l 125 -325 b 104 -342 121 -337 117 -342 l 86 -342 "},"Ľ":{"ha":707,"x_min":0,"x_max":0,"o":"m 151 0 b 135 18 139 0 135 4 l 135 968 b 151 986 135 982 139 986 l 182 986 b 199 968 194 986 199 982 l 199 60 l 650 60 b 665 43 663 60 665 56 l 665 18 b 650 0 665 4 663 0 l 151 0 m 492 699 b 481 713 481 699 479 701 l 536 969 b 557 986 539 983 543 986 l 582 986 b 596 968 596 986 600 981 l 528 715 b 508 699 524 703 519 699 l 492 699 "},"ľ":{"ha":294,"x_min":0,"x_max":0,"o":"m 136 0 b 124 17 126 0 124 4 l 124 1011 b 136 1028 124 1024 126 1028 l 171 1028 b 183 1011 181 1028 183 1024 l 183 17 b 171 0 183 4 181 0 l 136 0 m 300 747 b 288 761 290 747 286 750 l 335 1011 b 354 1028 338 1025 340 1028 l 379 1028 b 394 1010 394 1028 399 1022 l 333 763 b 314 747 329 751 326 747 l 300 747 "},"Ŀ":{"ha":707,"x_min":0,"x_max":0,"o":"m 151 0 b 136 18 140 0 136 4 l 136 968 b 151 986 136 982 140 986 l 183 986 b 200 968 196 986 200 982 l 200 60 l 651 60 b 667 43 663 60 667 56 l 667 18 b 651 0 667 4 663 0 l 151 0 m 472 447 b 432 488 443 447 432 454 l 432 494 b 472 535 432 525 442 535 l 479 535 b 519 494 508 535 519 525 l 519 488 b 479 447 519 457 508 447 l 472 447 "},"ŀ":{"ha":438,"x_min":0,"x_max":0,"o":"m 138 0 b 125 17 128 0 125 4 l 125 1011 b 138 1028 125 1024 128 1028 l 172 1028 b 185 1011 182 1028 185 1024 l 185 17 b 172 0 185 4 182 0 l 138 0 m 353 478 b 313 517 324 478 313 485 l 313 524 b 353 564 313 554 322 564 l 358 564 b 399 524 389 564 399 554 l 399 517 b 358 478 399 488 389 478 l 353 478 "},"Ł":{"ha":738,"x_min":0,"x_max":0,"o":"m 175 0 b 157 18 161 0 157 4 l 157 414 l 46 354 b 28 360 38 350 33 350 l 18 381 b 24 399 14 389 17 394 l 157 469 l 157 968 b 175 986 157 982 161 986 l 203 986 b 221 968 217 986 221 982 l 221 499 l 517 654 b 536 649 528 660 532 657 l 546 628 b 540 611 551 619 550 615 l 221 444 l 221 60 l 679 60 b 697 43 693 60 697 56 l 697 18 b 679 0 697 4 693 0 l 175 0 "},"ł":{"ha":399,"x_min":0,"x_max":0,"o":"m 181 0 b 165 17 169 0 165 4 l 165 475 l 65 415 b 47 419 56 411 51 411 l 36 436 b 42 454 32 446 35 451 l 165 528 l 165 1011 b 181 1028 165 1024 169 1028 l 208 1028 b 225 1011 221 1028 225 1024 l 225 561 l 332 625 b 351 622 343 632 346 631 l 363 604 b 356 586 367 596 365 593 l 225 508 l 225 17 b 208 0 225 4 221 0 l 181 0 "},"Ń":{"ha":943,"x_min":0,"x_max":0,"o":"m 386 1060 b 363 1060 375 1054 368 1054 l 354 1071 b 357 1092 347 1079 349 1086 l 549 1238 b 578 1236 558 1243 569 1246 l 593 1221 b 590 1200 601 1211 600 1206 l 386 1060 m 153 0 b 136 18 140 0 136 4 l 136 968 b 153 986 136 982 140 986 l 188 986 b 206 976 197 986 203 982 l 636 292 b 751 90 679 224 714 157 l 756 90 b 746 343 750 172 746 254 l 746 969 b 763 986 746 982 750 986 l 792 986 b 808 968 804 986 808 982 l 808 18 b 792 0 808 4 804 0 l 757 0 b 738 11 747 0 743 1 l 294 714 b 194 894 258 775 226 838 l 192 894 b 199 665 193 824 199 746 l 199 18 b 181 0 199 4 194 0 l 153 0 "},"ń":{"ha":747,"x_min":0,"x_max":0,"o":"m 283 847 b 260 849 272 842 265 842 l 251 858 b 254 879 244 868 246 874 l 446 1025 b 475 1025 456 1033 467 1036 l 490 1010 b 488 989 499 1000 497 994 l 283 847 m 132 0 b 117 17 121 0 117 4 l 117 610 b 164 686 117 653 126 669 b 392 732 210 707 281 732 b 633 464 560 732 633 632 l 633 17 b 618 0 633 4 631 0 l 589 0 b 574 17 578 0 574 4 l 574 461 b 383 676 574 601 514 676 b 203 639 306 676 239 658 b 176 594 179 628 176 614 l 176 17 b 161 0 176 4 172 0 l 132 0 "},"Ņ":{"ha":943,"x_min":0,"x_max":0,"o":"m 153 0 b 136 18 140 0 136 4 l 136 968 b 153 986 136 982 140 986 l 188 986 b 206 976 197 986 203 982 l 636 292 b 751 90 679 224 714 157 l 756 90 b 746 343 750 172 746 254 l 746 969 b 763 986 746 982 750 986 l 792 986 b 808 968 804 986 808 982 l 808 18 b 792 0 808 4 804 0 l 757 0 b 738 11 747 0 743 1 l 294 714 b 194 894 258 775 226 838 l 192 894 b 199 665 193 824 199 746 l 199 18 b 181 0 199 4 194 0 l 153 0 m 406 -342 b 393 -328 394 -342 392 -337 l 449 -125 b 469 -108 450 -111 456 -108 l 494 -108 b 510 -126 510 -108 514 -114 l 444 -325 b 424 -342 440 -337 436 -342 l 406 -342 "},"ņ":{"ha":747,"x_min":0,"x_max":0,"o":"m 132 0 b 117 17 121 0 117 4 l 117 610 b 164 686 117 653 126 669 b 392 732 210 707 281 732 b 633 464 560 732 633 632 l 633 17 b 618 0 633 4 631 0 l 589 0 b 574 17 578 0 574 4 l 574 461 b 383 676 574 601 514 676 b 203 639 306 676 239 658 b 176 594 179 628 176 614 l 176 17 b 161 0 176 4 172 0 l 132 0 m 304 -342 b 292 -328 293 -342 290 -337 l 347 -125 b 368 -108 349 -111 354 -108 l 393 -108 b 408 -126 408 -108 413 -114 l 343 -325 b 322 -342 339 -337 335 -342 l 304 -342 "},"Ň":{"ha":943,"x_min":0,"x_max":0,"o":"m 471 1054 b 436 1069 454 1054 450 1056 l 276 1226 b 285 1239 269 1233 269 1239 l 310 1239 b 336 1229 324 1239 326 1239 l 471 1097 l 608 1229 b 635 1239 615 1238 621 1239 l 661 1239 b 669 1226 676 1239 676 1233 l 508 1069 b 476 1054 492 1054 490 1054 l 471 1054 m 153 0 b 136 18 140 0 136 4 l 136 968 b 153 986 136 982 140 986 l 188 986 b 206 976 197 986 203 982 l 636 292 b 751 90 679 224 714 157 l 756 90 b 746 343 750 172 746 254 l 746 969 b 763 986 746 982 750 986 l 792 986 b 808 968 804 986 808 982 l 808 18 b 792 0 808 4 804 0 l 757 0 b 738 11 747 0 743 1 l 294 714 b 194 894 258 775 226 838 l 192 894 b 199 665 193 824 199 746 l 199 18 b 181 0 199 4 194 0 l 153 0 "},"ň":{"ha":747,"x_min":0,"x_max":0,"o":"m 368 836 b 333 851 351 836 347 838 l 174 1008 b 182 1021 167 1015 167 1021 l 207 1021 b 233 1011 221 1021 224 1021 l 368 879 l 506 1011 b 533 1021 514 1019 519 1021 l 560 1021 b 567 1008 575 1021 575 1015 l 406 851 b 374 836 389 836 388 836 l 368 836 m 132 0 b 117 17 121 0 117 4 l 117 610 b 164 686 117 653 126 669 b 392 732 210 707 281 732 b 633 464 560 732 633 632 l 633 17 b 618 0 633 4 631 0 l 589 0 b 574 17 578 0 574 4 l 574 461 b 383 676 574 601 514 676 b 203 639 306 676 239 658 b 176 594 179 628 176 614 l 176 17 b 161 0 176 4 172 0 l 132 0 "},"ŉ":{"ha":747,"x_min":0,"x_max":0,"o":"m 104 782 b 96 796 93 782 92 786 l 157 1003 b 178 1017 163 1014 165 1017 l 206 1017 b 217 1000 221 1017 224 1011 l 140 794 b 119 782 135 783 132 782 l 104 782 m 132 0 b 117 17 121 0 117 4 l 117 610 b 164 686 117 653 126 669 b 392 732 210 707 281 732 b 633 464 560 732 633 632 l 633 17 b 618 0 633 4 631 0 l 589 0 b 574 17 578 0 574 4 l 574 461 b 383 676 574 601 514 676 b 203 639 306 676 239 658 b 176 594 179 628 176 614 l 176 17 b 161 0 176 4 172 0 l 132 0 "},"Ŋ":{"ha":943,"x_min":0,"x_max":0,"o":"m 542 -319 b 525 -303 529 -319 525 -315 l 525 -279 b 542 -262 525 -267 529 -262 b 744 -25 700 -262 744 -179 l 744 3 l 294 714 b 194 894 258 775 226 838 l 192 894 b 199 665 193 824 199 746 l 199 18 b 181 0 199 4 194 0 l 153 0 b 136 18 140 0 136 4 l 136 968 b 153 986 136 982 140 986 l 188 986 b 206 976 197 986 203 982 l 636 292 b 751 90 679 224 714 157 l 756 90 b 746 343 750 172 746 254 l 746 969 b 763 986 746 982 750 986 l 792 986 b 808 968 804 986 808 982 l 808 -35 b 542 -319 807 -222 742 -319 "},"ŋ":{"ha":747,"x_min":0,"x_max":0,"o":"m 385 -317 b 368 -300 372 -317 368 -312 l 368 -278 b 385 -262 368 -264 372 -262 b 574 -29 542 -262 574 -183 l 574 461 b 383 676 574 601 514 676 b 203 639 306 676 239 658 b 176 594 179 628 176 614 l 176 17 b 161 0 176 4 172 0 l 132 0 b 117 17 121 0 117 4 l 117 610 b 164 686 117 653 126 669 b 392 732 210 707 281 732 b 633 464 560 732 633 632 l 633 -32 b 385 -317 633 -218 581 -317 "},"Ō":{"ha":904,"x_min":0,"x_max":0,"o":"m 299 1133 b 283 1150 286 1133 283 1138 l 283 1164 b 299 1179 283 1176 288 1179 l 607 1179 b 622 1164 619 1179 622 1176 l 622 1150 b 607 1133 622 1138 619 1133 l 299 1133 m 453 -19 b 106 324 226 -19 106 111 l 106 663 b 453 1006 106 875 226 1006 b 799 663 678 1006 799 875 l 799 324 b 453 -19 799 111 678 -19 m 453 40 b 735 325 636 40 735 147 l 735 661 b 453 946 735 839 636 946 b 171 661 269 946 171 839 l 171 325 b 453 40 171 147 269 40 "},"ō":{"ha":735,"x_min":0,"x_max":0,"o":"m 213 900 b 197 917 200 900 197 904 l 197 931 b 213 946 197 943 201 946 l 521 946 b 536 931 533 946 536 943 l 536 917 b 521 900 536 904 533 900 l 213 900 m 367 -19 b 97 224 203 -19 97 72 l 97 488 b 367 732 97 639 203 732 b 638 488 533 732 638 639 l 638 224 b 367 -19 638 72 533 -19 m 367 35 b 578 224 494 35 578 107 l 578 489 b 367 676 578 606 494 676 b 157 489 242 676 157 606 l 157 224 b 367 35 157 107 242 35 "},"Ŏ":{"ha":904,"x_min":0,"x_max":0,"o":"m 454 1074 b 267 1228 356 1074 301 1125 b 275 1244 264 1238 267 1242 l 296 1251 b 313 1244 306 1254 310 1253 b 454 1121 340 1161 378 1121 b 594 1244 529 1121 565 1157 b 608 1251 599 1253 601 1253 l 633 1244 b 642 1228 642 1242 644 1238 b 454 1074 606 1125 554 1074 m 453 -19 b 106 324 226 -19 106 111 l 106 663 b 453 1006 106 875 226 1006 b 799 663 678 1006 799 875 l 799 324 b 453 -19 799 111 678 -19 m 453 40 b 735 325 636 40 735 147 l 735 661 b 453 946 735 839 636 946 b 171 661 269 946 171 839 l 171 325 b 453 40 171 147 269 40 "},"ŏ":{"ha":735,"x_min":0,"x_max":0,"o":"m 365 842 b 179 997 267 842 207 892 b 188 1014 176 1007 179 1011 l 208 1021 b 225 1013 217 1022 222 1021 b 365 889 247 928 290 889 b 507 1013 442 889 485 928 b 522 1021 510 1021 514 1022 l 544 1014 b 553 997 554 1010 557 1007 b 365 842 525 892 465 842 m 367 -19 b 97 224 203 -19 97 72 l 97 488 b 367 732 97 639 203 732 b 638 488 533 732 638 639 l 638 224 b 367 -19 638 72 533 -19 m 367 35 b 578 224 494 35 578 107 l 578 489 b 367 676 578 606 494 676 b 157 489 242 676 157 606 l 157 224 b 367 35 157 107 242 35 "},"Ő":{"ha":904,"x_min":0,"x_max":0,"o":"m 289 1075 b 283 1093 278 1079 278 1085 l 407 1249 b 435 1260 414 1260 421 1264 l 454 1253 b 460 1235 465 1249 468 1243 l 321 1078 b 299 1071 313 1069 307 1068 m 501 1076 b 496 1093 490 1079 490 1086 l 625 1247 b 654 1258 633 1257 640 1263 l 675 1251 b 681 1232 686 1247 689 1240 l 533 1079 b 513 1072 526 1071 519 1068 m 453 -19 b 106 324 226 -19 106 111 l 106 663 b 453 1006 106 875 226 1006 b 799 663 678 1006 799 875 l 799 324 b 453 -19 799 111 678 -19 m 453 40 b 735 325 636 40 735 147 l 735 661 b 453 946 735 839 636 946 b 171 661 269 946 171 839 l 171 325 b 453 40 171 147 269 40 "},"ő":{"ha":735,"x_min":0,"x_max":0,"o":"m 201 840 b 199 858 192 844 192 850 l 321 1014 b 349 1025 328 1025 336 1029 l 368 1018 b 374 1000 379 1014 381 1008 l 235 843 b 213 836 225 835 221 833 m 414 839 b 410 857 404 842 403 849 l 538 1011 b 565 1022 546 1021 553 1025 l 586 1015 b 592 997 597 1011 599 1004 l 446 842 b 424 835 438 833 432 832 m 367 -19 b 97 224 203 -19 97 72 l 97 488 b 367 732 97 639 203 732 b 638 488 533 732 638 639 l 638 224 b 367 -19 638 72 533 -19 m 367 35 b 578 224 494 35 578 107 l 578 489 b 367 676 578 606 494 676 b 157 489 242 676 157 606 l 157 224 b 367 35 157 107 242 35 "},"Œ":{"ha":1169,"x_min":0,"x_max":0,"o":"m 465 -21 b 106 324 235 -21 106 111 l 106 663 b 465 1007 106 875 235 1007 b 617 986 519 1007 574 999 l 1056 986 b 1072 968 1068 986 1072 982 l 1072 943 b 1056 926 1072 931 1068 926 l 660 926 l 660 529 l 996 529 b 1013 511 1008 529 1013 525 l 1013 486 b 996 469 1013 474 1008 469 l 660 469 l 660 60 l 1075 60 b 1092 43 1088 60 1092 56 l 1092 18 b 1075 0 1092 4 1088 0 l 618 0 b 465 -21 574 -12 519 -21 m 465 39 b 597 58 525 39 578 51 l 597 928 b 465 947 574 935 522 947 b 171 661 276 947 171 839 l 171 325 b 465 39 171 147 276 39 "},"œ":{"ha":1119,"x_min":0,"x_max":0,"o":"m 347 -19 b 97 224 204 -19 97 72 l 97 489 b 347 732 97 640 204 732 b 571 585 460 732 542 676 b 790 732 601 676 668 732 b 1036 447 967 732 1036 617 l 1036 374 b 1004 343 1036 354 1026 343 l 596 343 l 596 247 b 789 33 596 115 649 33 b 975 165 894 33 933 85 b 1000 172 983 178 989 178 l 1019 163 b 1025 138 1029 158 1031 149 b 788 -19 978 47 926 -19 b 569 122 667 -19 600 32 b 347 -19 539 32 458 -19 m 979 392 l 979 450 b 790 679 979 590 926 679 b 596 450 644 679 596 590 l 596 392 m 347 33 b 540 222 464 33 540 106 l 540 489 b 347 678 540 606 464 678 b 156 489 242 678 156 606 l 156 222 b 347 33 156 106 242 33 "},"Ŕ":{"ha":878,"x_min":0,"x_max":0,"o":"m 343 1060 b 319 1060 332 1054 325 1054 l 311 1071 b 314 1092 304 1079 306 1086 l 506 1238 b 535 1236 515 1243 526 1246 l 550 1221 b 547 1200 558 1211 557 1206 l 343 1060 m 153 0 b 136 18 140 0 136 4 l 136 968 b 153 986 136 982 140 986 l 517 986 b 781 708 679 986 781 885 b 554 444 781 549 693 456 b 664 326 607 422 638 383 l 806 18 b 796 0 811 8 808 0 l 765 0 b 735 15 744 0 740 3 l 604 301 b 414 435 561 394 515 435 l 200 435 l 200 18 b 183 0 200 4 196 0 l 153 0 m 514 492 b 715 708 638 492 715 569 b 514 926 715 847 640 926 l 200 926 l 200 492 "},"ŕ":{"ha":481,"x_min":0,"x_max":0,"o":"m 176 846 b 153 847 165 840 158 840 l 144 857 b 147 878 138 867 139 872 l 339 1024 b 368 1024 349 1032 360 1035 l 383 1008 b 381 988 392 999 390 993 l 176 846 m 131 0 b 117 17 121 0 117 4 l 117 593 b 161 671 117 636 125 654 b 375 711 206 692 272 711 l 429 711 b 444 697 440 711 444 707 l 444 674 b 429 657 444 661 440 657 l 372 657 b 203 622 297 657 236 639 b 176 575 179 610 176 594 l 176 17 b 163 0 176 4 172 0 l 131 0 "},"Ŗ":{"ha":878,"x_min":0,"x_max":0,"o":"m 153 0 b 136 18 140 0 136 4 l 136 968 b 153 986 136 982 140 986 l 517 986 b 781 708 679 986 781 885 b 554 444 781 549 693 456 b 664 326 607 422 638 383 l 806 18 b 796 0 811 8 808 0 l 765 0 b 735 15 744 0 740 3 l 604 301 b 414 435 561 394 515 435 l 200 435 l 200 18 b 183 0 200 4 196 0 l 153 0 m 514 492 b 715 708 638 492 715 569 b 514 926 715 847 640 926 l 200 926 l 200 492 m 399 -342 b 386 -328 388 -342 385 -337 l 442 -125 b 463 -108 443 -111 449 -108 l 488 -108 b 503 -126 503 -108 507 -114 l 438 -325 b 417 -342 433 -337 429 -342 l 399 -342 "},"ŗ":{"ha":481,"x_min":0,"x_max":0,"o":"m 131 0 b 117 17 121 0 117 4 l 117 593 b 161 671 117 636 125 654 b 375 711 206 692 272 711 l 429 711 b 444 697 440 711 444 707 l 444 674 b 429 657 444 661 440 657 l 372 657 b 203 622 297 657 236 639 b 176 575 179 610 176 594 l 176 17 b 163 0 176 4 172 0 l 131 0 m 75 -342 b 63 -328 64 -342 61 -337 l 118 -125 b 139 -108 119 -111 125 -108 l 164 -108 b 179 -126 179 -108 183 -114 l 114 -325 b 93 -342 110 -337 106 -342 l 75 -342 "},"Ř":{"ha":878,"x_min":0,"x_max":0,"o":"m 428 1054 b 393 1069 411 1054 407 1056 l 233 1226 b 242 1239 226 1233 226 1239 l 267 1239 b 293 1229 281 1239 283 1239 l 428 1097 l 565 1229 b 592 1239 572 1238 578 1239 l 618 1239 b 626 1226 633 1239 633 1233 l 465 1069 b 433 1054 449 1054 447 1054 l 428 1054 m 153 0 b 136 18 140 0 136 4 l 136 968 b 153 986 136 982 140 986 l 517 986 b 781 708 679 986 781 885 b 554 444 781 549 693 456 b 664 326 607 422 638 383 l 806 18 b 796 0 811 8 808 0 l 765 0 b 735 15 744 0 740 3 l 604 301 b 414 435 561 394 515 435 l 200 435 l 200 18 b 183 0 200 4 196 0 l 153 0 m 514 492 b 715 708 638 492 715 569 b 514 926 715 847 640 926 l 200 926 l 200 492 "},"ř":{"ha":481,"x_min":0,"x_max":0,"o":"m 263 835 b 228 850 246 835 242 836 l 68 1007 b 76 1019 61 1014 61 1019 l 101 1019 b 128 1010 115 1019 118 1019 l 263 878 l 400 1010 b 428 1019 408 1018 414 1019 l 454 1019 b 461 1007 469 1019 469 1014 l 300 850 b 268 835 283 835 282 835 l 263 835 m 131 0 b 117 17 121 0 117 4 l 117 593 b 161 671 117 636 125 654 b 375 711 206 692 272 711 l 429 711 b 444 697 440 711 444 707 l 444 674 b 429 657 444 661 440 657 l 372 657 b 203 622 297 657 236 639 b 176 575 179 610 176 594 l 176 17 b 163 0 176 4 172 0 l 131 0 "},"Ś":{"ha":853,"x_min":0,"x_max":0,"o":"m 343 1072 b 319 1072 332 1067 325 1067 l 311 1083 b 314 1104 304 1092 306 1099 l 506 1250 b 535 1249 515 1256 526 1258 l 550 1233 b 547 1213 558 1224 557 1218 l 343 1072 m 426 -19 b 81 219 250 -19 140 53 b 90 243 76 232 78 239 l 119 253 b 142 243 132 257 136 256 b 426 42 196 100 286 42 b 701 261 608 42 701 114 b 431 464 701 425 569 447 b 97 732 274 485 97 517 b 421 1006 97 900 217 1006 b 756 793 593 1006 689 940 b 747 769 763 782 760 774 l 719 760 b 697 767 708 754 704 756 b 421 944 642 890 560 944 b 163 733 257 944 163 867 b 447 525 163 569 301 543 b 767 260 601 506 767 472 b 426 -19 767 79 650 -19 "},"ś":{"ha":672,"x_min":0,"x_max":0,"o":"m 249 847 b 225 849 238 842 231 842 l 217 858 b 219 879 210 868 211 874 l 411 1025 b 440 1025 421 1033 432 1036 l 456 1010 b 453 989 464 1000 463 994 l 249 847 m 342 -19 b 76 154 210 -19 119 26 b 85 176 72 167 74 174 l 111 185 b 132 175 124 189 128 188 b 342 33 167 71 240 33 b 533 181 474 33 533 90 b 343 328 533 296 456 317 b 90 532 213 342 90 360 b 333 731 90 657 178 731 b 581 581 476 731 547 674 b 575 557 586 568 585 561 l 553 549 b 531 556 539 543 536 546 b 333 678 503 631 451 678 b 150 532 215 678 150 625 b 354 381 150 403 239 393 b 593 182 486 368 593 335 b 342 -19 593 58 511 -19 "},"Ŝ":{"ha":853,"x_min":0,"x_max":0,"o":"m 242 1068 b 232 1081 226 1068 225 1074 l 393 1238 b 428 1253 408 1251 411 1253 l 433 1253 b 467 1238 447 1253 451 1253 l 626 1081 b 617 1068 633 1074 632 1068 l 592 1068 b 564 1078 578 1068 572 1068 l 429 1210 l 292 1078 b 267 1068 285 1069 281 1068 l 242 1068 m 426 -19 b 81 219 250 -19 140 53 b 90 243 76 232 78 239 l 119 253 b 142 243 132 257 136 256 b 426 42 196 100 286 42 b 701 261 608 42 701 114 b 431 464 701 425 569 447 b 97 732 274 485 97 517 b 421 1006 97 900 217 1006 b 756 793 593 1006 689 940 b 747 769 763 782 760 774 l 719 760 b 697 767 708 754 704 756 b 421 944 642 890 560 944 b 163 733 257 944 163 867 b 447 525 163 569 301 543 b 767 260 601 506 767 472 b 426 -19 767 79 650 -19 "},"ŝ":{"ha":672,"x_min":0,"x_max":0,"o":"m 149 838 b 140 850 133 838 132 843 l 301 1007 b 336 1022 317 1021 319 1022 l 342 1022 b 374 1007 356 1022 360 1022 l 535 850 b 525 838 540 843 540 838 l 500 838 b 472 847 486 838 481 838 l 338 979 l 200 847 b 174 838 192 839 188 838 l 149 838 m 342 -19 b 76 154 210 -19 119 26 b 85 176 72 167 74 174 l 111 185 b 132 175 124 189 128 188 b 342 33 167 71 240 33 b 533 181 474 33 533 90 b 343 328 533 296 456 317 b 90 532 213 342 90 360 b 333 731 90 657 178 731 b 581 581 476 731 547 674 b 575 557 586 568 585 561 l 553 549 b 531 556 539 543 536 546 b 333 678 503 631 451 678 b 150 532 215 678 150 625 b 354 381 150 403 239 393 b 593 182 486 368 593 335 b 342 -19 593 58 511 -19 "},"Ş":{"ha":853,"x_min":0,"x_max":0,"o":"m 432 -342 b 336 -311 390 -342 356 -324 b 325 -289 326 -306 325 -301 l 325 -271 b 335 -265 325 -265 328 -260 b 425 -301 354 -283 378 -301 b 524 -212 486 -301 524 -275 b 440 -142 524 -168 488 -143 b 397 -150 424 -142 408 -146 b 383 -133 385 -153 379 -144 l 419 -19 b 81 224 249 -18 142 60 b 90 249 76 238 78 243 l 119 258 b 142 247 132 263 136 261 b 426 42 197 106 286 42 b 701 261 608 42 701 114 b 431 464 701 425 569 447 b 97 732 274 485 97 517 b 421 1006 97 900 217 1006 b 756 793 593 1006 689 940 b 747 769 763 782 760 774 l 719 760 b 697 767 708 754 704 756 b 421 944 642 890 560 944 b 163 733 257 944 163 867 b 447 525 163 569 301 543 b 767 260 601 506 767 472 b 460 -19 767 89 661 -8 l 433 -112 b 467 -108 442 -110 454 -108 b 578 -215 531 -108 579 -151 b 432 -342 574 -306 514 -342 "},"ş":{"ha":672,"x_min":0,"x_max":0,"o":"m 335 -339 b 239 -310 292 -339 258 -322 b 228 -287 231 -304 228 -299 l 228 -269 b 238 -264 228 -264 231 -260 b 328 -300 257 -282 282 -300 b 424 -212 389 -300 424 -274 b 343 -142 424 -167 390 -142 b 300 -150 326 -142 313 -144 b 288 -133 289 -151 285 -144 l 322 -19 b 76 154 200 -15 118 32 b 85 176 72 167 74 174 l 111 185 b 132 175 124 189 128 188 b 342 33 167 71 240 33 b 533 181 474 33 533 90 b 343 328 533 296 456 317 b 90 532 213 342 90 360 b 333 731 90 657 178 731 b 581 581 476 731 547 674 b 575 557 586 568 585 561 l 553 549 b 531 556 539 543 536 546 b 333 678 503 631 451 678 b 150 532 215 678 150 625 b 354 381 150 403 239 393 b 593 182 486 368 593 335 b 361 -18 593 64 517 -12 l 335 -114 b 368 -108 343 -110 356 -108 b 476 -214 429 -108 478 -151 b 335 -339 474 -303 415 -339 "},"Š":{"ha":853,"x_min":0,"x_max":0,"o":"m 428 1067 b 393 1082 411 1067 407 1068 l 233 1239 b 242 1251 226 1246 226 1251 l 267 1251 b 293 1242 281 1251 283 1251 l 428 1110 l 565 1242 b 592 1251 572 1250 578 1251 l 618 1251 b 626 1239 633 1251 633 1246 l 465 1082 b 433 1067 449 1067 447 1067 l 428 1067 m 426 -19 b 81 219 250 -19 140 53 b 90 243 76 232 78 239 l 119 253 b 142 243 132 257 136 256 b 426 42 196 100 286 42 b 701 261 608 42 701 114 b 431 464 701 425 569 447 b 97 732 274 485 97 517 b 421 1006 97 900 217 1006 b 756 793 593 1006 689 940 b 747 769 763 782 760 774 l 719 760 b 697 767 708 754 704 756 b 421 944 642 890 560 944 b 163 733 257 944 163 867 b 447 525 163 569 301 543 b 767 260 601 506 767 472 b 426 -19 767 79 650 -19 "},"š":{"ha":672,"x_min":0,"x_max":0,"o":"m 335 836 b 300 851 318 836 314 838 l 140 1008 b 149 1021 133 1015 133 1021 l 174 1021 b 200 1011 188 1021 190 1021 l 335 879 l 472 1011 b 500 1021 481 1019 486 1021 l 526 1021 b 533 1008 542 1021 542 1015 l 372 851 b 340 836 356 836 354 836 l 335 836 m 342 -19 b 76 154 210 -19 119 26 b 85 176 72 167 74 174 l 111 185 b 132 175 124 189 128 188 b 342 33 167 71 240 33 b 533 181 474 33 533 90 b 343 328 533 296 456 317 b 90 532 213 342 90 360 b 333 731 90 657 178 731 b 581 581 476 731 547 674 b 575 557 586 568 585 561 l 553 549 b 531 556 539 543 536 546 b 333 678 503 631 451 678 b 150 532 215 678 150 625 b 354 381 150 403 239 393 b 593 182 486 368 593 335 b 342 -19 593 58 511 -19 "},"Ţ":{"ha":733,"x_min":0,"x_max":0,"o":"m 351 0 b 335 17 339 0 335 4 l 335 926 l 56 926 b 39 943 43 926 39 931 l 39 968 b 56 986 39 982 43 986 l 678 986 b 694 968 690 986 694 982 l 694 943 b 678 926 694 931 690 926 l 399 926 l 399 17 b 382 0 399 4 394 0 l 351 0 m 297 -342 b 285 -328 286 -342 283 -337 l 340 -125 b 361 -108 342 -111 347 -108 l 386 -108 b 401 -126 401 -108 406 -114 l 336 -325 b 315 -342 332 -337 328 -342 l 297 -342 "},"ţ":{"ha":463,"x_min":0,"x_max":0,"o":"m 328 -106 b 436 -214 390 -106 438 -149 b 293 -339 433 -303 375 -339 b 197 -310 251 -339 217 -322 b 186 -287 188 -304 186 -299 l 186 -269 b 196 -262 186 -262 189 -258 b 286 -300 215 -281 239 -300 b 383 -211 347 -300 383 -272 b 301 -140 383 -165 349 -140 b 258 -149 285 -140 269 -143 b 244 -131 246 -150 240 -143 l 289 13 b 169 261 204 38 169 104 l 169 657 l 43 657 b 28 672 32 657 28 660 l 28 696 b 43 711 28 707 32 711 l 169 711 l 169 863 b 185 878 169 874 174 878 l 214 878 b 229 863 226 878 229 874 l 229 711 l 415 711 b 431 696 426 711 431 707 l 431 672 b 415 657 431 660 426 657 l 229 657 l 229 264 b 413 57 229 88 274 57 b 429 43 425 58 429 54 l 429 17 b 413 0 429 4 425 0 b 328 4 381 0 353 1 l 294 -111 b 328 -106 303 -108 315 -106 "},"Ť":{"ha":733,"x_min":0,"x_max":0,"o":"m 365 1054 b 331 1069 349 1054 344 1056 l 171 1226 b 179 1239 164 1233 164 1239 l 204 1239 b 231 1229 218 1239 221 1239 l 365 1097 l 503 1229 b 529 1239 510 1238 515 1239 l 556 1239 b 564 1226 571 1239 571 1233 l 403 1069 b 371 1054 386 1054 385 1054 l 365 1054 m 351 0 b 335 17 339 0 335 4 l 335 926 l 56 926 b 39 943 43 926 39 931 l 39 968 b 56 986 39 982 43 986 l 678 986 b 694 968 690 986 694 982 l 694 943 b 678 926 694 931 690 926 l 399 926 l 399 17 b 382 0 399 4 394 0 l 351 0 "},"ť":{"ha":463,"x_min":0,"x_max":0,"o":"m 410 771 b 399 785 399 771 397 774 l 446 1011 b 465 1028 449 1025 453 1028 l 490 1028 b 506 1011 504 1028 510 1022 l 444 786 b 425 771 440 775 436 771 l 410 771 m 413 0 b 169 261 235 -1 169 44 l 169 657 l 43 657 b 28 672 32 657 28 660 l 28 696 b 43 711 28 707 32 711 l 169 711 l 169 863 b 185 878 169 874 174 878 l 214 878 b 229 863 226 878 229 874 l 229 711 l 415 711 b 431 696 426 711 431 707 l 431 672 b 415 657 431 660 426 657 l 229 657 l 229 264 b 413 57 229 88 274 57 b 429 43 425 58 429 54 l 429 17 b 413 0 429 4 425 0 "},"Ŧ":{"ha":732,"x_min":0,"x_max":0,"o":"m 351 0 b 335 17 339 0 335 4 l 335 435 l 143 435 b 129 449 132 435 129 438 l 129 471 b 143 483 129 481 135 483 l 335 483 l 335 926 l 56 926 b 39 943 43 926 39 931 l 39 968 b 56 986 39 982 43 986 l 676 986 b 693 968 689 986 693 982 l 693 943 b 676 926 693 931 689 926 l 399 926 l 399 483 l 590 483 b 604 471 601 483 604 481 l 604 449 b 590 435 604 438 601 435 l 399 435 l 399 17 b 382 0 399 4 394 0 l 351 0 "},"ŧ":{"ha":463,"x_min":0,"x_max":0,"o":"m 413 0 b 169 261 235 -1 169 44 l 169 360 l 67 360 b 54 374 58 360 54 363 l 54 392 b 67 406 54 401 57 406 l 169 406 l 169 657 l 43 657 b 28 672 32 657 28 660 l 28 696 b 43 711 28 707 32 711 l 169 711 l 169 863 b 185 878 169 874 174 878 l 214 878 b 229 863 226 878 229 874 l 229 711 l 415 711 b 431 696 426 711 431 707 l 431 672 b 415 657 431 660 426 657 l 229 657 l 229 406 l 390 406 b 403 392 400 406 403 401 l 403 374 b 390 360 403 363 400 360 l 229 360 l 229 264 b 413 57 229 88 274 57 b 429 43 425 58 429 54 l 429 17 b 413 0 429 4 425 0 "},"Ũ":{"ha":932,"x_min":0,"x_max":0,"o":"m 283 1075 b 272 1088 275 1075 272 1079 b 368 1218 272 1171 310 1218 b 554 1118 458 1218 482 1118 b 613 1206 593 1118 613 1154 b 624 1218 613 1214 615 1218 l 642 1218 b 654 1206 651 1218 654 1214 b 557 1075 654 1124 621 1075 b 374 1175 469 1075 446 1175 b 314 1088 336 1175 314 1140 b 303 1075 314 1079 310 1075 l 283 1075 m 465 -19 b 128 335 239 -19 128 119 l 128 969 b 144 986 128 982 132 986 l 175 986 b 192 969 188 986 192 982 l 192 335 b 465 40 192 156 281 40 b 739 335 651 40 739 156 l 739 969 b 756 986 739 982 743 986 l 788 986 b 804 969 800 986 804 982 l 804 335 b 465 -19 804 119 692 -19 "},"ũ":{"ha":747,"x_min":0,"x_max":0,"o":"m 190 857 b 178 869 182 857 178 861 b 275 1000 178 953 215 1000 b 461 900 365 1000 389 900 b 519 988 499 900 519 936 b 531 1000 519 996 521 1000 l 549 1000 b 560 988 557 1000 560 996 b 464 857 560 906 528 857 b 279 957 376 857 353 957 b 219 869 243 957 219 922 b 208 857 219 861 217 857 l 190 857 m 356 -19 b 114 249 188 -19 114 81 l 114 696 b 129 711 114 707 117 711 l 158 711 b 174 696 169 711 174 707 l 174 251 b 364 36 174 110 231 36 b 544 71 446 36 507 53 b 571 119 568 83 571 97 l 571 696 b 586 711 571 707 575 711 l 615 711 b 631 696 626 711 631 707 l 631 101 b 583 25 631 58 621 42 b 356 -19 538 4 471 -19 "},"Ū":{"ha":932,"x_min":0,"x_max":0,"o":"m 311 1119 b 296 1136 299 1119 296 1124 l 296 1150 b 311 1165 296 1163 300 1165 l 619 1165 b 635 1150 632 1165 635 1163 l 635 1136 b 619 1119 635 1124 632 1119 l 311 1119 m 465 -19 b 128 335 239 -19 128 119 l 128 969 b 144 986 128 982 132 986 l 175 986 b 192 969 188 986 192 982 l 192 335 b 465 40 192 156 281 40 b 739 335 651 40 739 156 l 739 969 b 756 986 739 982 743 986 l 788 986 b 804 969 800 986 804 982 l 804 335 b 465 -19 804 119 692 -19 "},"ū":{"ha":747,"x_min":0,"x_max":0,"o":"m 218 900 b 203 917 206 900 203 904 l 203 931 b 218 946 203 943 207 946 l 526 946 b 542 931 539 946 542 943 l 542 917 b 526 900 542 904 539 900 l 218 900 m 356 -19 b 114 249 188 -19 114 81 l 114 696 b 129 711 114 707 117 711 l 158 711 b 174 696 169 711 174 707 l 174 251 b 364 36 174 110 231 36 b 544 71 446 36 507 53 b 571 119 568 83 571 97 l 571 696 b 586 711 571 707 575 711 l 615 711 b 631 696 626 711 631 707 l 631 101 b 583 25 631 58 621 42 b 356 -19 538 4 471 -19 "},"Ŭ":{"ha":932,"x_min":0,"x_max":0,"o":"m 467 1060 b 279 1214 368 1060 314 1111 b 288 1231 276 1224 279 1228 l 308 1238 b 325 1231 318 1240 322 1239 b 467 1107 353 1147 390 1107 b 607 1231 542 1107 578 1143 b 621 1238 611 1239 614 1239 l 646 1231 b 654 1214 654 1228 657 1224 b 467 1060 618 1111 567 1060 m 465 -19 b 128 335 239 -19 128 119 l 128 969 b 144 986 128 982 132 986 l 175 986 b 192 969 188 986 192 982 l 192 335 b 465 40 192 156 281 40 b 739 335 651 40 739 156 l 739 969 b 756 986 739 982 743 986 l 788 986 b 804 969 800 986 804 982 l 804 335 b 465 -19 804 119 692 -19 "},"ŭ":{"ha":747,"x_min":0,"x_max":0,"o":"m 371 842 b 185 997 272 842 213 892 b 193 1014 182 1007 185 1011 l 214 1021 b 231 1013 222 1022 228 1021 b 371 889 253 928 296 889 b 513 1013 447 889 490 928 b 528 1021 515 1021 519 1022 l 550 1014 b 558 997 560 1010 563 1007 b 371 842 531 892 471 842 m 356 -19 b 114 249 188 -19 114 81 l 114 696 b 129 711 114 707 117 711 l 158 711 b 174 696 169 711 174 707 l 174 251 b 364 36 174 110 231 36 b 544 71 446 36 507 53 b 571 119 568 83 571 97 l 571 696 b 586 711 571 707 575 711 l 615 711 b 631 696 626 711 631 707 l 631 101 b 583 25 631 58 621 42 b 356 -19 538 4 471 -19 "},"Ů":{"ha":932,"x_min":0,"x_max":0,"o":"m 468 1049 b 342 1178 393 1049 342 1100 b 468 1307 342 1254 393 1307 b 590 1178 540 1307 590 1254 b 468 1049 590 1100 540 1049 m 468 1082 b 554 1178 519 1082 554 1121 b 468 1272 554 1235 519 1272 b 376 1178 413 1272 376 1235 b 468 1082 376 1121 413 1082 m 465 -19 b 128 335 239 -19 128 119 l 128 969 b 144 986 128 982 132 986 l 175 986 b 192 969 188 986 192 982 l 192 335 b 465 40 192 156 281 40 b 739 335 651 40 739 156 l 739 969 b 756 986 739 982 743 986 l 788 986 b 804 969 800 986 804 982 l 804 335 b 465 -19 804 119 692 -19 "},"ů":{"ha":747,"x_min":0,"x_max":0,"o":"m 374 799 b 247 928 299 799 247 851 b 374 1057 247 1006 299 1057 b 496 928 447 1057 496 1006 b 374 799 496 851 447 799 m 374 833 b 461 928 425 833 461 871 b 374 1022 461 985 425 1022 b 282 928 319 1022 282 985 b 374 833 282 871 319 833 m 356 -19 b 114 249 188 -19 114 81 l 114 696 b 129 711 114 707 117 711 l 158 711 b 174 696 169 711 174 707 l 174 251 b 364 36 174 110 231 36 b 544 71 446 36 507 53 b 571 119 568 83 571 97 l 571 696 b 586 711 571 707 575 711 l 615 711 b 631 696 626 711 631 707 l 631 101 b 583 25 631 58 621 42 b 356 -19 538 4 471 -19 "},"Ű":{"ha":932,"x_min":0,"x_max":0,"o":"m 301 1061 b 296 1079 290 1065 290 1071 l 419 1235 b 447 1246 426 1246 433 1250 l 467 1239 b 472 1221 478 1235 481 1229 l 333 1064 b 311 1057 325 1056 319 1054 m 514 1063 b 508 1079 503 1065 503 1072 l 638 1233 b 667 1244 646 1243 653 1249 l 688 1238 b 693 1218 699 1233 701 1226 l 546 1065 b 525 1058 539 1057 532 1054 m 465 -19 b 128 335 239 -19 128 119 l 128 969 b 144 986 128 982 132 986 l 175 986 b 192 969 188 986 192 982 l 192 335 b 465 40 192 156 281 40 b 739 335 651 40 739 156 l 739 969 b 756 986 739 982 743 986 l 788 986 b 804 969 800 986 804 982 l 804 335 b 465 -19 804 119 692 -19 "},"ű":{"ha":747,"x_min":0,"x_max":0,"o":"m 207 840 b 204 858 197 844 197 850 l 326 1014 b 354 1025 333 1025 342 1029 l 374 1018 b 379 1000 385 1014 386 1008 l 240 843 b 218 836 231 835 226 833 m 419 839 b 415 857 410 842 408 849 l 543 1011 b 571 1022 551 1021 558 1025 l 592 1015 b 597 997 603 1011 604 1004 l 451 842 b 429 835 443 833 438 832 m 356 -19 b 114 249 188 -19 114 81 l 114 696 b 129 711 114 707 117 711 l 158 711 b 174 696 169 711 174 707 l 174 251 b 364 36 174 110 231 36 b 544 71 446 36 507 53 b 571 119 568 83 571 97 l 571 696 b 586 711 571 707 575 711 l 615 711 b 631 696 626 711 631 707 l 631 101 b 583 25 631 58 621 42 b 356 -19 538 4 471 -19 "},"Ų":{"ha":932,"x_min":0,"x_max":0,"o":"m 582 -343 b 489 -278 540 -343 504 -326 b 610 8 467 -207 519 -101 b 465 -19 569 -10 522 -19 b 128 335 239 -19 128 119 l 128 969 b 144 986 128 982 132 986 l 175 986 b 192 969 188 986 192 982 l 192 335 b 465 40 192 156 281 40 b 739 335 651 40 739 156 l 739 969 b 756 986 739 982 743 986 l 788 986 b 804 969 800 986 804 982 l 804 335 b 696 54 804 213 768 115 b 542 -254 586 -69 519 -192 b 597 -296 551 -285 572 -296 b 683 -256 624 -296 663 -281 b 694 -260 688 -253 692 -253 l 703 -281 b 700 -294 706 -287 704 -290 b 582 -343 669 -326 622 -343 "},"ų":{"ha":747,"x_min":0,"x_max":0,"o":"m 535 -343 b 438 -278 493 -343 450 -326 b 547 13 419 -212 465 -92 b 356 -19 504 -4 447 -19 b 114 249 188 -19 114 81 l 114 696 b 129 711 114 707 117 711 l 158 711 b 174 696 169 711 174 707 l 174 251 b 364 36 174 110 231 36 b 544 71 446 36 507 53 b 571 119 568 83 571 97 l 571 696 b 586 711 571 707 575 711 l 615 711 b 631 696 626 711 631 707 l 631 101 b 615 47 631 75 626 60 b 489 -254 524 -72 475 -199 b 550 -296 497 -285 525 -296 b 626 -256 575 -296 606 -281 b 639 -260 632 -253 636 -253 l 647 -281 b 644 -294 650 -287 649 -290 b 535 -343 613 -326 575 -343 "},"Ŵ":{"ha":1218,"x_min":0,"x_max":0,"o":"m 424 1056 b 414 1068 408 1056 407 1061 l 575 1225 b 610 1240 590 1239 593 1240 l 615 1240 b 649 1225 629 1240 633 1240 l 808 1068 b 799 1056 815 1061 814 1056 l 774 1056 b 746 1065 760 1056 754 1056 l 611 1197 l 474 1065 b 449 1056 467 1057 463 1056 l 424 1056 m 328 0 b 304 15 314 0 307 3 l 56 969 b 67 986 51 981 54 986 l 103 986 b 124 971 118 986 122 983 l 315 224 b 342 92 325 183 335 136 l 344 92 b 375 222 353 139 365 182 l 575 949 b 597 965 578 963 585 965 l 625 965 b 649 949 638 965 646 963 l 846 221 b 875 92 857 179 865 135 l 878 92 b 904 219 886 135 894 179 l 1096 971 b 1118 986 1099 983 1103 986 l 1151 986 b 1164 969 1163 986 1167 981 l 914 17 b 892 0 911 3 904 0 l 860 0 b 836 15 847 0 840 3 l 640 747 b 611 874 629 786 621 832 l 608 874 b 578 747 600 832 589 788 l 381 17 b 358 0 379 3 371 0 l 328 0 "},"ŵ":{"ha":1001,"x_min":0,"x_max":0,"o":"m 314 836 b 306 849 299 836 297 842 l 467 1006 b 501 1021 482 1019 485 1021 l 507 1021 b 539 1006 521 1021 525 1021 l 700 849 b 690 836 706 842 706 836 l 665 836 b 638 846 651 836 646 836 l 503 978 l 365 846 b 339 836 357 838 353 836 l 314 836 m 274 -7 b 254 10 263 -7 258 -4 l 56 693 b 69 711 53 707 54 711 l 94 711 b 119 694 113 711 117 707 l 258 204 b 289 69 271 164 279 114 l 293 69 b 326 207 301 113 314 165 l 467 674 b 492 690 469 688 474 690 l 510 690 b 535 675 528 690 532 688 l 674 214 b 710 69 688 168 700 115 l 713 69 b 744 210 722 113 732 163 l 883 696 b 910 711 886 710 892 711 l 932 711 b 946 693 947 711 949 707 l 747 10 b 725 -7 743 -1 736 -7 l 697 -7 b 676 10 685 -7 679 -1 l 528 511 l 500 617 l 497 617 b 471 511 490 585 481 547 l 322 10 b 301 -7 319 -4 314 -7 l 274 -7 "},"Ŷ":{"ha":847,"x_min":0,"x_max":0,"o":"m 238 1056 b 228 1068 222 1056 221 1061 l 389 1225 b 424 1240 404 1239 407 1240 l 429 1240 b 463 1225 443 1240 447 1240 l 622 1068 b 613 1056 629 1061 628 1056 l 588 1056 b 560 1065 574 1056 568 1056 l 425 1197 l 288 1065 b 263 1056 281 1057 276 1056 l 238 1056 m 408 0 b 392 18 396 0 392 4 l 392 407 l 44 968 b 54 986 39 978 42 986 l 90 986 b 119 971 110 986 113 983 l 425 468 l 731 971 b 760 986 738 983 740 986 l 794 986 b 804 968 807 986 810 978 l 456 404 l 456 18 b 439 0 456 4 451 0 l 408 0 "},"ŷ":{"ha":751,"x_min":0,"x_max":0,"o":"m 183 836 b 175 849 168 836 167 842 l 336 1006 b 371 1021 351 1019 354 1021 l 376 1021 b 408 1006 390 1021 394 1021 l 569 849 b 560 836 575 842 575 836 l 535 836 b 507 846 521 836 515 836 l 372 978 l 235 846 b 208 836 226 838 222 836 l 183 836 m 368 -351 b 126 -196 236 -351 168 -289 b 132 -169 119 -183 119 -175 l 151 -158 b 176 -167 165 -153 171 -156 b 368 -297 211 -243 264 -297 b 571 -56 513 -297 571 -206 l 571 36 b 356 -10 528 18 464 -10 b 114 258 188 -10 114 90 l 114 696 b 129 711 114 707 117 711 l 158 711 b 174 696 169 711 174 707 l 174 261 b 364 44 174 119 231 44 b 571 92 463 44 532 75 l 571 696 b 586 711 571 707 575 711 l 615 711 b 631 696 626 711 631 707 l 631 -51 b 368 -351 631 -233 557 -351 "},"Ÿ":{"ha":847,"x_min":0,"x_max":0,"o":"m 299 1113 b 267 1143 275 1113 267 1119 l 267 1153 b 299 1185 267 1176 275 1185 l 307 1185 b 339 1153 332 1185 339 1176 l 339 1143 b 307 1113 339 1119 332 1113 l 299 1113 m 543 1113 b 510 1143 517 1113 510 1119 l 510 1153 b 543 1185 510 1176 517 1185 l 550 1185 b 583 1153 574 1185 583 1176 l 583 1143 b 550 1113 583 1119 574 1113 l 543 1113 m 408 0 b 392 18 396 0 392 4 l 392 407 l 44 968 b 54 986 39 978 42 986 l 90 986 b 119 971 110 986 113 983 l 425 468 l 731 971 b 760 986 738 983 740 986 l 794 986 b 804 968 807 986 810 978 l 456 404 l 456 18 b 439 0 456 4 451 0 l 408 0 "},"Ź":{"ha":758,"x_min":0,"x_max":0,"o":"m 299 1060 b 275 1060 288 1054 281 1054 l 267 1071 b 269 1092 260 1079 261 1086 l 461 1238 b 490 1236 471 1243 482 1246 l 506 1221 b 503 1200 514 1211 513 1206 l 299 1060 m 82 0 b 67 18 71 0 67 4 l 67 42 b 74 65 67 51 68 57 l 606 926 l 88 926 b 72 944 76 926 72 931 l 72 968 b 88 986 72 982 76 986 l 667 986 b 683 968 679 986 683 982 l 683 946 b 676 924 683 936 682 931 l 143 61 l 682 61 b 699 43 694 61 699 57 l 699 18 b 682 0 699 4 694 0 l 82 0 "},"ź":{"ha":608,"x_min":0,"x_max":0,"o":"m 218 846 b 194 847 207 840 200 840 l 186 857 b 189 878 179 867 181 872 l 381 1024 b 410 1024 390 1032 401 1035 l 425 1008 b 422 988 433 999 432 993 l 218 846 m 79 0 b 64 17 68 0 64 4 l 64 39 b 71 57 64 47 65 49 l 463 657 l 85 657 b 71 674 74 657 71 661 l 71 696 b 85 711 71 707 74 711 l 521 711 b 535 696 532 711 535 707 l 535 674 b 528 651 535 664 533 660 l 136 54 l 529 54 b 543 39 540 54 543 50 l 543 17 b 529 0 543 4 540 0 l 79 0 "},"Ż":{"ha":758,"x_min":0,"x_max":0,"o":"m 381 1106 b 349 1139 356 1106 349 1113 l 349 1146 b 381 1179 349 1172 356 1179 l 388 1179 b 421 1146 413 1179 421 1172 l 421 1139 b 388 1106 421 1114 413 1106 l 381 1106 m 82 0 b 67 18 71 0 67 4 l 67 42 b 74 65 67 51 68 57 l 606 926 l 88 926 b 72 944 76 926 72 931 l 72 968 b 88 986 72 982 76 986 l 667 986 b 683 968 679 986 683 982 l 683 946 b 676 924 683 936 682 931 l 143 61 l 682 61 b 699 43 694 61 699 57 l 699 18 b 682 0 699 4 694 0 l 82 0 "},"ż":{"ha":608,"x_min":0,"x_max":0,"o":"m 296 893 b 265 928 272 893 265 900 l 265 939 b 296 974 265 964 274 974 l 315 974 b 347 939 339 974 347 964 l 347 928 b 315 893 347 901 339 893 l 296 893 m 79 0 b 64 17 68 0 64 4 l 64 39 b 71 57 64 47 65 49 l 463 657 l 85 657 b 71 674 74 657 71 661 l 71 696 b 85 711 71 707 74 711 l 521 711 b 535 696 532 711 535 707 l 535 674 b 528 651 535 664 533 660 l 136 54 l 529 54 b 543 39 540 54 543 50 l 543 17 b 529 0 543 4 540 0 l 79 0 "},"Ž":{"ha":758,"x_min":0,"x_max":0,"o":"m 382 1054 b 347 1069 365 1054 361 1056 l 188 1226 b 196 1239 181 1233 181 1239 l 221 1239 b 247 1229 235 1239 238 1239 l 382 1097 l 519 1229 b 546 1239 526 1238 532 1239 l 572 1239 b 581 1226 588 1239 588 1233 l 419 1069 b 388 1054 403 1054 401 1054 l 382 1054 m 82 0 b 67 18 71 0 67 4 l 67 42 b 74 65 67 51 68 57 l 606 926 l 88 926 b 72 944 76 926 72 931 l 72 968 b 88 986 72 982 76 986 l 667 986 b 683 968 679 986 683 982 l 683 946 b 676 924 683 936 682 931 l 143 61 l 682 61 b 699 43 694 61 699 57 l 699 18 b 682 0 699 4 694 0 l 82 0 "},"ž":{"ha":608,"x_min":0,"x_max":0,"o":"m 303 835 b 268 850 286 835 282 836 l 108 1007 b 117 1019 101 1014 101 1019 l 142 1019 b 168 1010 156 1019 158 1019 l 303 878 l 440 1010 b 468 1019 449 1018 454 1019 l 494 1019 b 501 1007 510 1019 510 1014 l 340 850 b 308 835 324 835 322 835 l 303 835 m 79 0 b 64 17 68 0 64 4 l 64 39 b 71 57 64 47 65 49 l 463 657 l 85 657 b 71 674 74 657 71 661 l 71 696 b 85 711 71 707 74 711 l 521 711 b 535 696 532 711 535 707 l 535 674 b 528 651 535 664 533 660 l 136 54 l 529 54 b 543 39 540 54 543 50 l 543 17 b 529 0 543 4 540 0 l 79 0 "},"ſ":{"ha":333,"x_min":0,"x_max":0,"o":"m 183 0 b 168 17 171 0 168 4 l 168 657 l 49 657 b 33 672 38 657 33 660 l 33 696 b 49 711 33 707 38 711 l 168 711 l 168 760 b 404 1028 168 963 231 1028 b 419 1011 417 1028 419 1024 l 419 988 b 404 971 419 975 417 971 b 228 758 268 971 228 929 l 228 17 b 213 0 228 4 224 0 l 183 0 "},"ƒ":{"ha":638,"x_min":0,"x_max":0,"o":"m -3 -306 b -18 -289 -14 -306 -18 -301 l -18 -265 b -3 -249 -18 -253 -14 -249 b 222 -25 150 -249 207 -160 l 274 468 l 78 468 b 63 485 67 468 63 472 l 63 508 b 78 525 63 521 67 525 l 281 525 l 304 753 b 589 1028 321 918 397 1028 b 604 1011 600 1028 604 1024 l 604 988 b 589 971 604 975 600 971 b 365 750 435 971 379 885 l 342 525 l 549 525 b 564 508 560 525 564 521 l 564 485 b 549 468 564 472 560 468 l 335 468 l 283 -29 b -3 -306 267 -194 188 -306 "},"Ǻ":{"ha":867,"x_min":0,"x_max":0,"o":"m 346 1207 b 328 1210 335 1203 332 1206 l 319 1219 b 328 1236 314 1226 318 1232 l 528 1339 b 553 1335 539 1344 544 1344 l 564 1322 b 561 1307 572 1314 572 1311 l 346 1207 m 51 0 b 39 17 36 0 35 7 l 390 960 b 306 1065 338 972 306 1010 b 433 1182 306 1132 357 1182 b 557 1065 507 1182 557 1132 b 476 960 557 1010 526 972 l 826 17 b 814 0 831 7 829 0 l 786 0 b 757 15 767 0 761 3 l 646 322 l 219 322 l 107 15 b 78 0 103 3 96 0 l 51 0 m 433 982 b 521 1067 485 982 521 1014 b 433 1147 521 1111 485 1147 b 342 1067 379 1147 342 1111 b 433 982 342 1014 379 982 m 625 378 l 447 868 b 433 926 440 889 435 911 l 431 926 b 418 868 428 911 424 889 l 239 378 "},"ǻ":{"ha":694,"x_min":0,"x_max":0,"o":"m 221 1071 b 200 1076 210 1067 204 1069 l 194 1088 b 201 1107 189 1099 192 1104 l 419 1203 b 449 1196 432 1208 442 1208 l 458 1178 b 451 1158 465 1165 463 1161 l 221 1071 m 343 799 b 217 928 268 799 217 851 b 343 1057 217 1006 268 1057 b 465 928 417 1057 465 1006 b 343 799 465 851 417 799 m 343 833 b 431 928 394 833 431 871 b 343 1022 431 985 394 1022 b 251 928 289 1022 251 985 b 343 833 251 871 289 833 m 344 -19 b 78 193 158 -19 78 47 b 349 401 78 336 163 401 b 529 386 431 401 507 389 l 529 475 b 344 678 529 618 472 678 b 150 560 246 678 186 632 b 128 553 144 550 139 547 l 110 561 b 101 585 99 565 94 571 b 344 732 143 675 221 732 b 588 472 517 732 588 644 l 588 96 b 543 17 588 47 578 33 b 344 -19 497 -6 435 -19 m 340 31 b 500 60 411 31 460 40 b 529 110 524 69 529 76 l 529 336 b 344 353 504 340 425 353 b 138 193 203 353 138 301 b 340 31 138 82 201 31 "},"Ǽ":{"ha":1124,"x_min":0,"x_max":0,"o":"m 713 1060 b 689 1060 701 1054 694 1054 l 681 1071 b 683 1092 674 1079 675 1086 l 875 1238 b 904 1236 885 1243 896 1246 l 919 1221 b 917 1200 928 1211 926 1206 l 713 1060 m 29 0 b 18 17 15 0 13 7 l 567 969 b 590 986 575 983 578 986 l 1011 986 b 1028 968 1024 986 1028 982 l 1028 943 b 1011 926 1028 931 1024 926 l 644 926 l 644 529 l 953 529 b 969 511 965 529 969 525 l 969 486 b 953 469 969 474 965 469 l 644 469 l 644 60 l 1029 60 b 1046 43 1042 60 1046 56 l 1046 18 b 1029 0 1046 4 1042 0 l 597 0 b 581 18 585 0 581 4 l 581 260 l 228 260 l 90 15 b 60 0 85 4 81 0 l 29 0 m 581 314 l 582 886 l 261 314 "},"ǽ":{"ha":1063,"x_min":0,"x_max":0,"o":"m 439 846 b 415 847 428 840 421 840 l 407 857 b 410 878 400 867 401 872 l 601 1024 b 631 1024 611 1032 622 1035 l 646 1008 b 643 988 654 999 653 993 l 439 846 m 328 -19 b 78 189 149 -19 78 40 b 333 400 78 340 151 400 b 493 383 400 400 468 389 l 493 469 b 328 678 493 583 472 678 b 149 563 242 678 186 636 b 128 556 143 553 140 550 l 108 563 b 100 586 97 567 93 572 b 329 732 146 678 215 732 b 525 588 454 732 504 671 b 735 732 556 681 622 732 b 979 447 914 732 979 617 l 979 374 b 949 343 979 354 969 343 l 550 343 l 550 247 b 731 32 550 115 600 32 b 921 165 842 32 879 85 b 944 172 928 176 933 178 l 961 163 b 967 138 972 156 974 149 b 731 -19 922 47 872 -19 b 542 79 633 -19 574 15 b 328 -19 513 31 461 -19 m 921 392 l 921 451 b 735 679 921 592 872 679 b 550 451 597 679 550 592 l 550 392 m 325 31 b 504 131 463 31 493 104 b 493 235 496 161 493 196 l 493 333 b 329 350 465 338 394 350 b 136 189 188 350 136 301 b 325 31 136 78 186 31 "},"Ǿ":{"ha":904,"x_min":0,"x_max":0,"o":"m 371 1074 b 347 1074 360 1068 353 1068 l 339 1085 b 342 1106 332 1093 333 1100 l 533 1251 b 563 1250 543 1257 554 1260 l 578 1235 b 575 1214 586 1225 585 1219 l 371 1074 m 114 -60 b 110 -53 107 -60 107 -57 l 186 79 b 106 324 133 139 106 222 l 106 663 b 453 1006 106 875 226 1006 b 686 932 551 1006 629 981 l 746 1035 b 760 1040 750 1040 751 1040 l 796 1040 b 800 1033 800 1040 801 1038 l 722 901 b 799 663 772 842 799 761 l 799 324 b 453 -19 799 111 678 -19 b 224 49 357 -19 281 6 l 164 -53 b 149 -60 160 -60 160 -60 l 114 -60 m 654 878 b 453 946 607 922 540 946 b 171 661 269 946 171 839 l 171 331 b 228 149 171 256 189 194 m 453 40 b 735 325 636 40 735 147 l 735 661 b 683 833 735 732 717 790 l 256 104 b 453 40 301 63 369 40 "},"ǿ":{"ha":735,"x_min":0,"x_max":0,"o":"m 281 846 b 257 847 269 840 263 840 l 249 857 b 251 878 242 867 243 872 l 443 1024 b 472 1024 453 1032 464 1035 l 488 1008 b 485 988 496 999 494 993 l 281 846 m 113 -51 b 110 -43 108 -51 108 -46 l 165 50 b 97 224 121 92 97 151 l 97 488 b 367 732 97 639 203 732 b 542 682 438 732 497 714 l 588 758 b 600 764 592 764 594 764 l 628 764 b 632 757 633 764 633 763 l 574 658 b 638 488 614 617 638 558 l 638 224 b 367 -19 638 72 533 -19 b 197 26 299 -19 240 -4 l 156 -44 b 140 -51 151 -50 150 -51 l 113 -51 m 513 632 b 367 676 476 661 426 676 b 157 489 242 676 157 606 l 157 231 b 201 113 157 183 174 143 m 367 35 b 578 224 494 35 578 107 l 578 478 b 536 594 578 525 563 565 l 226 76 b 367 35 261 50 311 35 "},"Ș":{"ha":853,"x_min":0,"x_max":0,"o":"m 426 -19 b 81 219 250 -19 140 53 b 90 243 76 232 78 239 l 119 253 b 142 243 132 257 136 256 b 426 42 196 100 286 42 b 701 261 608 42 701 114 b 431 464 701 425 569 447 b 97 732 274 485 97 517 b 421 1006 97 900 217 1006 b 756 793 593 1006 689 940 b 747 769 763 782 760 774 l 719 760 b 697 767 708 754 704 756 b 421 944 642 890 560 944 b 163 733 257 944 163 867 b 447 525 163 569 301 543 b 767 260 601 506 767 472 b 426 -19 767 79 650 -19 m 383 -351 b 371 -337 372 -351 369 -347 l 426 -135 b 447 -118 428 -121 433 -118 l 472 -118 b 488 -136 488 -118 492 -124 l 422 -335 b 401 -351 418 -347 414 -351 l 383 -351 "},"ș":{"ha":672,"x_min":0,"x_max":0,"o":"m 342 -19 b 76 154 210 -19 119 26 b 85 176 72 167 74 174 l 111 185 b 132 175 124 189 128 188 b 342 33 167 71 240 33 b 533 181 474 33 533 90 b 343 328 533 296 456 317 b 90 532 213 342 90 360 b 333 731 90 657 178 731 b 581 581 476 731 547 674 b 575 557 586 568 585 561 l 553 549 b 531 556 539 543 536 546 b 333 678 503 631 451 678 b 150 532 215 678 150 625 b 354 381 150 403 239 393 b 593 182 486 368 593 335 b 342 -19 593 58 511 -19 m 267 -342 b 254 -328 256 -342 253 -337 l 310 -125 b 331 -108 311 -111 317 -108 l 356 -108 b 371 -126 371 -108 375 -114 l 306 -325 b 285 -342 301 -337 297 -342 l 267 -342 "},"ț":{"ha":463,"x_min":0,"x_max":0,"o":"m 413 0 b 169 261 235 -1 169 44 l 169 657 l 43 657 b 28 672 32 657 28 660 l 28 696 b 43 711 28 707 32 711 l 169 711 l 169 863 b 185 878 169 874 174 878 l 214 878 b 229 863 226 878 229 874 l 229 711 l 415 711 b 431 696 426 711 431 707 l 431 672 b 415 657 431 660 426 657 l 229 657 l 229 264 b 413 57 229 88 274 57 b 429 43 425 58 429 54 l 429 17 b 413 0 429 4 425 0 m 242 -342 b 229 -328 231 -342 228 -337 l 285 -125 b 306 -108 286 -111 292 -108 l 331 -108 b 346 -126 346 -108 350 -114 l 281 -325 b 260 -342 276 -337 272 -342 l 242 -342 "},"ȷ":{"ha":297,"x_min":0,"x_max":0,"o":"m -46 -319 b -61 -303 -57 -319 -61 -315 l -61 -279 b -46 -262 -61 -267 -57 -262 b 119 -15 115 -262 119 -174 l 119 696 b 133 711 119 707 122 711 l 164 711 b 179 696 175 711 179 707 l 179 -17 b -46 -319 179 -211 163 -319 "},"ˆ":{"ha":514,"x_min":0,"x_max":0,"o":"m 67 814 b 58 828 51 814 50 821 l 219 985 b 254 1000 235 999 238 1000 l 260 1000 b 292 985 274 1000 278 999 l 453 828 b 443 814 458 821 458 814 l 418 814 b 390 824 404 814 399 815 l 256 957 l 118 824 b 92 814 110 815 106 814 l 67 814 "},"ˇ":{"ha":504,"x_min":0,"x_max":0,"o":"m 251 814 b 217 829 235 814 231 814 l 57 985 b 65 999 50 992 50 999 l 90 999 b 117 989 104 999 107 999 l 251 856 l 389 989 b 417 999 397 997 403 999 l 443 999 b 450 985 458 999 458 992 l 289 829 b 257 814 272 814 271 814 l 251 814 "},"˘":{"ha":400,"x_min":0,"x_max":0,"o":"m 192 821 b 6 975 93 821 33 871 b 14 993 3 986 6 989 l 35 1000 b 51 992 43 1001 49 1000 b 192 868 74 907 117 868 b 333 992 268 868 311 907 b 349 1000 336 1000 340 1001 l 371 993 b 379 975 381 989 383 986 b 192 821 351 871 292 821 "},"˙":{"ha":343,"x_min":0,"x_max":0,"o":"m 168 867 b 136 900 143 867 136 874 l 136 907 b 168 940 136 932 143 940 l 175 940 b 208 907 200 940 208 932 l 208 900 b 175 867 208 875 200 867 l 168 867 "},"˚":{"ha":356,"x_min":0,"x_max":0,"o":"m 181 763 b 54 892 106 763 54 815 b 181 1021 54 969 106 1021 b 303 892 254 1021 303 969 b 181 763 303 815 254 763 m 181 797 b 268 892 232 797 268 835 b 181 986 268 949 232 986 b 89 892 126 986 89 949 b 181 797 89 835 126 797 "},"˛":{"ha":393,"x_min":0,"x_max":0,"o":"m 194 -343 b 103 -278 153 -343 117 -326 b 235 0 79 -206 136 -107 l 282 0 b 154 -254 190 -103 135 -199 b 210 -296 165 -285 186 -296 b 283 -256 236 -296 263 -281 b 294 -260 289 -253 293 -253 l 303 -281 b 301 -294 306 -287 306 -290 b 194 -343 269 -326 236 -343 "},"˜":{"ha":425,"x_min":0,"x_max":0,"o":"m 33 836 b 21 847 25 836 21 840 b 118 978 21 931 58 978 b 304 878 208 978 232 878 b 363 967 342 878 363 915 b 374 978 363 975 364 978 l 392 978 b 403 967 400 978 403 975 b 307 836 403 885 371 836 b 122 936 219 836 196 936 b 63 847 86 936 63 901 b 51 836 63 840 60 836 l 33 836 "},"˝":{"ha":550,"x_min":0,"x_max":0,"o":"m 107 817 b 104 835 97 821 97 826 l 226 990 b 254 1001 233 1001 242 1006 l 274 994 b 279 976 285 992 286 985 l 140 819 b 118 813 131 813 126 810 m 319 815 b 315 833 310 819 308 825 l 443 988 b 471 999 451 999 458 1003 l 492 992 b 497 974 503 988 504 981 l 351 818 b 329 811 343 810 338 808 "},"̀":{"ha":0,"x_min":0,"x_max":0,"o":"m -319 986 b -321 1006 -329 992 -329 997 l -307 1022 b -276 1024 -297 1033 -287 1031 l -86 876 b -83 856 -78 872 -75 865 l -92 846 b -114 846 -97 839 -104 839 "},"́":{"ha":0,"x_min":0,"x_max":0,"o":"m -262 846 b -286 847 -274 840 -281 840 l -294 857 b -292 878 -301 867 -300 872 l -100 1024 b -71 1024 -90 1032 -79 1035 l -56 1008 b -58 988 -47 999 -49 993 l -262 846 "},"̂":{"ha":0,"x_min":0,"x_max":0,"o":"m -447 836 b -456 849 -462 836 -464 842 l -294 1006 b -260 1021 -279 1019 -276 1021 l -254 1021 b -222 1006 -240 1021 -236 1021 l -61 849 b -71 836 -56 842 -56 836 l -96 836 b -124 846 -110 836 -115 836 l -258 978 l -396 846 b -422 836 -404 838 -408 836 l -447 836 "},"̃":{"ha":0,"x_min":0,"x_max":0,"o":"m -392 857 b -404 869 -400 857 -404 861 b -307 1000 -404 953 -367 1000 b -121 900 -217 1000 -193 900 b -62 988 -83 900 -62 936 b -51 1000 -62 996 -61 1000 l -33 1000 b -22 988 -25 1000 -22 996 b -118 857 -22 906 -54 857 b -303 957 -206 857 -229 957 b -362 869 -339 957 -362 922 b -374 857 -362 861 -365 857 l -392 857 "},"̄":{"ha":0,"x_min":0,"x_max":0,"o":"m -422 900 b -437 917 -435 900 -437 904 l -437 931 b -422 946 -437 943 -433 946 l -114 946 b -99 931 -101 946 -99 943 l -99 917 b -114 900 -99 904 -101 900 l -422 900 "},"̆":{"ha":0,"x_min":0,"x_max":0,"o":"m -208 842 b -394 997 -307 842 -367 892 b -386 1014 -397 1007 -394 1011 l -365 1021 b -349 1013 -357 1022 -351 1021 b -208 889 -326 928 -283 889 b -67 1013 -132 889 -89 928 b -51 1021 -64 1021 -60 1022 l -29 1014 b -21 997 -19 1010 -17 1007 b -208 842 -49 892 -108 842 "},"̇":{"ha":0,"x_min":0,"x_max":0,"o":"m -181 893 b -211 928 -204 893 -211 900 l -211 939 b -181 974 -211 964 -203 974 l -161 974 b -129 939 -137 974 -129 964 l -129 928 b -161 893 -129 901 -137 893 l -181 893 "},"̈":{"ha":0,"x_min":0,"x_max":0,"o":"m -454 894 b -490 929 -481 894 -490 901 l -490 938 b -454 972 -490 964 -482 972 l -449 972 b -412 938 -421 972 -412 964 l -412 929 b -449 894 -412 903 -421 894 l -454 894 m -203 894 b -239 929 -228 894 -239 901 l -239 938 b -203 972 -239 964 -229 972 l -196 972 b -160 938 -169 972 -160 964 l -160 929 b -196 894 -160 903 -169 894 l -203 894 "},"̊":{"ha":0,"x_min":0,"x_max":0,"o":"m -175 799 b -301 928 -250 799 -301 851 b -175 1057 -301 1006 -250 1057 b -53 928 -101 1057 -53 1006 b -175 799 -53 851 -101 799 m -175 833 b -87 928 -124 833 -87 871 b -175 1022 -87 985 -124 1022 b -267 928 -229 1022 -267 985 b -175 833 -267 871 -229 833 "},"̋":{"ha":0,"x_min":0,"x_max":0,"o":"m -443 840 b -446 858 -453 844 -453 850 l -324 1014 b -296 1025 -317 1025 -308 1029 l -276 1018 b -271 1000 -265 1014 -264 1008 l -410 843 b -432 836 -419 835 -424 833 m -231 839 b -235 857 -240 842 -242 849 l -107 1011 b -79 1022 -99 1021 -92 1025 l -58 1015 b -53 997 -47 1011 -46 1004 l -199 842 b -221 835 -207 833 -212 832 "},"̌":{"ha":0,"x_min":0,"x_max":0,"o":"m -253 835 b -287 850 -269 835 -274 836 l -447 1007 b -439 1019 -454 1014 -454 1019 l -414 1019 b -387 1010 -400 1019 -397 1019 l -253 878 l -115 1010 b -87 1019 -107 1018 -101 1019 l -61 1019 b -54 1007 -46 1019 -46 1014 l -215 850 b -247 835 -232 835 -233 835 l -253 835 "},"̧":{"ha":0,"x_min":0,"x_max":0,"o":"m -185 -339 b -281 -310 -226 -339 -261 -322 b -292 -287 -289 -304 -292 -299 l -292 -269 b -282 -262 -292 -262 -289 -258 b -192 -300 -262 -281 -237 -300 b -94 -211 -131 -300 -94 -272 b -176 -140 -94 -165 -129 -140 b -219 -149 -193 -140 -208 -143 b -233 -131 -231 -150 -236 -143 l -192 0 l -151 0 l -183 -111 b -150 -106 -175 -108 -162 -106 b -42 -214 -87 -106 -39 -149 b -185 -339 -44 -303 -103 -339 "},"̨":{"ha":0,"x_min":0,"x_max":0,"o":"m -199 -343 b -290 -278 -240 -343 -276 -326 b -158 0 -314 -206 -257 -107 l -111 0 b -239 -254 -203 -103 -258 -199 b -183 -296 -228 -285 -207 -296 b -110 -256 -157 -296 -131 -281 b -99 -260 -104 -253 -100 -253 l -90 -281 b -92 -294 -87 -287 -87 -290 b -199 -343 -124 -326 -157 -343 "},"π":{"ha":828,"x_min":0,"x_max":0,"o":"m 682 -1 b 660 8 671 -7 665 -4 b 618 203 625 69 618 119 l 618 657 l 271 657 l 271 17 b 256 0 271 4 267 0 l 226 0 b 211 17 215 0 211 4 l 211 657 b 69 611 151 656 121 643 b 47 617 58 607 53 606 l 36 639 b 43 661 32 649 33 656 b 236 711 106 700 157 711 l 767 711 b 782 696 778 711 782 707 l 782 674 b 767 657 782 661 778 657 l 678 657 l 678 200 b 714 35 678 126 682 86 b 707 10 719 22 718 15 l 682 -1 "},"Ё":{"ha":779,"x_min":0,"x_max":0,"o":"m 285 1113 b 253 1143 261 1113 253 1119 l 253 1153 b 285 1185 253 1176 261 1185 l 293 1185 b 325 1153 318 1185 325 1176 l 325 1143 b 293 1113 325 1119 318 1113 l 285 1113 m 529 1113 b 496 1143 503 1113 496 1119 l 496 1153 b 529 1185 496 1176 503 1185 l 536 1185 b 569 1153 560 1185 569 1176 l 569 1143 b 536 1113 569 1119 560 1113 l 529 1113 m 153 0 b 136 18 140 0 136 4 l 136 968 b 153 986 136 982 140 986 l 668 986 b 685 968 681 986 685 982 l 685 943 b 668 926 685 931 681 926 l 200 926 l 200 531 l 613 531 b 629 513 625 531 629 525 l 629 488 b 613 469 629 474 625 469 l 200 469 l 200 60 l 685 60 b 701 43 697 60 701 56 l 701 18 b 685 0 701 4 697 0 l 153 0 "},"А":{"ha":867,"x_min":0,"x_max":0,"o":"m 51 0 b 39 17 36 0 35 7 l 394 976 b 418 993 399 989 404 993 l 449 993 b 471 976 461 993 467 989 l 826 17 b 814 0 831 7 829 0 l 786 0 b 757 15 767 0 761 3 l 646 322 l 219 322 l 107 15 b 78 0 103 3 96 0 l 51 0 m 625 378 l 447 868 b 433 926 440 889 435 911 l 429 926 b 418 868 428 911 424 889 l 239 378 "},"Б":{"ha":856,"x_min":0,"x_max":0,"o":"m 151 0 b 136 17 140 0 136 4 l 136 968 b 153 986 136 982 140 986 l 703 986 b 719 968 715 986 719 982 l 719 943 b 703 926 719 931 715 926 l 200 926 l 200 550 l 517 550 b 785 276 679 550 785 453 b 517 0 785 101 679 0 l 151 0 m 513 60 b 721 276 638 60 721 138 b 513 494 721 415 638 494 l 200 494 l 200 60 "},"В":{"ha":876,"x_min":0,"x_max":0,"o":"m 153 0 b 136 18 140 0 136 4 l 136 968 b 153 986 136 982 140 986 l 504 986 b 756 736 656 986 756 897 b 621 510 756 618 707 543 l 621 507 b 788 263 725 481 788 399 b 524 0 788 93 683 0 l 153 0 m 506 531 b 693 731 622 531 693 599 b 501 926 693 861 619 926 l 200 926 l 200 531 m 521 60 b 724 268 643 60 724 132 b 526 475 724 404 647 475 l 200 475 l 200 60 "},"Г":{"ha":694,"x_min":0,"x_max":0,"o":"m 151 0 b 136 18 140 0 136 4 l 136 968 b 151 986 136 982 140 986 l 633 986 b 649 968 644 986 649 982 l 649 944 b 633 926 649 931 644 926 l 200 926 l 200 18 b 183 0 200 4 196 0 l 151 0 "},"Д":{"ha":953,"x_min":0,"x_max":0,"o":"m 57 -212 b 40 -194 44 -212 40 -208 l 40 43 b 57 60 40 56 44 60 l 111 60 b 251 689 172 106 251 189 l 251 968 b 268 986 251 982 256 986 l 781 986 b 797 968 793 986 797 982 l 797 60 l 883 60 b 900 43 896 60 900 56 l 900 -194 b 883 -212 900 -208 896 -212 l 854 -212 b 838 -194 842 -212 838 -208 l 838 0 l 103 0 l 103 -194 b 86 -212 103 -208 99 -212 l 57 -212 m 733 60 l 733 926 l 313 926 l 313 689 b 185 60 313 235 244 119 "},"Е":{"ha":779,"x_min":0,"x_max":0,"o":"m 153 0 b 136 18 140 0 136 4 l 136 968 b 153 986 136 982 140 986 l 668 986 b 685 968 681 986 685 982 l 685 943 b 668 926 685 931 681 926 l 200 926 l 200 531 l 613 531 b 629 513 625 531 629 525 l 629 488 b 613 469 629 474 625 469 l 200 469 l 200 60 l 685 60 b 701 43 697 60 701 56 l 701 18 b 685 0 701 4 697 0 l 153 0 "},"Ж":{"ha":1236,"x_min":0,"x_max":0,"o":"m 61 0 b 51 18 49 0 46 8 l 217 364 b 356 507 251 438 292 485 l 65 968 b 75 986 58 978 61 986 l 106 986 b 140 971 126 986 133 985 l 418 526 b 476 529 435 529 454 529 l 586 529 l 586 968 b 603 986 586 982 590 986 l 633 986 b 650 968 646 986 650 982 l 650 529 l 761 529 b 819 526 782 529 801 529 l 1096 971 b 1131 986 1103 985 1110 986 l 1161 986 b 1171 968 1175 986 1176 978 l 881 507 b 1021 364 946 485 985 438 l 1185 18 b 1175 0 1190 8 1189 0 l 1147 0 b 1114 15 1126 0 1121 3 l 963 339 b 763 471 918 431 869 471 l 650 471 l 650 18 b 633 0 650 4 646 0 l 603 0 b 586 18 590 0 586 4 l 586 471 l 475 471 b 275 339 367 471 318 431 l 122 15 b 90 0 117 3 111 0 l 61 0 "},"З":{"ha":839,"x_min":0,"x_max":0,"o":"m 429 -19 b 79 228 217 -19 122 69 b 90 250 75 240 78 247 l 117 260 b 139 249 129 264 135 261 b 429 40 172 111 253 40 b 683 269 604 40 683 129 b 494 476 683 392 618 476 l 264 476 b 247 493 251 476 247 481 l 247 517 b 264 535 247 531 251 535 l 493 535 b 658 728 611 535 658 625 b 425 946 658 868 578 946 b 146 744 258 946 185 885 b 124 733 140 732 136 729 l 99 742 b 88 765 86 746 83 751 b 426 1006 132 922 222 1006 b 722 732 619 1006 722 904 b 600 508 722 635 686 544 b 750 267 703 474 750 385 b 429 -19 750 90 647 -19 "},"И":{"ha":947,"x_min":0,"x_max":0,"o":"m 154 0 b 138 18 142 0 138 4 l 136 968 b 151 986 136 982 139 986 l 185 986 b 200 968 197 986 200 982 l 201 375 b 194 93 201 278 201 190 l 199 93 b 343 346 246 182 290 260 l 739 976 b 756 986 743 982 747 986 l 792 986 b 810 968 804 986 810 982 l 811 18 b 794 0 811 4 807 0 l 763 0 b 747 18 751 0 747 4 l 746 631 b 754 893 746 721 749 804 l 750 893 b 615 658 704 808 663 736 l 207 11 b 189 0 201 1 197 0 l 154 0 "},"Й":{"ha":904,"x_min":0,"x_max":0,"o":"m 485 1090 b 289 1242 382 1090 318 1139 b 297 1258 285 1251 288 1256 l 319 1265 b 338 1258 328 1268 333 1267 b 485 1136 360 1175 406 1136 b 635 1258 565 1136 611 1175 b 650 1267 638 1267 642 1268 l 674 1258 b 683 1242 683 1256 686 1251 b 485 1090 653 1139 590 1090 m 154 0 b 138 18 142 0 138 4 l 136 968 b 151 986 136 982 139 986 l 185 986 b 200 968 197 986 200 982 l 201 375 b 194 93 201 278 201 190 l 199 93 b 343 346 246 182 290 260 l 739 976 b 756 986 743 982 747 986 l 792 986 b 810 968 804 986 810 982 l 811 18 b 794 0 811 4 807 0 l 763 0 b 747 18 751 0 747 4 l 746 631 b 754 893 746 721 749 804 l 750 893 b 615 658 704 808 663 736 l 207 11 b 189 0 201 1 197 0 l 154 0 "},"К":{"ha":821,"x_min":0,"x_max":0,"o":"m 153 0 b 136 18 140 0 136 4 l 136 968 b 153 986 136 982 140 986 l 183 986 b 200 968 196 986 200 982 l 200 529 l 363 529 l 394 529 l 683 971 b 714 986 692 983 696 986 l 749 986 b 758 968 761 986 764 978 l 457 517 b 611 364 531 497 572 447 l 771 18 b 760 0 776 8 774 0 l 729 0 b 701 15 711 0 707 3 l 554 339 b 367 471 513 431 468 471 l 200 471 l 200 18 b 183 0 200 4 196 0 l 153 0 "},"Л":{"ha":883,"x_min":0,"x_max":0,"o":"m 68 -17 b 44 -10 57 -22 51 -21 l 29 17 b 38 40 22 29 25 35 b 211 642 151 103 210 132 l 211 968 b 228 986 211 982 215 986 l 732 986 b 749 968 744 986 749 982 l 749 18 b 732 0 749 4 744 0 l 700 0 b 683 18 688 0 683 4 l 683 926 l 274 926 l 274 642 b 68 -17 274 93 190 46 "},"М":{"ha":1093,"x_min":0,"x_max":0,"o":"m 153 0 b 136 18 140 0 136 4 l 136 968 b 153 986 136 982 140 986 l 179 986 b 206 971 193 986 200 982 l 547 310 l 886 969 b 911 986 893 982 896 986 l 940 986 b 957 968 953 986 957 982 l 957 18 b 940 0 957 4 953 0 l 911 0 b 894 18 899 0 894 4 l 894 654 b 903 886 894 728 896 804 l 900 886 b 806 689 868 815 839 753 l 579 251 b 558 236 574 240 568 236 l 538 236 b 515 251 526 236 521 239 l 285 694 b 193 888 251 757 224 817 l 189 888 b 197 654 196 804 197 731 l 197 18 b 181 0 197 4 193 0 l 153 0 "},"Н":{"ha":931,"x_min":0,"x_max":0,"o":"m 153 0 b 136 18 140 0 136 4 l 136 968 b 153 986 136 982 140 986 l 183 986 b 200 968 196 986 200 982 l 200 531 l 731 531 l 731 968 b 747 986 731 982 735 986 l 779 986 b 796 968 792 986 796 982 l 796 18 b 779 0 796 4 792 0 l 747 0 b 731 18 735 0 731 4 l 731 469 l 200 469 l 200 18 b 183 0 200 4 196 0 l 153 0 "},"О":{"ha":904,"x_min":0,"x_max":0,"o":"m 453 -19 b 106 324 226 -19 106 111 l 106 663 b 453 1006 106 875 226 1006 b 799 663 678 1006 799 875 l 799 324 b 453 -19 799 111 678 -19 m 453 40 b 735 325 636 40 735 147 l 735 661 b 453 946 735 839 636 946 b 171 661 269 946 171 839 l 171 325 b 453 40 171 147 269 40 "},"П":{"ha":922,"x_min":0,"x_max":0,"o":"m 153 0 b 136 18 140 0 136 4 l 136 968 b 153 986 136 982 140 986 l 769 986 b 786 968 782 986 786 982 l 786 18 b 769 0 786 4 782 0 l 738 0 b 722 18 726 0 722 4 l 722 926 l 200 926 l 200 18 b 183 0 200 4 196 0 l 153 0 "},"Р":{"ha":846,"x_min":0,"x_max":0,"o":"m 153 0 b 136 18 140 0 136 4 l 136 968 b 153 986 136 982 140 986 l 494 986 b 779 683 668 986 779 874 b 494 383 779 496 669 383 l 200 383 l 200 18 b 183 0 200 4 196 0 l 153 0 m 492 444 b 714 683 628 444 714 532 b 492 926 714 836 628 926 l 200 926 l 200 444 "},"С":{"ha":868,"x_min":0,"x_max":0,"o":"m 451 -19 b 106 324 229 -19 106 111 l 106 664 b 451 1006 106 875 225 1006 b 789 764 651 1006 746 922 b 779 742 794 750 790 744 l 751 733 b 729 743 739 729 733 731 b 453 946 692 881 617 946 b 171 665 265 946 171 839 l 171 322 b 451 42 171 149 267 42 b 731 249 619 42 692 115 b 753 261 735 263 740 265 l 782 251 b 793 228 793 247 797 242 b 451 -19 744 71 656 -19 "},"Т":{"ha":733,"x_min":0,"x_max":0,"o":"m 351 0 b 335 17 339 0 335 4 l 335 926 l 56 926 b 39 943 43 926 39 931 l 39 968 b 56 986 39 982 43 986 l 678 986 b 694 968 690 986 694 982 l 694 943 b 678 926 694 931 690 926 l 399 926 l 399 17 b 382 0 399 4 394 0 l 351 0 "},"У":{"ha":796,"x_min":0,"x_max":0,"o":"m 251 0 b 242 18 239 0 236 7 l 365 279 l 32 968 b 43 986 28 978 29 986 l 74 986 b 103 971 92 986 97 985 l 399 347 l 693 971 b 718 986 699 983 700 986 l 751 986 b 760 968 764 986 764 978 l 314 15 b 285 0 307 3 303 0 l 251 0 "},"Ф":{"ha":1129,"x_min":0,"x_max":0,"o":"m 549 -28 b 532 -11 536 -28 532 -24 l 532 90 l 444 90 b 92 443 215 90 92 224 l 92 550 b 444 903 92 769 215 903 l 532 903 l 532 1003 b 549 1021 532 1017 536 1021 l 579 1021 b 596 1003 592 1021 596 1017 l 596 903 l 685 903 b 1038 550 914 903 1038 769 l 1038 443 b 685 90 1038 224 914 90 l 596 90 l 596 -11 b 579 -28 596 -24 592 -28 l 549 -28 m 532 149 l 532 844 l 444 844 b 156 551 254 844 156 735 l 156 442 b 444 149 156 258 254 149 m 683 149 b 974 442 875 149 974 258 l 974 551 b 683 844 974 735 875 844 l 596 844 l 596 149 "},"Х":{"ha":825,"x_min":0,"x_max":0,"o":"m 53 0 b 46 21 39 0 39 10 l 369 501 l 54 969 b 63 986 49 978 51 986 l 100 986 b 131 971 118 986 122 985 l 413 551 l 693 971 b 722 986 700 985 704 986 l 761 986 b 771 969 772 986 775 978 l 453 503 l 779 21 b 771 0 786 10 785 0 l 733 0 b 704 15 715 0 713 1 l 411 453 l 121 15 b 93 0 114 1 108 0 l 53 0 "},"Ц":{"ha":944,"x_min":0,"x_max":0,"o":"m 847 -212 b 831 -194 833 -212 831 -208 l 831 0 l 153 0 b 136 18 140 0 136 4 l 136 968 b 153 986 136 982 140 986 l 182 986 b 200 968 196 986 200 982 l 200 60 l 725 60 l 725 968 b 742 986 725 982 729 986 l 771 986 b 789 968 785 986 789 982 l 789 60 l 875 60 b 892 43 889 60 892 56 l 892 -194 b 875 -212 892 -208 889 -212 l 847 -212 "},"Ч":{"ha":853,"x_min":0,"x_max":0,"o":"m 669 0 b 653 18 657 0 653 4 l 653 410 b 399 376 611 399 528 376 b 81 718 164 376 81 501 l 81 968 b 96 986 81 982 83 986 l 128 986 b 144 968 140 986 144 982 l 144 718 b 404 438 144 532 208 438 b 653 472 529 438 613 461 l 653 968 b 669 986 653 982 657 986 l 700 986 b 717 968 713 986 717 982 l 717 18 b 700 0 717 4 713 0 l 669 0 "},"Ш":{"ha":1243,"x_min":0,"x_max":0,"o":"m 153 0 b 136 18 140 0 136 4 l 136 968 b 153 986 136 982 140 986 l 182 986 b 200 968 194 986 200 982 l 200 60 l 590 60 l 590 968 b 607 986 590 982 594 986 l 638 986 b 654 968 650 986 654 982 l 654 60 l 1043 60 l 1043 968 b 1061 986 1043 982 1049 986 l 1092 986 b 1108 968 1104 986 1108 982 l 1108 18 b 1092 0 1108 4 1104 0 l 153 0 "},"Щ":{"ha":1272,"x_min":0,"x_max":0,"o":"m 1175 -212 b 1158 -194 1163 -212 1158 -208 l 1158 0 l 153 0 b 136 18 140 0 136 4 l 136 968 b 153 986 136 982 140 986 l 183 986 b 200 968 196 986 200 982 l 200 60 l 593 60 l 593 968 b 610 986 593 982 597 986 l 640 986 b 657 968 653 986 657 982 l 657 60 l 1050 60 l 1050 968 b 1067 986 1050 982 1054 986 l 1097 986 b 1114 968 1110 986 1114 982 l 1114 60 l 1203 60 b 1219 43 1215 60 1219 56 l 1219 -194 b 1203 -212 1219 -208 1215 -212 l 1175 -212 "},"Ъ":{"ha":988,"x_min":0,"x_max":0,"o":"m 279 0 b 263 18 268 0 263 4 l 263 926 l 56 926 b 39 943 43 926 39 931 l 39 968 b 56 986 39 982 43 986 l 311 986 b 328 968 324 986 328 982 l 328 603 l 631 603 b 919 303 808 603 919 490 b 631 0 919 113 808 0 l 279 0 m 628 60 b 856 303 769 60 856 150 b 628 542 856 454 769 542 l 328 542 l 328 60 "},"Ы":{"ha":1156,"x_min":0,"x_max":0,"o":"m 153 0 b 136 18 140 0 136 4 l 136 968 b 153 986 136 982 140 986 l 183 986 b 200 968 196 986 200 982 l 200 601 l 499 601 b 783 303 674 601 783 492 b 499 0 783 114 672 0 l 153 0 m 971 0 b 956 18 958 0 956 4 l 956 968 b 971 986 956 982 958 986 l 1003 986 b 1019 968 1015 986 1019 982 l 1019 18 b 1003 0 1019 4 1015 0 l 971 0 m 496 60 b 718 303 633 60 718 150 b 496 543 718 454 633 543 l 200 543 l 200 60 "},"Ь":{"ha":846,"x_min":0,"x_max":0,"o":"m 153 0 b 136 18 140 0 136 4 l 136 968 b 153 986 136 982 140 986 l 183 986 b 200 968 196 986 200 982 l 200 603 l 496 603 b 779 303 669 603 779 490 b 496 0 779 113 669 0 l 153 0 m 493 60 b 714 303 629 60 714 150 b 493 542 714 454 629 542 l 200 542 l 200 60 "},"Э":{"ha":874,"x_min":0,"x_max":0,"o":"m 422 -19 b 82 228 218 -19 124 69 b 93 250 78 240 81 247 l 119 260 b 142 249 132 264 138 261 b 422 40 179 111 256 40 b 704 321 607 40 704 147 l 704 469 l 292 469 b 275 486 279 469 275 474 l 275 511 b 292 529 275 525 279 529 l 704 529 l 704 667 b 422 946 704 840 610 946 b 144 744 260 946 182 882 b 122 733 139 732 133 731 l 96 742 b 85 765 85 746 81 751 b 422 1006 129 922 225 1006 b 768 665 650 1006 768 876 l 768 322 b 422 -19 768 110 646 -19 "},"Ю":{"ha":1254,"x_min":0,"x_max":0,"o":"m 799 -19 b 447 321 569 -19 447 110 l 447 469 l 200 469 l 200 18 b 183 0 200 4 196 0 l 153 0 b 136 18 140 0 136 4 l 136 968 b 153 986 136 982 140 986 l 183 986 b 200 968 196 986 200 982 l 200 531 l 447 531 l 447 665 b 799 1006 447 876 569 1006 b 1147 665 1026 1006 1147 876 l 1147 321 b 799 -19 1147 110 1026 -19 m 799 40 b 1083 322 985 40 1083 146 l 1083 664 b 799 946 1083 840 985 946 b 511 664 610 946 511 840 l 511 322 b 799 40 511 146 610 40 "},"Я":{"ha":875,"x_min":0,"x_max":0,"o":"m 88 0 b 76 18 74 0 71 8 l 213 326 b 315 442 236 382 265 421 b 99 708 179 458 99 550 b 361 986 99 885 199 986 l 724 986 b 740 968 736 986 740 982 l 740 18 b 724 0 740 4 736 0 l 692 0 b 675 18 679 0 675 4 l 675 433 l 461 433 b 271 301 360 433 311 394 l 147 15 b 114 0 140 3 135 0 l 88 0 m 675 493 l 675 926 l 363 926 b 164 708 238 926 164 847 b 363 493 164 569 239 493 "},"а":{"ha":694,"x_min":0,"x_max":0,"o":"m 344 -19 b 78 193 158 -19 78 47 b 349 401 78 336 163 401 b 529 386 431 401 507 389 l 529 475 b 344 678 529 618 472 678 b 150 560 246 678 186 632 b 128 553 144 550 139 547 l 110 561 b 101 585 99 565 94 571 b 344 732 143 675 221 732 b 588 472 517 732 588 644 l 588 96 b 543 17 588 47 578 33 b 344 -19 497 -6 435 -19 m 340 31 b 500 60 411 31 460 40 b 529 110 524 69 529 76 l 529 336 b 344 353 504 340 425 353 b 138 193 203 353 138 301 b 340 31 138 82 201 31 "},"б":{"ha":754,"x_min":0,"x_max":0,"o":"m 386 -19 b 114 246 207 -19 114 81 l 114 600 b 453 1018 114 901 194 1018 l 499 1018 b 601 1038 543 1018 582 1025 b 624 1028 614 1043 618 1040 l 632 1007 b 622 985 638 994 633 992 b 503 961 597 969 554 961 l 454 961 b 171 611 239 961 171 871 l 171 578 b 394 700 197 622 265 700 b 661 436 569 700 661 601 l 661 246 b 386 -19 661 81 568 -19 m 386 35 b 601 247 529 35 601 114 l 601 433 b 386 646 601 567 529 646 b 174 501 244 646 183 540 l 174 247 b 386 35 174 114 246 35 "},"в":{"ha":726,"x_min":0,"x_max":0,"o":"m 136 0 b 119 17 125 0 119 6 l 119 694 b 136 711 119 707 125 711 l 431 711 b 617 531 549 711 617 646 b 525 372 617 461 593 403 b 642 193 608 342 642 283 b 449 0 642 72 569 0 l 136 0 m 429 393 b 560 528 506 393 560 440 b 421 660 560 614 510 660 l 179 660 l 179 393 m 439 51 b 581 199 529 51 581 106 b 436 344 581 292 529 344 l 179 344 l 179 51 "},"г":{"ha":575,"x_min":0,"x_max":0,"o":"m 135 0 b 119 17 125 0 119 4 l 119 696 b 135 711 119 707 124 711 l 515 711 b 531 696 526 711 531 707 l 531 672 b 515 657 531 660 526 657 l 179 657 l 179 17 b 165 0 179 4 176 0 l 135 0 "},"д":{"ha":793,"x_min":0,"x_max":0,"o":"m 56 -193 b 40 -176 44 -193 40 -189 l 40 39 b 56 56 40 51 44 56 l 100 56 b 193 472 147 99 193 167 l 193 696 b 208 711 193 707 197 711 l 639 711 b 654 696 650 711 654 707 l 654 56 l 728 56 b 743 39 740 56 743 51 l 743 -176 b 728 -193 743 -189 740 -193 l 701 -193 b 685 -176 689 -193 685 -189 l 685 0 l 99 0 l 99 -176 b 82 -193 99 -189 94 -193 l 56 -193 m 594 56 l 594 657 l 251 657 l 251 469 b 168 56 251 206 218 111 "},"е":{"ha":717,"x_min":0,"x_max":0,"o":"m 357 -19 b 92 254 176 -19 92 89 l 92 442 b 364 732 92 621 185 732 b 632 444 544 732 632 615 l 632 374 b 603 343 632 354 624 343 l 151 343 l 151 249 b 357 32 151 117 219 32 b 572 168 474 32 533 86 b 594 175 579 179 585 181 l 614 164 b 622 139 625 158 628 150 b 357 -19 578 49 500 -19 m 574 392 l 574 447 b 364 679 574 589 506 679 b 151 447 221 679 151 589 l 151 392 "},"ж":{"ha":1010,"x_min":0,"x_max":0,"o":"m 67 0 b 58 18 53 0 51 6 l 175 272 b 275 378 201 328 231 363 l 67 693 b 78 711 58 706 61 711 l 101 711 b 132 699 119 711 125 711 l 331 393 b 361 394 340 394 350 394 l 475 394 l 475 696 b 490 711 475 707 479 711 l 518 711 b 533 696 531 711 533 707 l 533 394 l 649 394 b 676 393 657 394 669 394 l 875 699 b 906 711 883 711 888 711 l 931 711 b 942 693 947 711 950 706 l 733 378 b 833 272 778 363 807 328 l 951 18 b 940 0 957 6 956 0 l 915 0 b 888 14 897 0 893 3 l 782 247 b 647 339 753 310 717 339 l 533 339 l 533 17 b 518 0 533 4 531 0 l 490 0 b 475 17 479 0 475 4 l 475 339 l 361 339 b 226 247 292 339 256 310 l 121 14 b 94 0 117 3 113 0 l 67 0 "},"з":{"ha":699,"x_min":0,"x_max":0,"o":"m 357 -19 b 72 175 142 -19 83 147 b 83 197 67 188 71 193 l 106 204 b 126 193 118 208 122 207 b 354 35 131 182 172 35 b 551 193 492 35 551 100 b 400 339 551 290 507 339 l 264 339 b 250 356 253 339 250 343 l 250 374 b 264 390 250 386 253 390 l 400 390 b 540 528 492 390 540 442 b 351 678 540 610 482 678 b 133 532 222 678 151 597 b 113 519 129 518 125 515 l 92 526 b 82 550 81 531 78 538 b 351 732 90 574 144 732 b 600 531 519 732 600 647 b 500 369 600 457 569 397 l 500 368 b 613 189 576 344 613 282 b 357 -19 613 63 532 -19 "},"и":{"ha":769,"x_min":0,"x_max":0,"o":"m 135 0 b 119 17 125 0 119 4 l 119 696 b 135 711 119 707 124 711 l 165 711 b 179 696 176 711 179 707 l 179 225 b 171 85 179 175 178 131 l 174 85 b 233 186 196 124 211 153 l 585 704 b 600 711 589 710 593 711 l 635 711 b 650 696 646 711 650 707 l 650 17 b 635 0 650 4 646 0 l 606 0 b 590 17 594 0 590 4 l 590 475 b 599 628 590 532 593 581 l 596 628 b 531 518 574 589 553 554 l 186 10 b 169 0 182 1 178 0 l 135 0 "},"й":{"ha":726,"x_min":0,"x_max":0,"o":"m 393 821 b 206 975 294 821 235 871 b 215 993 203 986 206 989 l 235 1000 b 253 992 244 1001 249 1000 b 393 868 275 907 318 868 b 533 992 468 868 511 907 b 549 1000 538 1000 542 1001 l 572 993 b 581 975 581 989 583 986 b 393 821 551 871 492 821 m 135 0 b 119 17 125 0 119 4 l 119 696 b 135 711 119 707 124 711 l 165 711 b 179 696 176 711 179 707 l 179 225 b 171 85 179 175 178 131 l 174 85 b 233 186 196 124 211 153 l 585 704 b 600 711 589 710 593 711 l 635 711 b 650 696 646 711 650 707 l 650 17 b 635 0 650 4 646 0 l 606 0 b 590 17 594 0 590 4 l 590 475 b 599 628 590 532 593 581 l 596 628 b 531 518 574 589 553 554 l 186 10 b 169 0 182 1 178 0 l 135 0 "},"к":{"ha":703,"x_min":0,"x_max":0,"o":"m 136 0 b 121 17 124 0 121 4 l 121 696 b 136 711 121 707 124 711 l 165 711 b 181 696 176 711 181 707 l 181 394 l 351 394 l 365 394 l 572 699 b 603 711 581 711 585 711 l 626 711 b 638 693 643 711 646 704 l 422 383 b 535 272 476 371 507 335 l 647 18 b 636 0 653 6 651 0 l 611 0 b 585 14 593 0 589 3 l 483 247 b 357 339 456 310 421 339 l 181 339 l 181 17 b 165 0 181 4 176 0 l 136 0 "},"л":{"ha":731,"x_min":0,"x_max":0,"o":"m 60 -18 b 42 -11 51 -22 47 -19 l 26 17 b 32 35 22 25 24 31 b 165 451 94 67 165 104 l 165 696 b 181 711 165 707 169 711 l 594 711 b 610 696 607 711 610 707 l 610 17 b 594 0 610 4 607 0 l 565 0 b 550 17 554 0 550 4 l 550 656 l 224 656 l 224 449 b 60 -18 224 90 146 25 "},"м":{"ha":879,"x_min":0,"x_max":0,"o":"m 136 0 b 119 17 124 0 119 3 l 119 693 b 138 711 119 707 124 711 l 167 711 b 190 697 179 711 185 708 l 443 199 l 690 696 b 711 711 696 708 699 711 l 743 711 b 760 693 757 711 760 707 l 760 17 b 743 0 760 4 756 0 l 719 0 b 701 17 706 0 701 3 l 701 460 b 710 619 701 508 704 564 l 707 619 b 644 490 683 569 664 532 l 471 149 b 450 135 467 138 463 135 l 436 135 b 414 149 424 135 419 138 l 242 483 b 174 619 218 528 199 569 l 171 619 b 178 449 175 561 178 501 l 178 17 b 161 0 178 4 174 0 l 136 0 "},"н":{"ha":761,"x_min":0,"x_max":0,"o":"m 135 0 b 119 17 125 0 119 4 l 119 696 b 135 711 119 707 124 711 l 165 711 b 179 696 176 711 179 707 l 179 394 l 582 394 l 582 696 b 597 711 582 707 586 711 l 626 711 b 642 696 638 711 642 707 l 642 17 b 626 0 642 4 638 0 l 597 0 b 582 17 586 0 582 4 l 582 339 l 179 339 l 179 17 b 165 0 179 4 176 0 l 135 0 "},"о":{"ha":735,"x_min":0,"x_max":0,"o":"m 367 -19 b 97 224 203 -19 97 72 l 97 488 b 367 732 97 639 203 732 b 638 488 533 732 638 639 l 638 224 b 367 -19 638 72 533 -19 m 367 35 b 578 224 494 35 578 107 l 578 489 b 367 676 578 606 494 676 b 157 489 242 676 157 606 l 157 224 b 367 35 157 107 242 35 "},"п":{"ha":756,"x_min":0,"x_max":0,"o":"m 135 0 b 119 17 125 0 119 4 l 119 696 b 135 711 119 707 124 711 l 619 711 b 635 696 631 711 635 707 l 635 17 b 619 0 635 4 631 0 l 590 0 b 575 17 579 0 575 4 l 575 657 l 179 657 l 179 17 b 165 0 179 4 176 0 l 135 0 "},"р":{"ha":732,"x_min":0,"x_max":0,"o":"m 132 -306 b 117 -289 121 -306 117 -301 l 117 614 b 165 690 117 660 125 672 b 369 732 211 713 281 732 b 635 451 551 732 635 633 l 635 247 b 393 -19 635 81 563 -19 b 176 36 292 -19 208 19 l 176 -289 b 161 -306 176 -301 172 -306 l 132 -306 m 386 36 b 575 249 518 36 575 113 l 575 450 b 368 676 575 601 511 676 b 207 644 300 676 240 660 b 176 599 181 631 176 626 l 176 93 b 386 36 207 75 289 36 "},"с":{"ha":701,"x_min":0,"x_max":0,"o":"m 360 -19 b 94 249 185 -19 94 81 l 94 464 b 364 732 94 631 183 732 b 622 542 518 732 589 660 b 613 518 626 528 622 522 l 589 510 b 568 521 576 507 571 510 b 363 678 539 628 483 678 b 154 465 224 678 154 596 l 154 249 b 361 35 154 117 226 35 b 569 196 478 35 535 86 b 589 207 574 208 578 211 l 615 199 b 625 176 626 196 631 189 b 360 -19 581 44 510 -19 "},"т":{"ha":597,"x_min":0,"x_max":0,"o":"m 285 0 b 269 17 274 0 269 4 l 269 657 l 57 657 b 42 672 46 657 42 660 l 42 696 b 57 711 42 707 46 711 l 540 711 b 556 696 551 711 556 707 l 556 672 b 540 657 556 660 551 657 l 329 657 l 329 17 b 314 0 329 4 325 0 l 285 0 "},"у":{"ha":751,"x_min":0,"x_max":0,"o":"m 368 -351 b 126 -196 236 -351 168 -289 b 132 -169 119 -183 119 -175 l 151 -158 b 176 -167 165 -153 171 -156 b 368 -297 211 -243 264 -297 b 571 -56 513 -297 571 -206 l 571 36 b 356 -10 528 18 464 -10 b 114 258 188 -10 114 90 l 114 696 b 129 711 114 707 117 711 l 158 711 b 174 696 169 711 174 707 l 174 261 b 364 44 174 119 231 44 b 571 92 463 44 532 75 l 571 696 b 586 711 571 707 575 711 l 615 711 b 631 696 626 711 631 707 l 631 -51 b 368 -351 631 -233 557 -351 "},"ф":{"ha":1011,"x_min":0,"x_max":0,"o":"m 492 -306 b 476 -289 481 -306 476 -301 l 476 -11 b 369 -19 440 -17 407 -19 b 93 260 236 -19 93 31 l 93 442 b 369 732 93 671 236 732 b 476 724 407 732 440 728 l 476 1011 b 492 1028 476 1024 481 1028 l 521 1028 b 536 1011 532 1028 536 1024 l 536 724 b 640 732 571 728 604 732 b 917 451 774 732 917 682 l 917 260 b 640 -19 917 31 774 -19 b 536 -11 604 -19 571 -17 l 536 -289 b 521 -306 536 -301 532 -306 l 492 -306 m 371 36 b 478 43 408 36 440 39 l 478 668 b 371 675 440 674 408 675 b 153 440 282 675 151 638 l 153 261 b 371 36 153 65 282 36 m 639 36 b 857 261 729 36 858 65 l 857 450 b 639 675 857 646 729 675 b 535 668 601 675 571 674 l 535 43 b 639 36 571 39 601 36 "},"х":{"ha":650,"x_min":0,"x_max":0,"o":"m 58 0 b 49 18 43 0 42 6 l 286 365 l 60 694 b 71 711 54 704 56 711 l 100 711 b 128 699 115 711 121 710 l 326 408 l 522 699 b 547 711 529 710 532 711 l 579 711 b 589 694 593 711 596 706 l 367 367 l 603 18 b 593 0 610 6 607 0 l 560 0 b 535 14 546 0 542 3 l 326 324 l 115 14 b 89 0 108 1 104 0 l 58 0 "},"ц":{"ha":772,"x_min":0,"x_max":0,"o":"m 679 -193 b 664 -176 668 -193 664 -189 l 664 0 l 136 0 b 119 17 124 0 119 4 l 119 696 b 136 711 119 707 125 711 l 164 711 b 179 696 176 711 179 707 l 179 56 l 575 56 l 575 696 b 590 711 575 707 579 711 l 619 711 b 635 696 631 711 635 707 l 635 56 l 707 56 b 722 39 718 56 722 51 l 722 -176 b 707 -193 722 -189 718 -193 l 679 -193 "},"ч":{"ha":689,"x_min":0,"x_max":0,"o":"m 525 0 b 510 17 514 0 510 4 l 510 301 b 318 268 490 296 411 268 b 74 514 149 268 74 347 l 74 696 b 88 711 74 707 76 711 l 118 711 b 133 696 129 711 133 707 l 133 515 b 326 324 133 379 189 324 b 510 358 413 324 496 353 l 510 696 b 525 711 510 707 514 711 l 554 711 b 569 696 565 711 569 707 l 569 17 b 554 0 569 4 565 0 l 525 0 "},"ш":{"ha":1042,"x_min":0,"x_max":0,"o":"m 136 0 b 119 17 124 0 119 4 l 119 696 b 136 711 119 707 125 711 l 164 711 b 179 696 176 711 179 707 l 179 56 l 492 56 l 492 696 b 507 711 492 707 494 711 l 535 711 b 550 696 547 711 550 707 l 550 56 l 863 56 l 863 696 b 878 711 863 707 865 711 l 907 711 b 922 696 918 711 922 707 l 922 17 b 907 0 922 4 918 0 l 136 0 "},"щ":{"ha":1067,"x_min":0,"x_max":0,"o":"m 974 -193 b 958 -176 963 -193 958 -189 l 958 0 l 136 0 b 119 17 124 0 119 4 l 119 696 b 136 711 119 707 125 711 l 164 711 b 179 696 176 711 179 707 l 179 56 l 494 56 l 494 696 b 510 711 494 707 499 711 l 539 711 b 554 696 550 711 554 707 l 554 56 l 868 56 l 868 696 b 885 711 868 707 872 711 l 913 711 b 928 696 925 711 928 707 l 928 56 l 1001 56 b 1017 39 1013 56 1017 51 l 1017 -176 b 1001 -193 1017 -189 1013 -193 l 974 -193 "},"ъ":{"ha":832,"x_min":0,"x_max":0,"o":"m 249 0 b 233 17 238 0 233 4 l 233 657 l 57 657 b 42 672 44 657 42 660 l 42 696 b 57 711 42 707 44 711 l 279 711 b 293 696 290 711 293 707 l 293 475 l 540 475 b 765 239 681 475 765 392 b 540 0 765 85 681 0 l 249 0 m 535 54 b 706 239 643 54 706 119 b 535 421 706 358 643 421 l 293 421 l 293 54 "},"ы":{"ha":954,"x_min":0,"x_max":0,"o":"m 135 0 b 119 17 124 0 119 4 l 119 696 b 135 711 119 707 124 711 l 165 711 b 179 696 176 711 179 707 l 179 475 l 424 475 b 647 239 564 475 647 392 b 424 0 647 85 564 0 l 135 0 m 789 0 b 774 17 778 0 774 4 l 774 696 b 789 711 774 707 778 711 l 818 711 b 833 696 829 711 833 707 l 833 17 b 818 0 833 4 829 0 l 789 0 m 418 54 b 588 239 526 54 588 119 b 418 421 588 358 526 421 l 179 421 l 179 54 "},"ь":{"ha":701,"x_min":0,"x_max":0,"o":"m 135 0 b 119 17 124 0 119 4 l 119 696 b 135 711 119 707 124 711 l 165 711 b 179 696 176 711 179 707 l 179 475 l 418 475 b 636 239 554 475 636 392 b 418 0 636 85 554 0 l 135 0 m 413 54 b 576 239 517 54 576 119 b 413 421 576 358 517 421 l 179 421 l 179 54 "},"э":{"ha":699,"x_min":0,"x_max":0,"o":"m 339 -19 b 74 181 190 -19 110 50 b 83 204 69 194 72 200 l 107 211 b 128 200 119 214 124 213 b 338 35 157 88 219 35 b 543 247 472 35 543 117 l 543 336 l 261 338 b 247 353 250 338 247 342 l 247 375 b 261 392 247 388 251 392 l 543 392 l 543 465 b 338 678 543 596 475 678 b 132 522 215 678 160 629 b 111 511 126 511 124 508 l 89 518 b 79 542 79 521 75 528 b 338 732 111 660 182 732 b 604 464 515 732 604 629 l 604 250 b 339 -19 604 82 514 -19 "},"ю":{"ha":1017,"x_min":0,"x_max":0,"o":"m 644 -19 b 372 221 481 -19 372 71 l 372 333 l 179 333 l 179 17 b 164 0 179 4 176 0 l 135 0 b 119 17 125 0 119 4 l 119 696 b 135 711 119 707 124 711 l 164 711 b 179 696 176 711 179 707 l 179 389 l 372 389 l 372 490 b 644 732 374 642 481 732 b 918 490 814 732 918 640 l 918 221 b 644 -19 918 71 814 -19 m 644 35 b 858 219 775 35 858 104 l 858 492 b 644 676 858 607 775 676 b 431 492 517 676 431 607 l 431 219 b 644 35 431 104 517 35 "},"я":{"ha":717,"x_min":0,"x_max":0,"o":"m 94 0 b 83 19 76 0 76 7 l 244 279 b 88 489 150 294 88 369 b 292 711 88 629 168 711 l 582 711 b 599 694 593 711 599 707 l 599 17 b 583 0 599 4 594 0 l 554 0 b 539 17 542 0 539 4 l 539 269 l 303 269 l 149 14 b 121 0 143 1 138 0 l 94 0 m 539 322 l 539 657 l 300 657 b 146 489 206 657 146 593 b 301 322 146 386 207 322 "}}}
